<?xml version="1.0" encoding="UTF-8"?>
<svg xmlns="http://www.w3.org/2000/svg" xmlns:xlink="http://www.w3.org/1999/xlink" width="169px" height="239px" viewBox="0 0 446 631" version="1.1">
<g id="surface1">
<path style=" stroke:none;fill-rule:nonzero;fill:rgb(99.607843%,99.607843%,99.607843%);fill-opacity:1;" d="M 222.886719 499.726562 C 149.628906 499.726562 76.359375 499.710938 3.101562 499.792969 C 0.636719 499.792969 0.015625 499.402344 0.015625 496.765625 C 0.0976562 389.96875 0.105469 283.175781 0 176.375 C 0 173.476562 0.839844 173.207031 3.320312 173.214844 C 149.964844 173.273438 296.617188 173.273438 443.265625 173.207031 C 445.851562 173.207031 446.546875 173.617188 446.539062 176.417969 C 446.441406 283.09375 446.441406 389.765625 446.539062 496.4375 C 446.539062 499.402344 445.691406 499.800781 443.039062 499.792969 C 369.660156 499.710938 296.273438 499.726562 222.886719 499.726562 Z M 222.886719 499.726562 "/>
<path style=" stroke:none;fill-rule:nonzero;fill:rgb(92.54902%,10.980392%,14.117647%);fill-opacity:1;" d="M 152.527344 243.511719 C 154.394531 236.554688 156.070312 229.535156 159.25 223.003906 C 164.566406 212.066406 171.707031 202.867188 183.382812 198.320312 C 199.714844 191.953125 218.019531 202.703125 219.972656 219.640625 C 220.550781 224.628906 219.164062 229.03125 215.828125 232.753906 C 212.578125 236.390625 209.320312 236.394531 206.015625 232.84375 C 203.265625 229.878906 201.648438 226.238281 200.105469 222.554688 C 198.558594 218.882812 196.964844 215.234375 194.441406 212.097656 C 188.707031 204.988281 180.195312 205.558594 175.355469 213.40625 C 172.269531 218.410156 171.339844 224.082031 170.652344 229.773438 C 170.105469 234.214844 169.910156 238.703125 169.558594 243.175781 C 170.523438 248.6875 170.121094 254.097656 168.351562 259.40625 C 167.023438 282.636719 165.722656 305.863281 164.378906 329.089844 C 162.867188 355.429688 161.324219 381.757812 159.796875 408.085938 C 160.949219 414.132812 160.164062 420.101562 159.070312 426.054688 C 158.796875 427.503906 158.707031 429.039062 157.316406 429.980469 C 154.347656 443.6875 149.523438 456.476562 139.09375 466.378906 C 132.589844 472.550781 125.074219 476.484375 115.914062 476.699219 C 104.675781 476.960938 93.179688 468.632812 90.523438 458.027344 C 89.152344 452.574219 89.789062 447.390625 93.519531 442.902344 C 97.101562 438.601562 101.125 438.484375 104.808594 442.640625 C 107.222656 445.359375 108.839844 448.589844 110.316406 451.890625 C 111.785156 455.1875 113.375 458.429688 115.695312 461.226562 C 121.335938 468.027344 129.804688 467.539062 134.667969 460.117188 C 138.113281 454.859375 139.050781 448.820312 139.707031 442.746094 C 140.15625 438.542969 140.351562 434.320312 140.667969 430.101562 C 140.390625 429.75 140.179688 429.351562 140.039062 428.917969 C 140.054688 422.699219 140.898438 416.527344 141.117188 410.3125 C 140.726562 403.570312 141.679688 396.886719 142.070312 390.191406 C 142.421875 384.246094 142.863281 378.265625 143.117188 372.320312 C 143.890625 354.800781 145.441406 337.324219 146.039062 319.804688 C 146.429688 308.484375 147.402344 297.210938 147.859375 285.894531 C 148.300781 274.726562 148.796875 263.519531 150.136719 252.394531 C 150.933594 249.4375 150.371094 246.105469 152.527344 243.511719 Z M 152.527344 243.511719 "/>
<path style=" stroke:none;fill-rule:nonzero;fill:rgb(43.529412%,43.921569%,45.098039%);fill-opacity:1;" d="M 295.75 310.539062 C 290.117188 327.832031 284.554688 344.964844 278.9375 362.074219 C 277.851562 365.382812 278.945312 367.089844 282.308594 367.519531 C 283.269531 367.636719 284.40625 367.667969 284.257812 369.152344 C 284.097656 370.761719 282.816406 370.230469 281.964844 370.238281 C 277.378906 370.289062 272.800781 370.289062 268.214844 370.238281 C 267.347656 370.230469 266.050781 370.710938 265.894531 369.160156 C 265.734375 367.691406 266.925781 367.644531 267.886719 367.539062 C 272.03125 367.105469 273.128906 363.878906 274.226562 360.640625 C 280.527344 342.042969 286.839844 323.453125 293.105469 304.835938 C 293.90625 302.449219 294.257812 300.28125 297.808594 300.425781 C 301.0625 300.558594 303.046875 300.828125 304.253906 304.546875 C 310.316406 323.226562 316.742188 341.789062 323.007812 360.402344 C 324.199219 363.9375 325.457031 367.300781 329.929688 367.621094 C 330.707031 367.683594 331.351562 368.042969 331.339844 369.007812 C 331.316406 370.3125 330.355469 370.238281 329.503906 370.238281 C 322.9375 370.253906 316.375 370.253906 309.8125 370.238281 C 308.957031 370.238281 308.007812 370.3125 307.992188 369 C 307.976562 367.765625 308.90625 367.628906 309.753906 367.53125 C 313.640625 367.082031 314.023438 364.417969 313.101562 361.53125 C 307.671875 344.613281 302.097656 327.742188 296.566406 310.851562 C 296.523438 310.792969 296.347656 310.777344 295.75 310.539062 Z M 295.75 310.539062 "/>
<path style=" stroke:none;fill-rule:nonzero;fill:rgb(43.529412%,43.921569%,45.098039%);fill-opacity:1;" d="M 422.878906 370.246094 C 420.179688 370.355469 416.921875 369.9375 413.933594 368.101562 C 412.597656 367.277344 411.101562 366.582031 410.605469 369.007812 C 410.3125 370.433594 409.28125 370.222656 408.300781 370.222656 C 407.046875 370.222656 407.09375 369.253906 406.929688 368.410156 C 406.34375 365.480469 405.714844 362.566406 405.136719 359.636719 C 404.957031 358.730469 404.222656 357.5625 405.414062 356.980469 C 406.597656 356.402344 407.511719 357.234375 408.207031 358.207031 C 412.171875 363.71875 417.835938 365.242188 424.203125 365.121094 C 429 365.03125 431.757812 362.972656 433.261719 358.355469 C 435.996094 349.960938 433.472656 343.914062 425.402344 340.445312 C 420.367188 338.289062 415.363281 336.3125 411.648438 331.96875 C 402.402344 321.1875 407.0625 303.96875 420.167969 301.015625 C 424.617188 300.011719 428.984375 300.28125 433.074219 302.785156 C 434.566406 303.699219 437.0625 306.101562 436.980469 301.488281 C 436.964844 300.621094 437.675781 300.613281 438.289062 300.589844 C 439.085938 300.550781 439.742188 300.71875 439.953125 301.667969 C 440.5625 304.460938 441.234375 307.242188 441.796875 310.035156 C 442.027344 311.183594 441.0625 311.054688 440.351562 311.128906 C 438.941406 311.285156 438.019531 310.394531 437.128906 309.554688 C 433.617188 306.230469 429.359375 305.472656 424.746094 305.722656 C 420.488281 305.953125 417.335938 309.09375 416.699219 314.011719 C 415.886719 320.238281 418.234375 324.941406 423.597656 328.140625 C 427.636719 330.542969 432.042969 332.191406 436.027344 334.777344 C 444.382812 340.191406 445.691406 348.695312 443.296875 357.472656 C 441.25 364.957031 433.601562 370.074219 425.058594 370.238281 C 424.570312 370.253906 424.078125 370.246094 422.878906 370.246094 Z M 422.878906 370.246094 "/>
<path style=" stroke:none;fill-rule:nonzero;fill:rgb(43.529412%,43.921569%,45.098039%);fill-opacity:1;" d="M 236.507812 335.855469 C 236.507812 344.460938 236.589844 353.078125 236.464844 361.683594 C 236.417969 364.972656 237.019531 367.398438 240.855469 367.617188 C 241.714844 367.667969 242.613281 367.742188 242.585938 369.03125 C 242.546875 370.378906 241.609375 370.246094 240.765625 370.253906 C 234.566406 370.265625 228.363281 370.265625 222.167969 370.246094 C 221.359375 370.246094 220.316406 370.492188 220.207031 369.164062 C 220.101562 367.988281 220.878906 367.636719 221.816406 367.585938 C 225.660156 367.390625 226.246094 364.992188 226.222656 361.683594 C 226.125 344.34375 226.109375 327 226.246094 309.660156 C 226.265625 306.671875 225.703125 305.363281 222.445312 305.667969 C 219.246094 305.96875 216.003906 305.832031 212.78125 305.714844 C 208.554688 305.554688 205.191406 306.816406 203.453125 310.980469 C 202.949219 312.191406 202.230469 312.988281 200.957031 312.523438 C 199.195312 311.878906 200.449219 310.679688 200.734375 309.78125 C 203.648438 300.566406 203.664062 300.574219 213.085938 300.574219 C 227.34375 300.574219 241.601562 300.628906 255.855469 300.523438 C 258.207031 300.507812 259.480469 301.097656 260.085938 303.496094 C 260.695312 305.894531 261.75 308.179688 262.527344 310.539062 C 262.730469 311.152344 263.398438 312.027344 262.453125 312.46875 C 261.699219 312.820312 260.402344 312.925781 260.085938 312.058594 C 257.480469 304.898438 251.515625 305.585938 245.800781 305.75 C 242.855469 305.832031 239.035156 304.46875 237.183594 306.296875 C 235.160156 308.296875 236.574219 312.207031 236.523438 315.273438 C 236.425781 322.132812 236.507812 328.996094 236.507812 335.855469 Z M 236.507812 335.855469 "/>
<path style=" stroke:none;fill-rule:nonzero;fill:rgb(43.529412%,43.921569%,45.098039%);fill-opacity:1;" d="M 371.128906 335.683594 C 371.128906 344.410156 371.195312 353.144531 371.09375 361.871094 C 371.054688 364.992188 371.625 367.332031 375.28125 367.585938 C 376.308594 367.652344 377.355469 367.871094 377.109375 369.308594 C 376.890625 370.566406 375.804688 370.238281 375.027344 370.246094 C 368.957031 370.273438 362.878906 370.265625 356.8125 370.246094 C 356.011719 370.246094 354.953125 370.492188 354.835938 369.171875 C 354.730469 367.996094 355.523438 367.699219 356.460938 367.628906 C 360.234375 367.347656 360.871094 364.957031 360.859375 361.652344 C 360.769531 344.191406 360.761719 326.738281 360.871094 309.277344 C 360.886719 306.597656 360.371094 305.453125 357.441406 305.667969 C 353.867188 305.9375 350.257812 305.78125 346.667969 305.722656 C 342.855469 305.660156 339.902344 307.003906 338.246094 310.628906 C 337.707031 311.804688 337.105469 313.136719 335.585938 312.5 C 333.675781 311.699219 335.203125 310.378906 335.519531 309.40625 C 338.386719 300.558594 338.417969 300.574219 347.761719 300.574219 C 362.011719 300.574219 376.261719 300.628906 390.503906 300.523438 C 392.863281 300.507812 394.125 301.097656 394.691406 303.511719 C 395.238281 305.796875 396.265625 307.960938 397.015625 310.199219 C 397.261719 310.949219 397.996094 311.96875 396.875 312.460938 C 396.003906 312.84375 394.851562 312.859375 394.386719 311.601562 C 392.339844 306.035156 387.816406 305.429688 382.832031 305.742188 C 379.042969 305.984375 374.125 304.117188 371.757812 306.53125 C 369.585938 308.746094 371.203125 313.644531 371.152344 317.363281 C 371.070312 323.464844 371.128906 329.570312 371.128906 335.683594 Z M 371.128906 335.683594 "/>
<path style=" stroke:none;fill-rule:nonzero;fill:rgb(43.921569%,44.705882%,45.490196%);fill-opacity:1;" d="M 6.480469 297.414062 C 7.410156 292.589844 8.9375 287.945312 10.601562 283.339844 C 13.027344 282.621094 13.023438 284.648438 13.035156 285.902344 C 13.074219 289.136719 13.695312 292.335938 13.417969 295.609375 C 12.714844 303.9375 13.425781 312.289062 13.320312 320.632812 C 13.230469 327.953125 13.464844 335.265625 13.082031 342.597656 C 12.691406 350.058594 13.824219 357.519531 13.464844 365 C 13.125 372.078125 12.804688 379.160156 13.441406 386.238281 C 13.554688 387.464844 13.472656 388.761719 12.617188 389.800781 C 11.933594 390.625 11.238281 390.894531 10.652344 389.683594 C 8.742188 384.820312 7.238281 379.839844 6.21875 374.714844 C 6.996094 372.640625 6.316406 370.535156 6.324219 368.445312 C 6.359375 347.25 6.367188 326.042969 6.316406 304.84375 C 6.316406 302.359375 7.183594 299.902344 6.480469 297.414062 Z M 6.480469 297.414062 "/>
<path style=" stroke:none;fill-rule:nonzero;fill:rgb(43.137255%,43.529412%,44.705882%);fill-opacity:1;" d="M 6.480469 297.414062 C 7.972656 298.335938 7.507812 299.839844 7.507812 301.144531 C 7.53125 324.851562 7.539062 348.550781 7.453125 372.257812 C 7.453125 373.015625 8.773438 375.039062 6.21875 374.714844 C 2.136719 358.453125 0.839844 341.976562 2.039062 325.242188 C 2.726562 315.816406 4.007812 306.53125 6.480469 297.414062 Z M 6.480469 297.414062 "/>
<path style=" stroke:none;fill-rule:nonzero;fill:rgb(45.098039%,45.882353%,47.058824%);fill-opacity:1;" d="M 10.660156 389.683594 C 13.007812 390.183594 12.585938 388.347656 12.566406 387.1875 C 12.453125 382.175781 11.726562 377.128906 12.144531 372.167969 C 12.550781 367.429688 11.890625 362.679688 12.667969 357.988281 C 12.984375 356.101562 12.390625 354.3125 12.292969 352.46875 C 11.589844 339.90625 12.699219 327.347656 12.21875 314.753906 C 11.859375 305.277344 12.210938 295.722656 12.28125 286.207031 C 12.289062 285.0625 12.339844 283.59375 10.609375 283.347656 C 11.394531 280.769531 11.988281 278.109375 13.570312 275.855469 C 15.449219 275.152344 15.589844 276.636719 15.875 277.789062 C 16.199219 279.121094 16.125 280.5 16.085938 281.863281 C 15.847656 290.777344 16.046875 299.691406 16.019531 308.605469 C 16.011719 310.746094 16.601562 312.761719 16.796875 314.851562 C 16.761719 322.574219 15.472656 330.214844 15.351562 337.9375 C 15.246094 344.6875 15.914062 351.367188 16.617188 358.050781 C 16.789062 359.667969 16.925781 361.269531 16.714844 362.894531 C 15.695312 366.175781 16.152344 369.539062 16.144531 372.882812 C 16.132812 379.710938 16.273438 386.542969 16.054688 393.367188 C 16.003906 394.925781 16.609375 397.40625 13.539062 397.136719 C 12.019531 394.875 11.359375 392.265625 10.660156 389.683594 Z M 10.660156 389.683594 "/>
<path style=" stroke:none;fill-rule:nonzero;fill:rgb(72.54902%,73.333333%,74.117647%);fill-opacity:1;" d="M 140.667969 429.335938 C 140.667969 429.585938 140.660156 429.839844 140.660156 430.085938 C 108.269531 430.09375 75.882812 430.109375 43.492188 430.117188 C 43.394531 429.929688 43.296875 429.742188 43.199219 429.554688 C 44.460938 427.9375 46.265625 428.453125 47.90625 428.3125 C 49.816406 428.257812 51.71875 428.234375 53.628906 428.289062 C 55.128906 428.234375 56.625 428.234375 58.132812 428.289062 C 59.863281 428.230469 61.59375 428.234375 63.324219 428.28125 C 65.0625 428.222656 66.800781 428.222656 68.546875 428.273438 C 70.726562 428.214844 72.898438 428.207031 75.078125 428.28125 C 76.59375 428.25 78.113281 428.214844 79.628906 428.289062 C 80.925781 428.234375 82.21875 428.242188 83.515625 428.289062 C 85.679688 428.222656 87.847656 428.230469 90.011719 428.289062 C 91.527344 428.25 93.039062 428.222656 94.550781 428.289062 C 96.269531 428.242188 97.984375 428.230469 99.699219 428.289062 C 100.945312 428.25 102.1875 428.230469 103.421875 428.289062 C 106.613281 428.664062 107.949219 427.292969 107.703125 424.019531 C 107.515625 421.546875 107.535156 419.046875 107.695312 416.566406 C 107.890625 413.53125 106.683594 412.125 103.632812 412.410156 C 102.351562 412.402344 101.070312 412.476562 99.835938 412.035156 C 99.40625 411.855469 99.078125 411.5625 98.84375 411.152344 C 98.851562 410.648438 99.085938 410.289062 99.527344 410.0625 C 103.371094 408.902344 107.3125 409.53125 111.199219 409.511719 C 115.964844 409.488281 120.738281 409.105469 125.488281 409.792969 C 125.921875 409.929688 126.304688 410.160156 126.632812 410.476562 C 126.820312 410.925781 126.738281 411.324219 126.394531 411.660156 C 125.292969 412.402344 124.019531 412.339844 122.785156 412.417969 C 120.960938 412.492188 120.207031 413.523438 120.191406 415.277344 C 120.152344 418.714844 120.136719 422.148438 120.199219 425.585938 C 120.226562 427.390625 121.128906 428.289062 122.925781 428.289062 C 124.125 428.273438 125.316406 428.257812 126.515625 428.304688 C 127.75 428.28125 128.996094 428.257812 130.230469 428.3125 C 131.472656 428.289062 132.71875 428.265625 133.96875 428.3125 C 135.21875 428.289062 136.480469 428.265625 137.730469 428.332031 C 138.816406 428.3125 139.828125 428.582031 140.667969 429.335938 Z M 140.667969 429.335938 "/>
<path style=" stroke:none;fill-rule:nonzero;fill:rgb(49.803922%,50.588235%,51.764706%);fill-opacity:1;" d="M 173.429688 243.648438 C 176.503906 242.941406 177.730469 243.847656 177.902344 247.339844 C 178.375 256.914062 179.386719 266.457031 180.039062 276.019531 C 180.121094 277.285156 181.304688 279.390625 178.4375 279.691406 C 175.886719 279.953125 175.84375 278.425781 175.460938 276.574219 C 174.691406 272.816406 173.566406 269.128906 172.59375 265.40625 C 172.6875 259.9375 172.628906 254.472656 172.449219 249.003906 C 172.390625 247.175781 172.050781 245.234375 173.429688 243.648438 Z M 173.429688 243.648438 "/>
<path style=" stroke:none;fill-rule:nonzero;fill:rgb(45.882353%,46.27451%,47.45098%);fill-opacity:1;" d="M 15.839844 315.046875 C 14.863281 310.917969 14.828125 306.746094 14.917969 302.523438 C 15.082031 294.621094 14.976562 286.71875 14.953125 278.816406 C 14.945312 277.652344 15.398438 276.1875 13.570312 275.847656 C 14.484375 272.710938 15.800781 269.75 17.410156 266.921875 C 20.003906 267.390625 19.71875 269.550781 19.78125 271.316406 C 19.9375 276.050781 19.824219 280.800781 19.839844 285.535156 C 19.855469 289.390625 19.695312 293.257812 20.460938 297.070312 C 20.152344 302.6875 18.078125 307.960938 17.238281 313.480469 C 17.121094 314.230469 16.671875 314.859375 15.839844 315.046875 Z M 15.839844 315.046875 "/>
<path style=" stroke:none;fill-rule:nonzero;fill:rgb(47.058824%,47.45098%,48.627451%);fill-opacity:1;" d="M 22.964844 416.707031 C 20.566406 413.449219 18.992188 409.757812 17.382812 406.085938 C 17.417969 399.382812 17.703125 392.679688 17.636719 385.96875 C 17.613281 384.140625 17.375 382.175781 18.96875 380.738281 C 21.023438 380.140625 21.195312 381.898438 21.511719 383.039062 C 22.859375 387.921875 24.957031 392.566406 25.910156 397.5625 C 24.710938 402.550781 25.75 407.621094 25.367188 412.640625 C 25.234375 414.402344 25.59375 416.453125 22.964844 416.707031 Z M 22.964844 416.707031 "/>
<path style=" stroke:none;fill-rule:nonzero;fill:rgb(47.058824%,47.843137%,48.627451%);fill-opacity:1;" d="M 19.441406 297.601562 C 18.011719 288.738281 18.949219 279.8125 18.6875 270.914062 C 18.640625 269.460938 19.03125 267.863281 17.410156 266.921875 C 18.722656 264.089844 19.636719 261.046875 21.742188 258.628906 C 24.449219 258.027344 24.035156 260.246094 24.183594 261.601562 C 24.492188 264.539062 24.320312 267.503906 24.304688 270.457031 C 24.28125 274.515625 24.296875 278.574219 24.898438 282.597656 C 24.53125 287.570312 22.304688 292.007812 20.84375 296.664062 C 20.648438 297.265625 20.167969 297.683594 19.441406 297.601562 Z M 19.441406 297.601562 "/>
<path style=" stroke:none;fill-rule:nonzero;fill:rgb(48.627451%,49.411765%,50.196078%);fill-opacity:1;" d="M 22.964844 416.707031 C 25.976562 413.757812 23.992188 410.027344 24.433594 406.6875 C 24.8125 403.765625 23.4375 400.648438 25.382812 397.882812 C 26.125 397.703125 26.582031 398.148438 26.84375 398.714844 C 28.742188 402.878906 30.929688 406.925781 32.203125 411.359375 C 31.722656 415.414062 32.066406 419.480469 32.03125 423.539062 C 32.015625 425.277344 32.246094 427.308594 29.8125 427.871094 C 27.332031 424.265625 24.851562 420.671875 22.964844 416.707031 Z M 22.964844 416.707031 "/>
<path style=" stroke:none;fill-rule:nonzero;fill:rgb(60%,60.784314%,61.568627%);fill-opacity:1;" d="M 64.808594 243.640625 C 66.300781 243.640625 67.78125 243.640625 69.273438 243.640625 C 71.425781 246.035156 69.65625 249.039062 70.511719 251.640625 C 70.515625 252.644531 70.667969 253.640625 70.667969 254.652344 C 70.121094 262.1875 70.5625 269.722656 70.367188 277.257812 C 70.324219 279.023438 70.773438 281.070312 68.6875 282.179688 C 65.386719 281.535156 63.902344 279.371094 63.707031 276.125 C 64.90625 271.257812 64.1875 266.285156 64.449219 261.371094 C 64.761719 255.46875 63.945312 249.535156 64.808594 243.640625 Z M 64.808594 243.640625 "/>
<path style=" stroke:none;fill-rule:nonzero;fill:rgb(56.862745%,57.647059%,58.431373%);fill-opacity:1;" d="M 50.675781 243.640625 C 52.910156 243.640625 55.144531 243.640625 57.375 243.640625 C 57.683594 244.023438 58.085938 244.425781 58.117188 244.898438 C 58.582031 252.367188 59.242188 259.839844 57.75 267.28125 C 56.761719 268.359375 55.636719 268.058594 54.882812 267.191406 C 52.746094 264.726562 50.027344 262.621094 49.488281 259.070312 C 49.792969 255.113281 49.433594 251.136719 49.859375 247.183594 C 49.988281 245.960938 49.777344 244.671875 50.675781 243.640625 Z M 50.675781 243.640625 "/>
<path style=" stroke:none;fill-rule:nonzero;fill:rgb(45.882353%,46.27451%,47.45098%);fill-opacity:1;" d="M 19.546875 380.425781 C 18.054688 383.105469 18.777344 386.019531 18.714844 388.835938 C 18.601562 393.878906 18.671875 398.925781 18.664062 403.972656 C 18.664062 404.941406 18.175781 405.605469 17.382812 406.085938 C 15.742188 403.261719 14.445312 400.289062 13.539062 397.144531 C 15.570312 396.730469 14.933594 395.082031 14.941406 393.863281 C 14.984375 385.585938 15 377.316406 14.941406 369.039062 C 14.925781 366.800781 15.082031 364.613281 15.808594 362.492188 C 16.167969 362.589844 16.640625 362.65625 16.730469 363.023438 C 18.175781 368.730469 20.148438 374.371094 19.546875 380.425781 Z M 19.546875 380.425781 "/>
<path style=" stroke:none;fill-rule:nonzero;fill:rgb(58.039216%,58.823529%,60%);fill-opacity:1;" d="M 56.582031 267.625 C 57.855469 266.554688 57.347656 265.085938 57.351562 263.78125 C 57.398438 257.070312 57.375 250.359375 57.375 243.640625 C 58.867188 243.640625 60.351562 243.640625 61.839844 243.640625 C 63.015625 244.964844 62.996094 246.605469 63.003906 248.222656 C 63.03125 254.6875 63.054688 261.152344 62.988281 267.617188 C 62.972656 269.324219 63.144531 271.160156 61.527344 272.394531 C 58.019531 272.761719 56.925781 270.582031 56.582031 267.625 Z M 56.582031 267.625 "/>
<path style=" stroke:none;fill-rule:nonzero;fill:rgb(52.54902%,53.333333%,54.509804%);fill-opacity:1;" d="M 41.035156 230.9375 C 42.488281 228.636719 44.519531 226.851562 46.414062 224.949219 C 49.148438 224.5 48.65625 226.75 48.722656 228.082031 C 48.910156 232.042969 49.042969 236.023438 48.59375 239.976562 C 47.996094 240.71875 47.394531 241.453125 46.796875 242.195312 C 44.878906 244.867188 45.082031 248.636719 42.359375 250.90625 C 41.730469 250.964844 41.171875 250.824219 40.675781 250.417969 C 38.710938 247.855469 37.972656 245.273438 39.964844 242.269531 C 41.261719 240.3125 40.625 237.933594 40.699219 235.730469 C 40.742188 234.125 40.644531 232.515625 41.035156 230.9375 Z M 41.035156 230.9375 "/>
<path style=" stroke:none;fill-rule:nonzero;fill:rgb(58.823529%,59.607843%,60.784314%);fill-opacity:1;" d="M 60.238281 272.140625 C 62.515625 271.75 61.804688 269.925781 61.8125 268.589844 C 61.863281 260.277344 61.839844 251.960938 61.839844 243.648438 C 62.832031 243.648438 63.828125 243.648438 64.816406 243.648438 C 65.445312 244.753906 65.578125 245.953125 65.574219 247.21875 C 65.550781 255.617188 65.550781 264.007812 65.566406 272.402344 C 65.566406 274.058594 65.414062 275.625 63.894531 276.664062 C 61.371094 276.214844 60.53125 274.394531 60.238281 272.140625 Z M 60.238281 272.140625 "/>
<path style=" stroke:none;fill-rule:nonzero;fill:rgb(48.627451%,49.411765%,50.196078%);fill-opacity:1;" d="M 25.210938 252.554688 C 26.425781 250.125 27.847656 247.835938 29.632812 245.78125 C 32.285156 245.894531 31.78125 247.925781 31.855469 249.558594 C 32.105469 255.21875 32.277344 260.882812 32.140625 266.554688 C 31.871094 268.816406 30.742188 270.734375 29.738281 272.703125 C 29.183594 273.796875 28.574219 274.957031 26.972656 274.523438 C 25.070312 273.210938 25.046875 271.175781 25.03125 269.203125 C 24.980469 263.652344 24.875 258.097656 25.210938 252.554688 Z M 25.210938 252.554688 "/>
<path style=" stroke:none;fill-rule:nonzero;fill:rgb(50.980392%,51.764706%,52.941176%);fill-opacity:1;" d="M 41.035156 230.9375 C 41.703125 235.414062 43.199219 239.910156 39.925781 244.132812 C 38.1875 246.382812 41.394531 248.125 40.988281 250.34375 C 40.59375 254.019531 39.109375 256.972656 35.589844 258.574219 C 33.128906 253.75 35.109375 248.582031 34.53125 243.609375 C 34.367188 242.179688 34.585938 240.660156 34.367188 239.191406 C 36.210938 236.117188 38.53125 233.453125 41.035156 230.9375 Z M 41.035156 230.9375 "/>
<path style=" stroke:none;fill-rule:nonzero;fill:rgb(47.45098%,48.235294%,49.019608%);fill-opacity:1;" d="M 180.59375 394.769531 C 181.492188 391.839844 182.453125 388.925781 183.261719 385.976562 C 183.703125 384.363281 184.707031 384.28125 186.0625 384.433594 C 187.808594 384.625 187.882812 385.601562 187.644531 387.039062 C 186.265625 395.324219 185.066406 403.636719 183.53125 411.882812 C 183.195312 413.71875 183.644531 415.578125 182.960938 417.332031 C 180.285156 416.941406 180.644531 414.785156 180.617188 413.015625 C 180.488281 406.933594 180.554688 400.851562 180.59375 394.769531 Z M 180.59375 394.769531 "/>
<path style=" stroke:none;fill-rule:nonzero;fill:rgb(49.803922%,50.588235%,51.372549%);fill-opacity:1;" d="M 34.367188 239.183594 C 35.527344 239.738281 36.136719 240.816406 35.730469 241.910156 C 34.757812 244.570312 36.148438 247.21875 35.527344 249.820312 C 34.824219 252.742188 35.867188 255.585938 35.78125 258.472656 C 35.453125 261.878906 34.6875 265.054688 31.316406 266.824219 C 31.191406 260.859375 30.988281 254.90625 31.003906 248.941406 C 31.011719 247.535156 30.710938 246.566406 29.625 245.789062 C 30.882812 243.347656 32.5 241.167969 34.367188 239.183594 Z M 34.367188 239.183594 "/>
<path style=" stroke:none;fill-rule:nonzero;fill:rgb(52.941176%,53.333333%,54.509804%);fill-opacity:1;" d="M 46.945312 448.8125 C 44.953125 446.574219 42.960938 444.332031 40.96875 442.085938 C 40.757812 440.746094 40.675781 439.398438 40.691406 438.035156 C 40.726562 434.960938 40.996094 431.871094 39.078125 429.105469 C 38.441406 428.183594 38.570312 426.96875 38.960938 425.875 C 39.34375 425.046875 39.984375 424.558594 40.894531 424.4375 C 44.234375 425.285156 43.132812 427.882812 43.089844 430.0625 C 43.214844 430.125 43.351562 430.140625 43.484375 430.109375 C 44.855469 433.226562 47.5 435.457031 49.148438 438.378906 C 49.597656 440.84375 49.652344 443.320312 49.382812 445.800781 C 49.238281 447.261719 49.066406 448.886719 46.945312 448.8125 Z M 46.945312 448.8125 "/>
<path style=" stroke:none;fill-rule:nonzero;fill:rgb(53.72549%,54.509804%,55.686275%);fill-opacity:1;" d="M 48.59375 239.976562 C 46.625 236.367188 48.25 232.464844 47.6875 228.742188 C 47.484375 227.421875 48.550781 225.632812 46.421875 224.949219 C 48.21875 222.589844 50.414062 220.644531 52.722656 218.808594 C 54.507812 218.777344 54.609375 220.222656 54.648438 221.363281 C 54.761719 225.289062 55.261719 229.226562 54.394531 233.136719 C 52.453125 235.414062 50.519531 237.699219 48.59375 239.976562 Z M 48.59375 239.976562 "/>
<path style=" stroke:none;fill-rule:nonzero;fill:rgb(55.686275%,56.470588%,57.647059%);fill-opacity:1;" d="M 54.378906 233.136719 C 52.917969 229.820312 53.980469 226.320312 53.644531 222.921875 C 53.503906 221.511719 54.183594 219.910156 52.707031 218.808594 C 54.484375 216.839844 56.265625 214.875 58.605469 213.558594 C 60.65625 213.386719 61.175781 214.890625 61.308594 216.394531 C 61.632812 219.855469 61.992188 223.355469 60.433594 226.671875 C 58.453125 228.859375 56.753906 231.316406 54.378906 233.136719 Z M 54.378906 233.136719 "/>
<path style=" stroke:none;fill-rule:nonzero;fill:rgb(58.431373%,59.215686%,60%);fill-opacity:1;" d="M 71.492188 216.53125 C 69.011719 218.785156 66.53125 221.03125 64.050781 223.289062 C 61.953125 218.929688 63.160156 214.351562 63.152344 209.851562 C 65.152344 207.761719 67.476562 206.105469 69.992188 204.703125 C 71.476562 204.53125 71.558594 205.761719 71.648438 206.636719 C 71.984375 209.933594 72.253906 213.242188 71.492188 216.53125 Z M 71.492188 216.53125 "/>
<path style=" stroke:none;fill-rule:nonzero;fill:rgb(50.196078%,50.980392%,51.764706%);fill-opacity:1;" d="M 173.394531 404.535156 C 174.398438 403.5625 175.402344 402.589844 176.398438 401.613281 C 177.582031 402.328125 177.992188 403.503906 178.039062 404.753906 C 178.285156 412.394531 178.023438 420.035156 178.007812 427.683594 C 178.007812 428.421875 177.679688 429.121094 177.027344 429.585938 C 175.6875 429.605469 174.292969 430.125 173.0625 429.128906 C 171.714844 426.558594 172.316406 423.773438 172.261719 421.074219 C 172.179688 416.859375 172.203125 412.640625 172.269531 408.417969 C 172.285156 407.015625 172.757812 405.757812 173.394531 404.535156 Z M 173.394531 404.535156 "/>
<path style=" stroke:none;fill-rule:nonzero;fill:rgb(51.764706%,52.156863%,52.941176%);fill-opacity:1;" d="M 173.429688 243.648438 C 173.601562 249.789062 173.820312 255.929688 173.917969 262.082031 C 173.941406 263.28125 173.664062 264.554688 172.59375 265.40625 C 171.070312 263.472656 170.410156 260.933594 168.351562 259.390625 C 168.757812 253.976562 169.152344 248.566406 169.558594 243.152344 C 170.847656 243.324219 172.136719 243.480469 173.429688 243.648438 Z M 173.429688 243.648438 "/>
<path style=" stroke:none;fill-rule:nonzero;fill:rgb(54.117647%,54.901961%,56.078431%);fill-opacity:1;" d="M 162.273438 409.269531 C 164.003906 408.761719 165.730469 408.25 167.460938 407.742188 C 167.910156 414.964844 168.71875 422.191406 166.933594 429.351562 C 161.742188 430.160156 161.421875 429.890625 161.097656 424.878906 C 160.835938 420.8125 161.203125 416.753906 161.171875 412.695312 C 161.167969 411.449219 161.324219 410.222656 162.273438 409.269531 Z M 162.273438 409.269531 "/>
<path style=" stroke:none;fill-rule:nonzero;fill:rgb(49.019608%,49.803922%,50.588235%);fill-opacity:1;" d="M 177.164062 429.269531 C 177.15625 421.511719 177.191406 413.742188 177.117188 405.980469 C 177.101562 404.519531 176.652344 403.066406 176.40625 401.613281 C 177.402344 400.148438 178.40625 398.671875 179.402344 397.203125 C 180.742188 398.246094 180.921875 399.742188 180.8125 401.246094 C 180.265625 408.933594 181.734375 416.617188 180.699219 424.304688 C 180.578125 425.195312 180.707031 426.3125 181.449219 427.121094 C 181.539062 427.929688 181.644531 428.746094 180.886719 429.34375 C 179.632812 429.855469 178.390625 429.988281 177.164062 429.269531 Z M 177.164062 429.269531 "/>
<path style=" stroke:none;fill-rule:nonzero;fill:rgb(54.901961%,55.686275%,56.470588%);fill-opacity:1;" d="M 42.527344 250.382812 C 43.816406 247.578125 43.351562 243.855469 46.796875 242.195312 C 47.410156 244.523438 49.433594 243.03125 50.675781 243.640625 C 50.753906 248.90625 51.316406 254.203125 49.867188 259.390625 C 46.234375 257.363281 43.566406 254.539062 42.527344 250.382812 Z M 42.527344 250.382812 "/>
<path style=" stroke:none;fill-rule:nonzero;fill:rgb(72.54902%,73.333333%,74.117647%);fill-opacity:1;" d="M 108.707031 243.640625 C 112.421875 243.640625 116.144531 243.640625 119.863281 243.640625 C 121.523438 246.417969 121.414062 249.226562 120.027344 252.066406 C 116.226562 253.585938 112.414062 253.535156 108.601562 252.117188 C 107.101562 249.28125 107.035156 246.449219 108.707031 243.640625 Z M 108.707031 243.640625 "/>
<path style=" stroke:none;fill-rule:nonzero;fill:rgb(72.54902%,73.333333%,74.117647%);fill-opacity:1;" d="M 122.070312 180.675781 C 125.898438 179.160156 129.945312 178.5625 133.96875 177.878906 C 133.273438 180.308594 133.828125 182.847656 133.324219 185.296875 C 129.339844 186.5 125.351562 187.699219 121.375 188.90625 C 120.109375 186.03125 119.734375 183.234375 122.070312 180.675781 Z M 122.070312 180.675781 "/>
<path style=" stroke:none;fill-rule:nonzero;fill:rgb(47.843137%,48.627451%,49.411765%);fill-opacity:1;" d="M 25.210938 252.554688 C 26.476562 253.421875 26.101562 254.753906 26.109375 255.945312 C 26.148438 260.523438 26.132812 265.101562 26.117188 269.675781 C 26.109375 271.429688 26.09375 273.167969 27.683594 274.375 C 28.253906 278.164062 26.664062 281.0625 23.960938 283.488281 C 22.582031 276.351562 23.359375 269.136719 23.128906 261.953125 C 23.089844 260.71875 23.78125 259.0625 21.734375 258.628906 C 22.523438 256.386719 23.699219 254.375 25.210938 252.554688 Z M 25.210938 252.554688 "/>
<path style=" stroke:none;fill-rule:nonzero;fill:rgb(51.372549%,51.764706%,52.941176%);fill-opacity:1;" d="M 39.648438 425.292969 C 39.492188 427.144531 40.082031 428.601562 40.894531 430.363281 C 42.554688 433.996094 42.277344 438.160156 40.96875 442.085938 C 38.433594 439.578125 36.21875 436.8125 34.21875 433.863281 C 35.019531 431.082031 34.613281 428.234375 34.742188 425.414062 C 34.816406 423.703125 34.578125 421.921875 35.917969 420.519531 C 39.253906 420.453125 39.761719 422.632812 39.648438 425.292969 Z M 39.648438 425.292969 "/>
<path style=" stroke:none;fill-rule:nonzero;fill:rgb(51.764706%,52.156863%,53.333333%);fill-opacity:1;" d="M 173.394531 404.535156 C 173.410156 412.785156 173.429688 421.023438 173.445312 429.269531 C 172.074219 429.90625 170.71875 429.988281 169.386719 429.179688 C 167.660156 424.476562 168.757812 419.601562 168.582031 414.804688 C 168.484375 412.152344 167.871094 409.300781 169.714844 406.878906 C 170.9375 406.101562 172.164062 405.324219 173.394531 404.535156 Z M 173.394531 404.535156 "/>
<path style=" stroke:none;fill-rule:nonzero;fill:rgb(56.078431%,56.078431%,56.862745%);fill-opacity:1;" d="M 169.722656 429.277344 C 170.964844 429.277344 172.203125 429.277344 173.445312 429.269531 C 174.683594 429.269531 175.925781 429.269531 177.164062 429.269531 C 178.40625 429.292969 179.640625 429.324219 180.886719 429.351562 C 178.886719 430.746094 176.644531 429.914062 174.53125 429.960938 C 168.792969 430.078125 163.054688 429.988281 157.316406 429.972656 C 158.796875 422.746094 159.25 415.40625 159.796875 408.070312 C 159.90625 409.980469 161.277344 409.242188 162.28125 409.277344 C 162.28125 414.492188 162.507812 419.71875 162.199219 424.917969 C 161.984375 428.589844 163.167969 430.011719 166.761719 429.292969 C 167.746094 428.519531 168.734375 428.542969 169.722656 429.277344 Z M 169.722656 429.277344 "/>
<path style=" stroke:none;fill-rule:nonzero;fill:rgb(49.803922%,50.588235%,51.764706%);fill-opacity:1;" d="M 36.53125 420.492188 C 35.042969 423.800781 36.136719 427.300781 35.796875 430.691406 C 35.671875 431.960938 36.246094 433.5625 34.21875 433.863281 C 32.75 431.863281 31.28125 429.863281 29.804688 427.863281 C 31.917969 425.75 31.324219 422.964844 31.121094 420.566406 C 30.851562 417.375 30.882812 414.28125 31.429688 411.152344 C 34.570312 413.472656 36.261719 416.589844 36.53125 420.492188 Z M 36.53125 420.492188 "/>
<path style=" stroke:none;fill-rule:nonzero;fill:rgb(60%,60.784314%,61.568627%);fill-opacity:1;" d="M 71.492188 216.53125 C 70.03125 213.46875 71.332031 210.1875 70.78125 207.039062 C 70.628906 206.203125 70.839844 205.28125 69.984375 204.695312 C 71.722656 203.125 73.625 201.789062 75.777344 200.839844 C 76.929688 200.628906 77.378906 201.46875 77.460938 202.292969 C 77.792969 205.527344 78.453125 208.785156 77.433594 212.023438 C 75.460938 213.527344 73.476562 215.027344 71.492188 216.53125 Z M 71.492188 216.53125 "/>
<path style=" stroke:none;fill-rule:nonzero;fill:rgb(54.509804%,55.294118%,56.078431%);fill-opacity:1;" d="M 46.945312 448.8125 C 48.691406 448.019531 48.378906 446.429688 48.453125 444.957031 C 48.566406 442.753906 47.964844 440.46875 49.15625 438.378906 C 50.894531 440.4375 52.632812 442.503906 54.371094 444.566406 C 55.007812 446.789062 55.21875 449.074219 55.308594 451.367188 C 55.359375 452.828125 55.210938 454.332031 53.546875 455.03125 C 50.941406 453.398438 48.960938 451.089844 46.945312 448.8125 Z M 46.945312 448.8125 "/>
<path style=" stroke:none;fill-rule:nonzero;fill:rgb(55.686275%,56.470588%,57.647059%);fill-opacity:1;" d="M 53.546875 455.039062 C 54.582031 453.195312 54.8125 451.148438 54.109375 449.269531 C 53.464844 447.546875 53.972656 446.117188 54.378906 444.574219 C 56.800781 446.835938 59.136719 449.171875 61.078125 451.875 C 61.757812 453.785156 61.527344 455.757812 61.316406 457.695312 C 61.195312 458.828125 61.195312 460.28125 59.382812 460.191406 C 57 458.960938 55.316406 456.953125 53.546875 455.039062 Z M 53.546875 455.039062 "/>
<path style=" stroke:none;fill-rule:nonzero;fill:rgb(66.27451%,67.058824%,68.235294%);fill-opacity:1;" d="M 86.386719 243.640625 C 89.113281 243.640625 91.839844 243.640625 94.566406 243.640625 C 96.230469 246.402344 96.101562 249.210938 94.753906 252.042969 C 91.929688 253.488281 89.097656 253.445312 86.25 252.097656 C 84.804688 249.257812 84.722656 246.441406 86.386719 243.640625 Z M 86.386719 243.640625 "/>
<path style=" stroke:none;fill-rule:nonzero;fill:rgb(63.921569%,64.705882%,65.882353%);fill-opacity:1;" d="M 93.078125 201.671875 C 91.429688 202.832031 89.839844 204.089844 87.839844 204.605469 C 86.109375 203.886719 86.175781 202.292969 86.152344 200.847656 C 86.125 198.867188 85.882812 196.914062 85.605469 194.964844 C 87.898438 193.3125 90.371094 192.03125 93.070312 191.191406 C 94.949219 194.679688 94.695312 198.179688 93.078125 201.671875 Z M 93.078125 201.671875 "/>
<path style=" stroke:none;fill-rule:nonzero;fill:rgb(70.196078%,70.980392%,71.764706%);fill-opacity:1;" d="M 133.324219 185.296875 C 132.882812 182.765625 131.308594 180.132812 133.96875 177.878906 C 136.433594 177.371094 138.882812 176.75 141.4375 176.996094 C 142.886719 178.75 142.242188 181.316406 143.761719 183.042969 C 140.382812 184.246094 136.863281 184.816406 133.324219 185.296875 Z M 133.324219 185.296875 "/>
<path style=" stroke:none;fill-rule:nonzero;fill:rgb(61.176471%,61.960784%,63.137255%);fill-opacity:1;" d="M 77.441406 212.03125 C 76.464844 209.59375 76.773438 207.039062 76.699219 204.515625 C 76.660156 203.242188 77.125 201.804688 75.785156 200.847656 C 77.058594 199.460938 78.730469 198.726562 80.382812 197.960938 C 81.605469 197.234375 82.355469 197.953125 82.550781 198.988281 C 83.125 202.074219 84.289062 205.191406 82.648438 208.3125 C 80.917969 209.542969 79.179688 210.785156 77.441406 212.03125 Z M 77.441406 212.03125 "/>
<path style=" stroke:none;fill-rule:nonzero;fill:rgb(52.54902%,53.333333%,54.509804%);fill-opacity:1;" d="M 169.722656 429.277344 C 168.734375 429.277344 167.746094 429.285156 166.753906 429.285156 C 166.746094 423.425781 166.746094 417.570312 166.734375 411.710938 C 166.726562 410.332031 166.65625 408.964844 167.460938 407.742188 C 168.210938 407.457031 168.964844 407.171875 169.714844 406.886719 C 169.714844 414.347656 169.722656 421.816406 169.722656 429.277344 Z M 169.722656 429.277344 "/>
<path style=" stroke:none;fill-rule:nonzero;fill:rgb(68.235294%,69.019608%,69.803922%);fill-opacity:1;" d="M 143.761719 183.042969 C 139.417969 182.417969 142.277344 178.988281 141.4375 176.996094 C 145.835938 176 150.289062 175.511719 154.796875 175.617188 C 154.878906 176.015625 154.714844 176.308594 154.445312 176.578125 C 153.457031 177.542969 151.097656 176.53125 151.074219 178.726562 C 151.050781 180.613281 153.320312 180.375 154.167969 181.535156 C 150.765625 182.539062 147.277344 182.882812 143.761719 183.042969 Z M 143.761719 183.042969 "/>
<path style=" stroke:none;fill-rule:nonzero;fill:rgb(65.490196%,66.27451%,67.45098%);fill-opacity:1;" d="M 93.078125 201.671875 C 93.078125 198.179688 93.078125 194.6875 93.070312 191.199219 C 94.515625 189.851562 96.417969 189.542969 98.179688 188.914062 C 101.226562 190.050781 99.855469 192.71875 100.121094 194.777344 C 100.292969 196.128906 99.871094 197.429688 99.011719 198.53125 C 97.039062 199.574219 95.0625 200.621094 93.078125 201.671875 Z M 93.078125 201.671875 "/>
<path style=" stroke:none;fill-rule:nonzero;fill:rgb(68.627451%,69.411765%,70.196078%);fill-opacity:1;" d="M 94.566406 251.847656 C 94.566406 249.113281 94.566406 246.382812 94.574219 243.648438 C 97.054688 243.648438 99.535156 243.648438 102.015625 243.648438 C 103.679688 246.410156 103.542969 249.210938 102.210938 252.042969 C 99.625 253.363281 97.070312 253.59375 94.566406 251.847656 Z M 94.566406 251.847656 "/>
<path style=" stroke:none;fill-rule:nonzero;fill:rgb(68.627451%,69.411765%,70.588235%);fill-opacity:1;" d="M 110.929688 192.644531 C 108.945312 193.609375 106.953125 194.578125 104.964844 195.542969 C 102.375 192.957031 103.804688 189.664062 103.414062 186.6875 C 105.332031 185.707031 107.207031 184.628906 109.425781 184.488281 C 112.367188 186.382812 112.8125 188.765625 110.929688 192.644531 Z M 110.929688 192.644531 "/>
<path style=" stroke:none;fill-rule:nonzero;fill:rgb(47.843137%,48.627451%,49.411765%);fill-opacity:1;" d="M 181.441406 427.121094 C 178.976562 427.234375 179.664062 424.828125 179.730469 424.078125 C 180.292969 417.390625 180.265625 410.769531 179.628906 404.070312 C 179.417969 401.882812 179.710938 399.496094 179.394531 397.203125 C 179.792969 396.394531 180.1875 395.578125 180.585938 394.769531 C 182.054688 395.691406 181.574219 397.1875 181.589844 398.484375 C 181.636719 403.449219 181.597656 408.410156 181.613281 413.375 C 181.613281 414.835938 181.296875 416.421875 182.953125 417.332031 C 182.453125 420.597656 181.949219 423.855469 181.441406 427.121094 Z M 181.441406 427.121094 "/>
<path style=" stroke:none;fill-rule:nonzero;fill:rgb(58.431373%,59.215686%,60.392157%);fill-opacity:1;" d="M 64.140625 454.582031 C 67.011719 456.199219 68.808594 459.058594 71.453125 460.941406 C 71.558594 463.53125 73.246094 466.460938 69.925781 468.339844 C 67.65625 467.21875 65.640625 465.726562 63.894531 463.882812 C 63.324219 460.761719 63.199219 457.660156 64.140625 454.582031 Z M 64.140625 454.582031 "/>
<path style=" stroke:none;fill-rule:nonzero;fill:rgb(52.156863%,52.941176%,53.72549%);fill-opacity:1;" d="M 207.738281 182.953125 C 218.054688 184.785156 227.285156 189.304688 236.261719 194.492188 C 226.625 190.867188 216.992188 187.3125 206.921875 185.125 C 206.425781 184.105469 205.871094 183.070312 207.738281 182.953125 Z M 207.738281 182.953125 "/>
<path style=" stroke:none;fill-rule:nonzero;fill:rgb(62.352941%,63.137255%,64.313725%);fill-opacity:1;" d="M 82.65625 208.300781 C 82.40625 205.664062 82.128906 203.027344 81.933594 200.390625 C 81.851562 199.242188 81.921875 198.121094 80.382812 197.953125 C 81.964844 196.679688 83.671875 195.625 85.605469 194.964844 C 87.628906 195.289062 87.015625 196.898438 87.121094 198.140625 C 87.308594 200.308594 86.632812 202.5625 87.839844 204.605469 C 86.242188 206.03125 84.59375 207.371094 82.65625 208.300781 Z M 82.65625 208.300781 "/>
<path style=" stroke:none;fill-rule:nonzero;fill:rgb(56.862745%,57.647059%,58.823529%);fill-opacity:1;" d="M 63.152344 209.84375 C 65.070312 212.667969 63.667969 215.835938 64.035156 218.824219 C 64.214844 220.285156 64.058594 221.789062 64.058594 223.28125 C 62.851562 224.410156 61.644531 225.542969 60.449219 226.671875 C 60.417969 223.511719 60.351562 220.351562 60.367188 217.191406 C 60.371094 215.664062 60.289062 214.238281 58.621094 213.558594 C 59.9375 212.097656 61.292969 210.660156 63.152344 209.84375 Z M 63.152344 209.84375 "/>
<path style=" stroke:none;fill-rule:nonzero;fill:rgb(67.058824%,67.843137%,69.019608%);fill-opacity:1;" d="M 103.414062 186.6875 C 105.519531 189.355469 103.492188 192.765625 104.964844 195.542969 C 102.980469 196.539062 101.003906 197.535156 99.019531 198.523438 C 98.628906 195.324219 99.960938 191.976562 98.179688 188.90625 C 99.707031 187.640625 101.566406 187.175781 103.414062 186.6875 Z M 103.414062 186.6875 "/>
<path style=" stroke:none;fill-rule:nonzero;fill:rgb(70.588235%,71.372549%,72.54902%);fill-opacity:1;" d="M 102.007812 251.847656 C 102.007812 249.113281 102.007812 246.382812 102.015625 243.648438 C 104.246094 243.648438 106.480469 243.648438 108.710938 243.648438 C 108.710938 246.382812 108.710938 249.121094 108.710938 251.855469 C 106.472656 253.453125 104.238281 253.460938 102.007812 251.847656 Z M 102.007812 251.847656 "/>
<path style=" stroke:none;fill-rule:nonzero;fill:rgb(63.921569%,64.705882%,65.882353%);fill-opacity:1;" d="M 134.742188 243.648438 C 136.972656 243.648438 139.207031 243.648438 141.4375 243.648438 C 142.539062 246.6875 142.90625 249.675781 140.871094 252.515625 C 138.652344 253.085938 136.457031 253.398438 134.433594 251.894531 C 133.289062 249.09375 133.070312 246.328125 134.742188 243.648438 Z M 134.742188 243.648438 "/>
<path style=" stroke:none;fill-rule:nonzero;fill:rgb(70.196078%,70.980392%,71.764706%);fill-opacity:1;" d="M 110.929688 192.644531 C 110.90625 189.835938 111.636719 186.882812 109.425781 184.480469 C 111.441406 183.0625 113.867188 182.898438 116.136719 182.261719 C 117.964844 184.839844 118.617188 187.527344 116.878906 190.433594 C 115.007812 191.453125 113.097656 192.410156 110.929688 192.644531 Z M 110.929688 192.644531 "/>
<path style=" stroke:none;fill-rule:nonzero;fill:rgb(61.568627%,62.352941%,63.529412%);fill-opacity:1;" d="M 141.445312 251.839844 C 140.75 249.109375 141.484375 246.375 141.4375 243.640625 C 143.425781 243.640625 145.410156 243.640625 147.386719 243.640625 C 149.050781 246.386719 148.902344 249.183594 147.605469 252.015625 C 145.523438 253.25 143.453125 253.453125 141.445312 251.839844 Z M 141.445312 251.839844 "/>
<path style=" stroke:none;fill-rule:nonzero;fill:rgb(64.313725%,65.098039%,65.882353%);fill-opacity:1;" d="M 86.386719 243.640625 C 86.386719 246.375 86.386719 249.109375 86.378906 251.839844 C 84.378906 253.4375 82.324219 253.226562 80.234375 252.035156 C 78.894531 249.203125 78.765625 246.402344 80.429688 243.640625 C 82.421875 243.648438 84.402344 243.640625 86.386719 243.640625 Z M 86.386719 243.640625 "/>
<path style=" stroke:none;fill-rule:nonzero;fill:rgb(63.921569%,65.098039%,65.882353%);fill-opacity:1;" d="M 157.066406 175.632812 C 160.042969 175.632812 163.015625 175.632812 166 175.632812 C 167.363281 177.347656 167.21875 179.0625 165.992188 180.777344 L 165.683594 180.855469 L 165.375 180.800781 C 163.167969 181.617188 160.808594 180.628906 158.589844 181.378906 C 158.078125 181.386719 157.578125 181.386719 157.066406 181.394531 C 155.675781 179.476562 155.660156 177.550781 157.066406 175.632812 Z M 157.066406 175.632812 "/>
<path style=" stroke:none;fill-rule:nonzero;fill:rgb(61.176471%,61.960784%,63.137255%);fill-opacity:1;" d="M 70.015625 251.835938 C 68.320312 249.234375 70.097656 246.320312 69.273438 243.640625 C 71.257812 243.640625 73.246094 243.640625 75.222656 243.640625 C 76.886719 246.382812 76.726562 249.167969 75.445312 251.992188 C 73.605469 253.167969 71.785156 253.332031 70.015625 251.835938 Z M 70.015625 251.835938 "/>
<path style=" stroke:none;fill-rule:nonzero;fill:rgb(61.176471%,61.960784%,62.745098%);fill-opacity:1;" d="M 76.691406 465.375 C 79.320312 465.980469 80.585938 468.445312 82.667969 469.792969 C 83.507812 473.628906 83.089844 474.558594 80.316406 475.074219 C 78.09375 474.207031 76.105469 472.953125 74.339844 471.34375 C 75.28125 469.417969 74.292969 466.714844 76.691406 465.375 Z M 76.691406 465.375 "/>
<path style=" stroke:none;fill-rule:nonzero;fill:rgb(59.607843%,60.392157%,61.568627%);fill-opacity:1;" d="M 76.691406 465.375 C 74.894531 466.953125 77.597656 470.339844 74.339844 471.335938 C 72.652344 470.664062 71.167969 469.679688 69.933594 468.332031 C 71.820312 466.152344 69.835938 463.164062 71.460938 460.933594 C 73.476562 462.085938 75.101562 463.703125 76.691406 465.375 Z M 76.691406 465.375 "/>
<path style=" stroke:none;fill-rule:nonzero;fill:rgb(70.196078%,70.980392%,71.764706%);fill-opacity:1;" d="M 119.867188 251.847656 C 119.867188 249.113281 119.867188 246.382812 119.863281 243.648438 C 121.847656 243.648438 123.832031 243.648438 125.808594 243.648438 C 126.402344 246.664062 127.039062 249.683594 124.792969 252.375 C 123.066406 253.011719 121.382812 253.257812 119.867188 251.847656 Z M 119.867188 251.847656 "/>
<path style=" stroke:none;fill-rule:nonzero;fill:rgb(59.607843%,60.392157%,61.568627%);fill-opacity:1;" d="M 174.914062 176.230469 C 179.117188 177.019531 183.472656 176.464844 187.621094 177.738281 C 186.085938 178.660156 184.667969 179.699219 183.851562 181.371094 C 180.878906 181.160156 177.898438 180.953125 174.921875 180.742188 C 173.738281 179.234375 173.769531 177.730469 174.914062 176.230469 Z M 174.914062 176.230469 "/>
<path style=" stroke:none;fill-rule:nonzero;fill:rgb(62.745098%,63.529412%,64.705882%);fill-opacity:1;" d="M 75.222656 251.839844 C 75.222656 249.109375 75.222656 246.382812 75.222656 243.648438 C 76.960938 243.648438 78.691406 243.648438 80.429688 243.648438 C 80.429688 246.382812 80.429688 249.109375 80.429688 251.839844 C 78.699219 253.25 76.960938 253.25 75.222656 251.839844 Z M 75.222656 251.839844 "/>
<path style=" stroke:none;fill-rule:nonzero;fill:rgb(71.764706%,72.54902%,73.333333%);fill-opacity:1;" d="M 116.886719 190.433594 C 117.359375 187.648438 116.128906 185.011719 116.144531 182.261719 C 118.125 181.730469 120.09375 181.199219 122.070312 180.675781 C 120.933594 183.339844 121.726562 186.171875 121.367188 188.90625 C 119.875 189.414062 118.378906 189.925781 116.886719 190.433594 Z M 116.886719 190.433594 "/>
<path style=" stroke:none;fill-rule:nonzero;fill:rgb(62.745098%,63.529412%,64.313725%);fill-opacity:1;" d="M 80.308594 475.066406 C 83.082031 474.207031 81.546875 471.398438 82.664062 469.785156 C 85.148438 470.25 86.730469 472.136719 88.589844 473.597656 C 88.875 475.585938 89.824219 477.769531 87.03125 478.828125 C 84.511719 478.078125 82.363281 476.671875 80.308594 475.066406 Z M 80.308594 475.066406 "/>
<path style=" stroke:none;fill-rule:nonzero;fill:rgb(67.843137%,68.627451%,69.803922%);fill-opacity:1;" d="M 125.074219 251.839844 C 125.609375 249.136719 124.589844 246.285156 125.816406 243.640625 C 127.308594 243.640625 128.792969 243.640625 130.28125 243.640625 C 131.617188 246.546875 132.320312 249.453125 130.199219 252.328125 C 128.410156 253.023438 126.65625 253.289062 125.074219 251.839844 Z M 125.074219 251.839844 "/>
<path style=" stroke:none;fill-rule:nonzero;fill:rgb(61.960784%,62.745098%,63.529412%);fill-opacity:1;" d="M 174.914062 176.230469 C 174.914062 177.738281 174.914062 179.234375 174.914062 180.742188 C 171.941406 180.757812 168.957031 180.769531 165.984375 180.785156 C 165.984375 179.070312 165.992188 177.355469 165.992188 175.640625 C 166.746094 175.640625 167.496094 175.640625 168.253906 175.640625 C 170.230469 176.367188 172.359375 175.4375 174.335938 176.203125 C 174.539062 176.113281 174.726562 176.128906 174.914062 176.230469 Z M 174.914062 176.230469 "/>
<path style=" stroke:none;fill-rule:nonzero;fill:rgb(56.862745%,58.039216%,58.823529%);fill-opacity:1;" d="M 64.140625 454.582031 C 64.988281 457.703125 64.695312 460.796875 63.894531 463.882812 C 62.15625 462.941406 60.640625 461.71875 59.375 460.183594 C 61.625 457.765625 59.257812 454.386719 61.070312 451.875 C 62.492188 452.3125 63.265625 453.507812 64.140625 454.582031 Z M 64.140625 454.582031 "/>
<path style=" stroke:none;fill-rule:nonzero;fill:rgb(64.313725%,65.098039%,65.882353%);fill-opacity:1;" d="M 87.03125 478.828125 C 88.679688 477.425781 87.246094 475.089844 88.589844 473.597656 C 90.785156 473.824219 92.125 475.539062 93.839844 476.609375 C 96.164062 479.433594 95.984375 480.519531 92.957031 481.832031 C 90.800781 481.195312 88.804688 480.226562 87.03125 478.828125 Z M 87.03125 478.828125 "/>
<path style=" stroke:none;fill-rule:nonzero;fill:rgb(65.882353%,66.666667%,67.843137%);fill-opacity:1;" d="M 157.066406 175.632812 C 157.066406 177.558594 157.066406 179.476562 157.066406 181.402344 C 156.101562 181.445312 155.128906 181.492188 154.160156 181.542969 C 153.089844 181.421875 151.757812 181.65625 151 181.09375 C 149.941406 180.320312 149.53125 178.816406 149.75 177.453125 C 149.996094 175.902344 151.394531 176.359375 152.421875 176.277344 C 153.261719 176.210938 154.144531 176.367188 154.789062 175.617188 C 155.554688 175.625 156.3125 175.625 157.066406 175.632812 Z M 157.066406 175.632812 "/>
<path style=" stroke:none;fill-rule:nonzero;fill:rgb(69.019608%,69.803922%,70.980392%);fill-opacity:1;" d="M 113.835938 490.046875 C 110.691406 489.589844 107.753906 488.511719 104.960938 487.007812 C 104.929688 485.515625 105.4375 484.242188 106.480469 483.1875 C 109.582031 483.238281 111.628906 486.054688 114.648438 486.324219 C 115.492188 487.816406 116.175781 489.261719 113.835938 490.046875 Z M 113.835938 490.046875 "/>
<path style=" stroke:none;fill-rule:nonzero;fill:rgb(60%,60%,61.176471%);fill-opacity:1;" d="M 147.394531 251.839844 C 147.394531 249.109375 147.394531 246.375 147.386719 243.640625 C 149.097656 243.59375 150.8125 243.550781 152.519531 243.511719 C 152.152344 246.359375 152.027344 249.242188 151.105469 252 C 149.832031 252.867188 148.585938 253.003906 147.394531 251.839844 Z M 147.394531 251.839844 "/>
<path style=" stroke:none;fill-rule:nonzero;fill:rgb(57.647059%,58.039216%,59.215686%);fill-opacity:1;" d="M 183.851562 181.371094 C 183.277344 178.238281 184.878906 177.394531 187.621094 177.738281 C 189.972656 178.898438 192.777344 177.796875 195.082031 179.222656 C 194.753906 180.328125 194.394531 181.414062 193.519531 182.238281 C 190.296875 181.949219 187.074219 181.65625 183.851562 181.371094 Z M 183.851562 181.371094 "/>
<path style=" stroke:none;fill-rule:nonzero;fill:rgb(66.27451%,67.058824%,68.235294%);fill-opacity:1;" d="M 130.28125 251.839844 C 130.28125 249.109375 130.28125 246.375 130.28125 243.648438 C 131.773438 243.648438 133.257812 243.648438 134.75 243.648438 C 134.75 246.382812 134.75 249.113281 134.757812 251.839844 C 133.257812 253.121094 131.773438 253.121094 130.28125 251.839844 Z M 130.28125 251.839844 "/>
<path style=" stroke:none;fill-rule:nonzero;fill:rgb(65.882353%,66.666667%,67.843137%);fill-opacity:1;" d="M 92.964844 481.832031 C 95.355469 480.453125 94.730469 478.558594 93.847656 476.609375 C 96.507812 477.058594 98.171875 479.3125 100.515625 480.332031 C 101.476562 482.0625 100.929688 483.53125 99.746094 484.894531 C 97.167969 484.585938 95.0625 483.210938 92.964844 481.832031 Z M 92.964844 481.832031 "/>
<path style=" stroke:none;fill-rule:nonzero;fill:rgb(68.235294%,69.019608%,69.803922%);fill-opacity:1;" d="M 139.214844 493.757812 C 145.207031 494.871094 151.179688 496.152344 157.335938 496.039062 C 158.769531 496.019531 160.320312 495.71875 161.644531 496.667969 C 159.996094 497.742188 158.035156 496.511719 156.363281 497.425781 C 154.601562 497.410156 152.84375 497.390625 151.082031 497.375 C 149.652344 496.664062 148.003906 497.570312 146.578125 496.765625 C 144.097656 496.707031 141.574219 497.023438 139.222656 495.90625 C 138.59375 495.1875 138.613281 494.46875 139.214844 493.757812 Z M 139.214844 493.757812 "/>
<path style=" stroke:none;fill-rule:nonzero;fill:rgb(67.058824%,67.843137%,69.019608%);fill-opacity:1;" d="M 99.746094 484.894531 C 100 483.375 100.253906 481.855469 100.515625 480.332031 C 102.957031 480.324219 104.359375 482.527344 106.480469 483.1875 C 106.519531 484.675781 106.1875 486.019531 104.960938 487.007812 C 103.085938 486.648438 101.296875 486.078125 99.746094 484.894531 Z M 99.746094 484.894531 "/>
<path style=" stroke:none;fill-rule:nonzero;fill:rgb(70.980392%,71.764706%,72.941176%);fill-opacity:1;" d="M 113.835938 490.046875 C 115.140625 489.035156 114.488281 487.589844 114.648438 486.324219 C 116.632812 487.058594 118.625 487.792969 120.609375 488.527344 C 122.910156 490.585938 122.992188 491.042969 121.324219 492.25 C 118.722656 491.90625 116.160156 491.382812 113.835938 490.046875 Z M 113.835938 490.046875 "/>
<path style=" stroke:none;fill-rule:nonzero;fill:rgb(73.333333%,74.117647%,74.901961%);fill-opacity:1;" d="M 121.328125 492.257812 C 122.804688 490.683594 120.789062 489.785156 120.617188 488.535156 C 123.636719 489.441406 126.785156 489.9375 129.617188 491.433594 C 129.691406 492.414062 130.042969 493.402344 129.519531 494.371094 C 126.777344 493.695312 123.921875 493.480469 121.328125 492.257812 Z M 121.328125 492.257812 "/>
<path style=" stroke:none;fill-rule:nonzero;fill:rgb(55.294118%,56.078431%,56.862745%);fill-opacity:1;" d="M 193.519531 182.238281 C 193.617188 181.011719 193.089844 179.460938 195.082031 179.222656 C 196.785156 179.804688 198.738281 179.589844 200.214844 180.875 C 200.996094 181.789062 200.996094 182.703125 200.214844 183.625 C 198.011719 183.035156 195.601562 183.421875 193.519531 182.238281 Z M 193.519531 182.238281 "/>
<path style=" stroke:none;fill-rule:nonzero;fill:rgb(54.117647%,54.901961%,56.078431%);fill-opacity:1;" d="M 200.214844 183.625 C 200.214844 182.710938 200.214844 181.796875 200.214844 180.875 C 202.921875 180.847656 205.421875 181.550781 207.738281 182.953125 C 206.839844 183.4375 206.921875 184.292969 206.921875 185.125 C 204.679688 184.621094 202.449219 184.128906 200.214844 183.625 Z M 200.214844 183.625 "/>
<path style=" stroke:none;fill-rule:nonzero;fill:rgb(70.980392%,71.764706%,72.54902%);fill-opacity:1;" d="M 139.214844 493.757812 C 139.214844 494.46875 139.222656 495.1875 139.222656 495.898438 C 137.136719 496.394531 135.242188 495.417969 133.265625 495.125 C 132.75 494.109375 132.253906 493.097656 134.066406 492.945312 C 135.773438 493.214844 137.492188 493.488281 139.214844 493.757812 Z M 139.214844 493.757812 "/>
<path style=" stroke:none;fill-rule:nonzero;fill:rgb(71.372549%,72.156863%,72.941176%);fill-opacity:1;" d="M 134.058594 492.945312 C 133.175781 493.441406 133.265625 494.304688 133.257812 495.125 C 132.007812 494.871094 130.761719 494.625 129.511719 494.371094 C 129.046875 493.375 128.222656 492.371094 129.609375 491.433594 C 131.046875 492.085938 132.769531 491.867188 134.058594 492.945312 Z M 134.058594 492.945312 "/>
<path style=" stroke:none;fill-rule:nonzero;fill:rgb(62.745098%,63.529412%,64.313725%);fill-opacity:1;" d="M 156.355469 497.417969 C 157.960938 496.054688 159.90625 497.125 161.636719 496.664062 C 165.121094 496.664062 168.613281 496.664062 172.097656 496.664062 C 172.089844 496.917969 172.089844 497.164062 172.082031 497.417969 C 166.84375 497.417969 161.601562 497.417969 156.355469 497.417969 Z M 156.355469 497.417969 "/>
<path style=" stroke:none;fill-rule:nonzero;fill:rgb(65.882353%,66.666667%,67.843137%);fill-opacity:1;" d="M 158.589844 181.378906 C 160.761719 180.113281 163.105469 180.972656 165.375 180.800781 C 163.183594 181.789062 160.859375 181.316406 158.589844 181.378906 Z M 158.589844 181.378906 "/>
<path style=" stroke:none;fill-rule:nonzero;fill:rgb(63.921569%,65.098039%,65.882353%);fill-opacity:1;" d="M 174.335938 176.195312 C 172.308594 176.050781 170.1875 176.882812 168.253906 175.632812 C 170.308594 175.617188 172.382812 175.234375 174.335938 176.195312 Z M 174.335938 176.195312 "/>
<path style=" stroke:none;fill-rule:nonzero;fill:rgb(70.980392%,71.764706%,72.54902%);fill-opacity:1;" d="M 146.578125 496.757812 C 148.085938 496.902344 149.710938 496.191406 151.082031 497.367188 C 149.554688 497.320312 147.964844 497.792969 146.578125 496.757812 Z M 146.578125 496.757812 "/>
<path style=" stroke:none;fill-rule:nonzero;fill:rgb(92.156863%,92.156863%,92.54902%);fill-opacity:1;" d="M 181.238281 496.257812 C 180.121094 496.863281 179.363281 496.871094 178.546875 496.421875 C 179.261719 495.695312 180.007812 495.972656 181.238281 496.257812 Z M 181.238281 496.257812 "/>
<path style=" stroke:none;fill-rule:nonzero;fill:rgb(99.607843%,99.607843%,99.607843%);fill-opacity:1;" d="M 130.28125 251.839844 C 131.773438 251.839844 133.257812 251.839844 134.75 251.839844 C 136.980469 251.839844 139.214844 251.839844 141.445312 251.839844 C 143.433594 251.839844 145.417969 251.839844 147.394531 251.839844 C 148.632812 251.894531 149.867188 251.9375 151.113281 251.992188 C 150.21875 267.039062 149.296875 282.089844 148.453125 297.136719 C 147.042969 322.148438 145.695312 347.167969 144.292969 372.175781 C 143.574219 384.992188 142.800781 397.800781 142.054688 410.617188 C 141.738281 410.933594 141.371094 411.171875 140.96875 411.351562 C 138.59375 411.882812 136.171875 411.546875 133.773438 411.667969 C 131.371094 411.421875 128.816406 412.296875 126.574219 410.730469 C 117.390625 410.730469 108.203125 410.730469 99.023438 410.730469 C 96.441406 412.402344 93.546875 411.367188 90.804688 411.683594 C 86.414062 411.691406 82.019531 411.621094 77.628906 411.726562 C 72.96875 411.570312 68.300781 411.808594 63.648438 411.546875 C 62.042969 411.15625 61.1875 410.460938 62.566406 408.851562 C 63.113281 408.207031 63.640625 407.546875 64.140625 406.875 C 66.605469 404.605469 67.8125 401.332031 70.238281 399.023438 C 72.519531 396.992188 74.0625 394.320312 76.1875 392.15625 C 78.871094 388.632812 81.71875 385.25 84.289062 381.644531 C 86.6875 379.054688 88.925781 376.328125 91.089844 373.53125 C 92.972656 371.375 94.460938 368.917969 96.351562 366.769531 C 98.476562 364.386719 100.433594 361.863281 102.335938 359.300781 C 104.832031 356.746094 106.847656 353.816406 108.914062 350.925781 C 112.78125 347.097656 115.914062 342.671875 119.164062 338.34375 C 120.707031 336.566406 122.238281 334.785156 123.789062 333.015625 C 129.113281 325.992188 129.113281 325.992188 123.007812 319.773438 C 122.175781 317.855469 120.222656 316.851562 119.203125 315.085938 C 116.101562 310.65625 112.707031 306.46875 109.042969 302.5 C 107.183594 299.914062 105.132812 297.472656 103.109375 295.023438 C 101.96875 293.390625 100.757812 291.820312 99.316406 290.433594 C 97.953125 288.359375 96.179688 286.605469 94.777344 284.558594 C 93.226562 282.882812 91.804688 281.09375 90.394531 279.292969 C 89.082031 277.855469 88.125 276.125 86.722656 274.761719 C 85.742188 273.480469 84.902344 272.097656 83.6875 271.011719 C 82.332031 269.601562 81.410156 267.820312 79.933594 266.5 C 78.4375 264.726562 77.101562 262.816406 75.53125 261.101562 C 73.777344 258.492188 71.265625 256.441406 69.992188 253.480469 C 69.230469 252.941406 69.222656 252.394531 69.992188 251.855469 C 71.730469 251.855469 73.460938 251.855469 75.199219 251.855469 C 76.9375 251.855469 78.667969 251.855469 80.40625 251.855469 C 82.390625 251.855469 84.378906 251.855469 86.355469 251.863281 C 89.082031 251.863281 91.808594 251.863281 94.539062 251.863281 C 97.015625 251.863281 99.496094 251.863281 101.976562 251.863281 C 104.210938 251.863281 106.441406 251.863281 108.675781 251.871094 C 112.398438 251.871094 116.121094 251.871094 119.839844 251.863281 C 121.578125 251.863281 123.308594 251.863281 125.046875 251.863281 C 126.8125 251.839844 128.542969 251.839844 130.28125 251.839844 Z M 130.28125 251.839844 "/>
<path style=" stroke:none;fill-rule:nonzero;fill:rgb(63.529412%,63.921569%,64.705882%);fill-opacity:1;" d="M 141.410156 410.730469 C 141.617188 410.65625 141.828125 410.617188 142.046875 410.617188 C 141.8125 416.875 141.65625 423.136719 140.667969 429.335938 C 139.6875 429.324219 138.703125 429.316406 137.730469 429.300781 C 136.359375 427.765625 136.523438 425.855469 136.589844 424.042969 C 136.734375 420.003906 136.03125 415.929688 137.117188 411.9375 C 138.171875 410.207031 140.089844 411.53125 141.410156 410.730469 Z M 141.410156 410.730469 "/>
<path style=" stroke:none;fill-rule:nonzero;fill:rgb(99.607843%,99.607843%,99.607843%);fill-opacity:1;" d="M 36.53125 420.492188 C 34.832031 417.375 33.136719 414.265625 31.4375 411.152344 C 29.421875 406.730469 27.40625 402.304688 25.382812 397.882812 C 23.4375 392.066406 21.496094 386.246094 19.546875 380.425781 C 18.304688 374.445312 17.050781 368.46875 15.808594 362.484375 C 14.476562 349.773438 13.582031 337.054688 14.960938 324.273438 C 15.292969 321.195312 15.546875 318.117188 15.839844 315.039062 C 17.039062 309.226562 18.242188 303.40625 19.441406 297.59375 C 20.949219 292.890625 22.453125 288.1875 23.960938 283.480469 C 25.203125 280.441406 26.449219 277.398438 27.683594 274.367188 C 28.898438 271.847656 30.105469 269.332031 31.316406 266.816406 C 33.152344 264.222656 34.480469 261.347656 35.78125 258.464844 C 37.859375 255.976562 39.460938 253.183594 40.988281 250.335938 C 41.5 250.351562 42.007812 250.359375 42.519531 250.375 C 44.707031 253.59375 47.195312 256.566406 49.859375 259.390625 C 51.867188 262.328125 54.019531 265.144531 56.574219 267.625 C 57.617188 269.28125 58.648438 270.925781 60.230469 272.132812 C 61.292969 273.765625 62.351562 275.40625 63.878906 276.648438 C 65.25 278.367188 66.613281 280.089844 67.984375 281.804688 C 71.027344 283.496094 72.554688 286.644531 74.855469 289.054688 C 75.910156 290.949219 77.695312 292.253906 78.871094 294.050781 C 80.234375 295.863281 81.726562 297.585938 83.113281 299.375 C 84.25 300.546875 85.246094 301.832031 86.191406 303.160156 C 87.480469 304.621094 88.835938 306.011719 89.914062 307.652344 C 91.480469 309.292969 92.628906 311.292969 94.261719 312.882812 C 95.617188 314.3125 96.574219 316.074219 98.007812 317.453125 C 99.207031 319.265625 100.71875 320.828125 102.007812 322.574219 C 104.269531 325.324219 106.578125 328.035156 108.765625 330.851562 C 113.019531 336.117188 113.019531 336.117188 108.621094 341.347656 C 106.351562 344.3125 103.910156 347.136719 101.730469 350.171875 C 99.429688 352.625 97.371094 355.292969 95.300781 357.953125 C 93.480469 360.15625 91.773438 362.453125 89.929688 364.640625 C 87.800781 367.464844 85.515625 370.164062 83.375 372.972656 C 80.925781 376.238281 78.128906 379.21875 75.710938 382.515625 C 73.632812 384.949219 71.632812 387.433594 69.738281 390.011719 C 67.746094 392.476562 65.617188 394.820312 63.75 397.382812 C 61.894531 399.96875 59.683594 402.257812 57.816406 404.84375 C 55.988281 406.804688 54.492188 409.046875 52.722656 411.066406 C 50.984375 413.34375 49.1875 415.570312 47.394531 417.808594 C 45.066406 419.988281 43.828125 423.203125 40.871094 424.78125 C 40.464844 424.957031 40.054688 425.128906 39.648438 425.300781 C 38.863281 423.523438 37.992188 421.816406 36.53125 420.492188 Z M 36.53125 420.492188 "/>
<path style=" stroke:none;fill-rule:nonzero;fill:rgb(58.039216%,58.823529%,60%);fill-opacity:1;" d="M 57.277344 404.429688 C 58.890625 401.683594 61.003906 399.335938 63.175781 397.046875 C 65.265625 397.121094 65.183594 398.925781 65.40625 400.207031 C 65.820312 402.5 65.648438 404.835938 64.90625 407.082031 C 64.132812 408.289062 63.363281 409.496094 62.589844 410.695312 C 63.152344 410.964844 63.675781 411.277344 63.9375 411.890625 C 64.382812 417.03125 63.96875 422.183594 64.207031 427.324219 C 64.246094 428.078125 63.828125 428.730469 63.324219 429.300781 C 61.585938 429.300781 59.855469 429.300781 58.117188 429.300781 C 57.527344 428.632812 57.136719 427.839844 57.152344 426.957031 C 57.226562 419.457031 56.542969 411.9375 57.277344 404.429688 Z M 57.277344 404.429688 "/>
<path style=" stroke:none;fill-rule:nonzero;fill:rgb(61.176471%,61.960784%,63.137255%);fill-opacity:1;" d="M 75.222656 429.300781 C 72.988281 429.300781 70.757812 429.300781 68.53125 429.300781 C 66.597656 426.492188 67.535156 423.300781 67.476562 420.28125 C 67.414062 417.238281 67.070312 414.101562 68.507812 411.210938 C 76.375 410.515625 76.4375 410.515625 76.355469 418.332031 C 76.308594 422.011719 76.886719 425.78125 75.222656 429.300781 Z M 75.222656 429.300781 "/>
<path style=" stroke:none;fill-rule:nonzero;fill:rgb(65.490196%,66.27451%,67.058824%);fill-opacity:1;" d="M 90.09375 429.300781 C 87.863281 429.300781 85.628906 429.300781 83.398438 429.300781 C 81.574219 425.234375 81.980469 414.207031 84.0625 411.210938 C 85.832031 410.867188 87.601562 410.894531 89.375 411.1875 C 91.839844 417.144531 91.855469 423.1875 90.09375 429.300781 Z M 90.09375 429.300781 "/>
<path style=" stroke:none;fill-rule:nonzero;fill:rgb(56.862745%,57.647059%,58.823529%);fill-opacity:1;" d="M 57.277344 404.429688 C 58.164062 405.871094 58.132812 407.457031 58.125 409.066406 C 58.101562 415.816406 58.117188 422.558594 58.109375 429.300781 C 56.617188 429.300781 55.136719 429.300781 53.644531 429.300781 C 52.371094 427.863281 52.566406 426.070312 52.542969 424.355469 C 52.46875 419.78125 52.699219 415.195312 52.222656 410.632812 C 53.742188 408.4375 55.226562 406.207031 57.277344 404.429688 Z M 57.277344 404.429688 "/>
<path style=" stroke:none;fill-rule:nonzero;fill:rgb(59.607843%,60.392157%,61.568627%);fill-opacity:1;" d="M 68.53125 411.375 C 68.53125 417.351562 68.53125 423.328125 68.523438 429.308594 C 66.785156 429.308594 65.054688 429.308594 63.316406 429.308594 C 63.226562 423.328125 62.695312 417.351562 63.324219 411.375 C 65.054688 410.796875 66.792969 410.796875 68.53125 411.375 Z M 68.53125 411.375 "/>
<path style=" stroke:none;fill-rule:nonzero;fill:rgb(55.686275%,56.470588%,57.647059%);fill-opacity:1;" d="M 52.222656 410.640625 C 53.929688 411.464844 53.652344 413.046875 53.652344 414.507812 C 53.660156 419.441406 53.652344 424.371094 53.652344 429.308594 C 51.667969 429.308594 49.6875 429.316406 47.703125 429.316406 C 46.660156 427.613281 46.773438 425.695312 47.066406 423.914062 C 47.449219 421.652344 47.3125 419.488281 46.839844 417.300781 C 48.632812 415.082031 50.421875 412.867188 52.222656 410.640625 Z M 52.222656 410.640625 "/>
<path style=" stroke:none;fill-rule:nonzero;fill:rgb(68.235294%,69.019608%,69.803922%);fill-opacity:1;" d="M 99.765625 429.308594 C 98.027344 429.308594 96.296875 429.308594 94.558594 429.308594 C 93.277344 427.875 93.324219 426.085938 93.429688 424.378906 C 93.675781 420.09375 92.589844 415.71875 94.246094 411.53125 C 95.820312 410.65625 97.421875 410.867188 99.039062 411.375 C 99.289062 411.375 99.535156 411.375 99.78125 411.375 C 101.675781 417.351562 101.691406 423.328125 99.765625 429.308594 Z M 99.765625 429.308594 "/>
<path style=" stroke:none;fill-rule:nonzero;fill:rgb(70.588235%,71.372549%,72.156863%);fill-opacity:1;" d="M 103.5 411.367188 C 108.707031 411.375 108.707031 411.375 108.707031 416.46875 C 108.707031 419.058594 108.707031 421.652344 108.707031 424.242188 C 108.707031 429.351562 108.707031 429.351562 103.492188 429.308594 C 101.183594 425.136719 102.710938 420.617188 102.351562 416.265625 C 102.203125 414.574219 102.230469 412.789062 103.5 411.367188 Z M 103.5 411.367188 "/>
<path style=" stroke:none;fill-rule:nonzero;fill:rgb(66.666667%,67.45098%,68.627451%);fill-opacity:1;" d="M 94.566406 411.375 C 94.566406 417.351562 94.558594 423.328125 94.558594 429.308594 C 93.070312 429.308594 91.585938 429.308594 90.09375 429.300781 C 90.101562 423.316406 90.125 417.324219 89.359375 411.367188 C 89.863281 410.933594 90.476562 411.015625 91.070312 411 C 92.230469 411.152344 93.457031 410.671875 94.566406 411.375 Z M 94.566406 411.375 "/>
<path style=" stroke:none;fill-rule:nonzero;fill:rgb(62.745098%,63.529412%,64.705882%);fill-opacity:1;" d="M 68.53125 411.375 C 66.792969 411.375 65.0625 411.375 63.324219 411.375 C 63.078125 411.152344 62.832031 410.925781 62.582031 410.699219 C 67.542969 410.714844 72.511719 410.722656 77.46875 410.738281 C 78.234375 411.097656 79.269531 411.023438 79.605469 412.078125 C 80.414062 416.746094 79.925781 421.515625 80.683594 426.199219 C 80.863281 427.316406 80.488281 428.421875 79.679688 429.308594 C 78.1875 429.308594 76.707031 429.308594 75.214844 429.308594 C 75.214844 424.894531 74.996094 420.46875 75.289062 416.078125 C 75.535156 412.46875 74.621094 410.640625 70.71875 411.359375 C 70.015625 411.480469 69.265625 411.367188 68.53125 411.375 Z M 68.53125 411.375 "/>
<path style=" stroke:none;fill-rule:nonzero;fill:rgb(63.529412%,64.313725%,65.490196%);fill-opacity:1;" d="M 79.6875 429.300781 C 79.582031 423.316406 78.496094 417.375 78.945312 411.367188 C 80.683594 410.804688 82.414062 410.796875 84.152344 411.367188 C 82.550781 417.285156 84.011719 423.335938 83.402344 429.300781 C 82.160156 429.300781 80.925781 429.300781 79.6875 429.300781 Z M 79.6875 429.300781 "/>
<path style=" stroke:none;fill-rule:nonzero;fill:rgb(67.843137%,68.627451%,69.411765%);fill-opacity:1;" d="M 130.289062 429.300781 C 129.054688 429.300781 127.8125 429.300781 126.574219 429.308594 C 125.375 428.011719 125.285156 426.363281 125.414062 424.78125 C 125.773438 420.3125 124.28125 415.675781 126.558594 411.367188 C 127.722656 410.707031 128.949219 411.046875 130.164062 411.121094 C 132.140625 413.570312 131.285156 416.550781 131.429688 419.253906 C 131.609375 422.601562 132.019531 426.117188 130.289062 429.300781 Z M 130.289062 429.300781 "/>
<path style=" stroke:none;fill-rule:nonzero;fill:rgb(64.705882%,65.490196%,66.666667%);fill-opacity:1;" d="M 137.722656 411.375 C 137.722656 417.351562 137.730469 423.328125 137.730469 429.308594 C 136.496094 429.308594 135.25 429.308594 134.015625 429.308594 C 132.476562 427.496094 132.882812 425.285156 132.90625 423.210938 C 132.941406 419.601562 132.5625 415.972656 133.207031 412.386719 C 133.347656 411.953125 133.578125 411.570312 133.902344 411.253906 C 135.183594 410.949219 136.464844 410.738281 137.722656 411.375 Z M 137.722656 411.375 "/>
<path style=" stroke:none;fill-rule:nonzero;fill:rgb(70.980392%,71.764706%,72.54902%);fill-opacity:1;" d="M 122.851562 429.316406 C 120.0625 429.75 118.835938 428.796875 119.058594 425.726562 C 119.320312 422.167969 119.320312 418.558594 119.058594 415 C 118.835938 411.945312 120.046875 410.96875 122.84375 411.375 C 124.191406 412.917969 124.140625 414.835938 123.988281 416.648438 C 123.636719 420.867188 125.136719 425.269531 122.851562 429.316406 Z M 122.851562 429.316406 "/>
<path style=" stroke:none;fill-rule:nonzero;fill:rgb(69.411765%,70.196078%,70.980392%);fill-opacity:1;" d="M 122.851562 429.316406 C 122.851562 423.335938 122.84375 417.351562 122.84375 411.375 C 124.078125 411.375 125.324219 411.375 126.558594 411.375 C 126.566406 417.351562 126.566406 423.335938 126.574219 429.316406 C 125.332031 429.308594 124.09375 429.308594 122.851562 429.316406 Z M 122.851562 429.316406 "/>
<path style=" stroke:none;fill-rule:nonzero;fill:rgb(69.411765%,70.196078%,70.980392%);fill-opacity:1;" d="M 103.5 411.367188 C 103.5 417.34375 103.492188 423.328125 103.492188 429.308594 C 102.253906 429.308594 101.011719 429.308594 99.773438 429.308594 C 99.773438 423.328125 99.78125 417.34375 99.78125 411.367188 C 101.019531 411.367188 102.253906 411.367188 103.5 411.367188 Z M 103.5 411.367188 "/>
<path style=" stroke:none;fill-rule:nonzero;fill:rgb(66.27451%,67.058824%,68.235294%);fill-opacity:1;" d="M 134 411.367188 C 134 417.34375 134.007812 423.324219 134.007812 429.300781 C 132.769531 429.300781 131.527344 429.300781 130.289062 429.300781 C 130.289062 423.324219 130.28125 417.34375 130.28125 411.367188 C 131.519531 410.804688 132.761719 410.8125 134 411.367188 Z M 134 411.367188 "/>
<path style=" stroke:none;fill-rule:nonzero;fill:rgb(54.117647%,54.901961%,56.078431%);fill-opacity:1;" d="M 46.839844 417.300781 C 47.988281 417.808594 48.527344 418.707031 48.4375 419.945312 C 48.210938 423.066406 47.949219 426.191406 47.703125 429.316406 C 46.175781 429.59375 44.472656 428.820312 43.101562 430.0625 C 41.710938 428.574219 43.53125 425.726562 40.886719 424.769531 C 42.683594 422.140625 44.542969 419.546875 46.839844 417.300781 Z M 46.839844 417.300781 "/>
<path style=" stroke:none;fill-rule:nonzero;fill:rgb(69.411765%,70.196078%,70.980392%);fill-opacity:1;" d="M 94.566406 411.375 C 93.332031 411.375 92.085938 411.375 90.851562 411.375 C 90.613281 411.234375 90.527344 411.097656 90.605469 410.957031 C 90.679688 410.8125 90.761719 410.738281 90.84375 410.738281 C 93.570312 410.738281 96.289062 410.738281 99.019531 410.730469 C 99.023438 410.949219 99.03125 411.15625 99.03125 411.375 C 97.550781 411.367188 96.058594 411.367188 94.566406 411.375 Z M 94.566406 411.375 "/>
<path style=" stroke:none;fill-rule:nonzero;fill:rgb(69.411765%,70.196078%,70.980392%);fill-opacity:1;" d="M 134 411.367188 C 132.761719 411.367188 131.519531 411.367188 130.28125 411.367188 C 129.039062 411.367188 127.804688 411.367188 126.558594 411.367188 C 126.558594 411.152344 126.566406 410.941406 126.574219 410.722656 C 129.054688 410.722656 131.535156 410.730469 134.015625 410.730469 C 134.246094 410.875 134.320312 411.015625 134.238281 411.15625 C 134.15625 411.300781 134.082031 411.367188 134 411.367188 Z M 134 411.367188 "/>
<path style=" stroke:none;fill-rule:nonzero;fill:rgb(61.176471%,61.960784%,63.137255%);fill-opacity:1;" d="M 74.339844 289.421875 C 71.886719 287.167969 69.960938 284.476562 68 281.8125 C 69.984375 281.257812 69.234375 279.601562 69.25 278.378906 C 69.320312 272.027344 69.324219 265.675781 69.257812 259.332031 C 69.234375 257.324219 69.410156 255.371094 70.015625 253.460938 C 72.539062 255.445312 74.375 258.015625 76.078125 260.703125 C 76.796875 269.390625 76.367188 278.089844 76.25 286.777344 C 76.234375 287.917969 76.089844 289.363281 74.339844 289.421875 Z M 74.339844 289.421875 "/>
<path style=" stroke:none;fill-rule:nonzero;fill:rgb(72.54902%,73.333333%,74.117647%);fill-opacity:1;" d="M 107.941406 340.972656 C 111.621094 336.214844 111.621094 336.214844 108.113281 331.167969 C 107.296875 322.46875 108.074219 313.757812 107.941406 305.0625 C 107.917969 303.796875 108.292969 302.589844 109.515625 301.871094 C 113.328125 305.878906 117 310 119.867188 314.769531 C 120.414062 322.746094 120.574219 330.722656 119.800781 338.703125 C 116.714844 343.257812 113.433594 347.652344 109.445312 351.472656 C 107.140625 349.734375 108.164062 347.234375 107.957031 345 C 107.835938 343.652344 107.941406 342.320312 107.941406 340.972656 Z M 107.941406 340.972656 "/>
<path style=" stroke:none;fill-rule:nonzero;fill:rgb(70.588235%,71.372549%,72.156863%);fill-opacity:1;" d="M 109.523438 301.878906 C 108.359375 309.367188 108.804688 316.917969 108.898438 324.441406 C 108.929688 326.785156 108.808594 328.980469 108.113281 331.175781 C 105.886719 328.433594 103.664062 325.699219 101.4375 322.957031 C 101.78125 315.367188 101.511719 307.78125 101.648438 300.191406 C 101.683594 298.109375 101.492188 295.886719 103.542969 294.449219 C 105.925781 296.597656 107.730469 299.234375 109.523438 301.878906 Z M 109.523438 301.878906 "/>
<path style=" stroke:none;fill-rule:nonzero;fill:rgb(62.745098%,63.529412%,64.705882%);fill-opacity:1;" d="M 74.339844 289.421875 C 75.695312 288.402344 75.199219 286.917969 75.207031 285.609375 C 75.253906 278.875 75.238281 272.140625 75.222656 265.398438 C 75.222656 263.773438 75.140625 262.148438 76.078125 260.695312 C 77.933594 262.148438 79.199219 264.105469 80.472656 266.050781 C 81.285156 274.753906 80.847656 283.472656 80.660156 292.1875 C 80.640625 293.316406 80.570312 295.203125 78.363281 294.546875 C 77.003906 292.84375 75.175781 291.527344 74.339844 289.421875 Z M 74.339844 289.421875 "/>
<path style=" stroke:none;fill-rule:nonzero;fill:rgb(68.235294%,69.019608%,69.803922%);fill-opacity:1;" d="M 97.429688 317.847656 C 95.796875 316.679688 94.890625 314.90625 93.742188 313.339844 C 93.085938 304.800781 93.445312 296.246094 93.554688 287.699219 C 93.570312 286.3125 93.992188 284.996094 95.292969 284.1875 C 96.972656 285.984375 98.71875 287.714844 99.871094 289.929688 C 100.605469 298.125 100.164062 306.335938 100.058594 314.539062 C 100.03125 316.109375 99.730469 317.902344 97.429688 317.847656 Z M 97.429688 317.847656 "/>
<path style=" stroke:none;fill-rule:nonzero;fill:rgb(66.666667%,67.843137%,68.627451%);fill-opacity:1;" d="M 95.285156 284.1875 C 93.78125 291.585938 94.988281 299.078125 94.539062 306.507812 C 94.402344 308.785156 95.375 311.226562 93.742188 313.339844 C 91.898438 311.894531 90.753906 309.871094 89.382812 308.035156 C 88.746094 299.742188 89.367188 291.4375 89.121094 283.144531 C 89.074219 281.550781 89.441406 279.910156 90.867188 278.808594 C 92.335938 280.597656 93.8125 282.394531 95.285156 284.1875 Z M 95.285156 284.1875 "/>
<path style=" stroke:none;fill-rule:nonzero;fill:rgb(63.921569%,64.705882%,65.490196%);fill-opacity:1;" d="M 78.355469 294.546875 C 80.355469 294.042969 79.648438 292.394531 79.65625 291.175781 C 79.71875 284.238281 79.695312 277.300781 79.679688 270.359375 C 79.679688 268.859375 79.636719 267.378906 80.46875 266.042969 C 82.136719 267.183594 83.066406 268.949219 84.175781 270.558594 C 85.03125 279.511719 84.550781 288.476562 84.394531 297.4375 C 84.378906 298.46875 84.207031 299.78125 82.625 299.824219 C 81.203125 298.074219 79.777344 296.3125 78.355469 294.546875 Z M 78.355469 294.546875 "/>
<path style=" stroke:none;fill-rule:nonzero;fill:rgb(69.019608%,69.803922%,70.980392%);fill-opacity:1;" d="M 97.429688 317.847656 C 99.167969 317.089844 99.039062 315.554688 99.039062 314.042969 C 99.03125 307.445312 99.046875 300.851562 99.023438 294.253906 C 99.019531 292.746094 99.023438 291.265625 99.863281 289.929688 C 101.429688 291.152344 102.644531 292.671875 103.542969 294.441406 C 101.859375 302.449219 103.175781 310.550781 102.75 318.597656 C 102.667969 320.148438 103.25 321.921875 101.4375 322.949219 C 99.984375 321.339844 98.410156 319.832031 97.429688 317.847656 Z M 97.429688 317.847656 "/>
<path style=" stroke:none;fill-rule:nonzero;fill:rgb(65.882353%,66.666667%,67.45098%);fill-opacity:1;" d="M 90.859375 278.800781 C 89.945312 283.9375 90.492188 289.070312 90.507812 294.222656 C 90.523438 298.734375 91.007812 303.550781 89.382812 308.027344 C 88.152344 306.523438 86.933594 305.023438 85.703125 303.519531 C 85.515625 298.214844 85.972656 292.925781 85.589844 287.59375 C 85.277344 283.152344 85.105469 278.507812 87.15625 274.253906 C 88.820312 275.421875 89.765625 277.175781 90.859375 278.800781 Z M 90.859375 278.800781 "/>
<path style=" stroke:none;fill-rule:nonzero;fill:rgb(64.705882%,65.490196%,66.666667%);fill-opacity:1;" d="M 87.15625 274.253906 C 86.4375 281.292969 86.984375 288.371094 86.640625 295.398438 C 86.511719 298.042969 88.6875 301.175781 85.703125 303.519531 C 84.675781 302.289062 83.652344 301.0625 82.617188 299.832031 C 83.867188 298.761719 83.375 297.308594 83.382812 296.007812 C 83.425781 288.957031 83.410156 281.917969 83.398438 274.867188 C 83.398438 273.378906 83.34375 271.894531 84.167969 270.558594 C 85.578125 271.46875 86.386719 272.84375 87.15625 274.253906 Z M 87.15625 274.253906 "/>
<path style=" stroke:none;fill-rule:nonzero;fill:rgb(63.529412%,64.313725%,65.098039%);fill-opacity:1;" d="M 75.101562 382.09375 C 77.65625 378.886719 80.21875 375.691406 82.773438 372.484375 C 84.648438 372.425781 84.949219 373.847656 85.042969 375.171875 C 85.21875 377.472656 85.5625 379.796875 84.859375 382.078125 C 82.503906 385.863281 79.703125 389.277344 76.675781 392.519531 C 73.664062 389.429688 75.246094 385.628906 75.101562 382.09375 Z M 75.101562 382.09375 "/>
<path style=" stroke:none;fill-rule:nonzero;fill:rgb(70.588235%,71.372549%,72.156863%);fill-opacity:1;" d="M 107.941406 340.972656 C 110.210938 344.214844 107.769531 348.148438 109.453125 351.472656 C 107.640625 354.535156 105.515625 357.351562 102.921875 359.804688 C 101.0625 359.921875 101.207031 358.410156 101.085938 357.324219 C 100.808594 354.804688 100.488281 352.265625 101.167969 349.75 C 103.003906 346.507812 105.640625 343.871094 107.941406 340.972656 Z M 107.941406 340.972656 "/>
<path style=" stroke:none;fill-rule:nonzero;fill:rgb(65.490196%,66.27451%,67.45098%);fill-opacity:1;" d="M 84.863281 382.078125 C 83.761719 380.273438 84.25 378.273438 84.160156 376.34375 C 84.09375 374.902344 84.460938 373.332031 82.78125 372.484375 C 85 369.734375 87.210938 366.980469 89.429688 364.222656 C 91.261719 363.421875 91.59375 364.882812 91.707031 366.011719 C 91.96875 368.648438 92.53125 371.316406 91.601562 373.945312 C 89.683594 376.933594 87.449219 379.652344 84.863281 382.078125 Z M 84.863281 382.078125 "/>
<path style=" stroke:none;fill-rule:nonzero;fill:rgb(70.980392%,71.764706%,72.54902%);fill-opacity:1;" d="M 119.800781 338.710938 C 118.273438 334.417969 119.246094 329.976562 119.210938 325.617188 C 119.179688 322.011719 118.265625 318.289062 119.867188 314.777344 C 120.878906 316.453125 123.234375 317.039062 123.539062 319.292969 C 124.289062 323.996094 123.503906 328.777344 124.25 333.472656 C 122.769531 335.21875 121.285156 336.964844 119.800781 338.710938 Z M 119.800781 338.710938 "/>
<path style=" stroke:none;fill-rule:nonzero;fill:rgb(68.627451%,69.411765%,70.196078%);fill-opacity:1;" d="M 101.160156 349.757812 C 102.359375 351.878906 101.601562 354.246094 101.984375 356.46875 C 102.179688 357.621094 101.648438 358.957031 102.914062 359.804688 C 101.070312 362.417969 99.289062 365.082031 96.921875 367.261719 C 94.636719 367.105469 94.703125 365.210938 94.710938 363.773438 C 94.726562 361.691406 94.605469 359.609375 94.730469 357.53125 C 96.664062 354.761719 98.644531 352.027344 101.160156 349.757812 Z M 101.160156 349.757812 "/>
<path style=" stroke:none;fill-rule:nonzero;fill:rgb(61.568627%,62.352941%,63.137255%);fill-opacity:1;" d="M 75.101562 382.09375 C 76.75 383.78125 75.835938 385.886719 75.902344 387.78125 C 75.964844 389.429688 76.332031 390.964844 76.675781 392.527344 C 74.945312 395 73.199219 397.464844 70.960938 399.511719 C 68.890625 399.511719 69.140625 397.808594 68.996094 396.597656 C 68.734375 394.265625 68.800781 391.914062 69.144531 389.585938 C 70.875 386.882812 72.832031 384.355469 75.101562 382.09375 Z M 75.101562 382.09375 "/>
<path style=" stroke:none;fill-rule:nonzero;fill:rgb(60%,60.784314%,61.960784%);fill-opacity:1;" d="M 69.152344 389.585938 C 70.785156 391.210938 69.714844 393.269531 70.015625 395.113281 C 70.253906 396.597656 69.410156 398.3125 70.96875 399.511719 C 68.507812 401.683594 67.625 405.128906 64.90625 407.082031 C 63.527344 404.347656 65.527344 401.285156 64.058594 398.566406 C 63.78125 398.050781 63.46875 397.554688 63.175781 397.046875 C 64.84375 394.304688 66.890625 391.855469 69.152344 389.585938 Z M 69.152344 389.585938 "/>
<path style=" stroke:none;fill-rule:nonzero;fill:rgb(67.058824%,67.843137%,69.019608%);fill-opacity:1;" d="M 94.738281 357.53125 C 95.640625 359.257812 96.386719 360.917969 95.625 363.015625 C 95.0625 364.566406 95.789062 366.066406 96.921875 367.269531 C 95.113281 369.472656 93.8125 372.078125 91.59375 373.945312 C 90.828125 371.710938 90.785156 369.414062 90.820312 367.082031 C 90.84375 365.945312 91.242188 364.5 89.421875 364.222656 C 91.195312 361.996094 92.972656 359.765625 94.738281 357.53125 Z M 94.738281 357.53125 "/>
<path style=" stroke:none;fill-rule:nonzero;fill:rgb(69.411765%,70.196078%,70.980392%);fill-opacity:1;" d="M 124.25 333.480469 C 123.855469 333.242188 123.113281 333.007812 123.105469 332.753906 C 122.964844 328.261719 122.125 323.734375 123.539062 319.300781 C 125.667969 320.632812 126.769531 322.925781 128.5 324.628906 C 129.847656 325.953125 129.667969 327.113281 128.476562 328.433594 C 127.015625 330.058594 125.660156 331.789062 124.25 333.480469 Z M 124.25 333.480469 "/>
<path style=" stroke:none;fill-rule:nonzero;fill:rgb(68.235294%,69.019608%,69.803922%);fill-opacity:1;" d="M 90.84375 410.730469 C 90.84375 410.941406 90.851562 411.15625 90.851562 411.367188 C 90.355469 411.367188 89.855469 411.367188 89.359375 411.367188 C 87.621094 411.367188 85.890625 411.367188 84.152344 411.367188 C 82.414062 411.367188 80.683594 411.367188 78.945312 411.367188 C 78.453125 411.15625 77.964844 410.949219 77.46875 410.738281 C 81.929688 410.738281 86.386719 410.730469 90.84375 410.730469 Z M 90.84375 410.730469 "/>
<path style=" stroke:none;fill-rule:nonzero;fill:rgb(66.27451%,67.058824%,68.235294%);fill-opacity:1;" d="M 134 411.367188 C 134 411.15625 134.007812 410.949219 134.015625 410.730469 C 136.480469 410.730469 138.945312 410.730469 141.410156 410.730469 C 140.332031 411.816406 138.960938 411.203125 137.722656 411.367188 C 136.480469 411.367188 135.242188 411.367188 134 411.367188 Z M 134 411.367188 "/>
</g>
</svg>
