<?xml version="1.0" encoding="UTF-8"?>
<svg xmlns="http://www.w3.org/2000/svg" xmlns:xlink="http://www.w3.org/1999/xlink" width="29px" height="41px" viewBox="0 0 29 41" version="1.1">
<g id="surface1">
<path style=" stroke:none;fill-rule:nonzero;fill:rgb(99.607843%,99.607843%,99.607843%);fill-opacity:1;" d="M 14.492188 32.46875 C 9.730469 32.46875 4.96875 32.46875 0.207031 32.476562 C 0.046875 32.476562 0.0078125 32.449219 0.0078125 32.277344 C 0.0117188 25.339844 0.0117188 18.398438 0.0078125 11.460938 C 0.0078125 11.273438 0.0625 11.253906 0.222656 11.253906 C 9.753906 11.257812 19.285156 11.257812 28.816406 11.253906 C 28.984375 11.253906 29.03125 11.28125 29.027344 11.464844 C 29.023438 18.394531 29.023438 25.324219 29.027344 32.257812 C 29.027344 32.449219 28.972656 32.476562 28.800781 32.476562 C 24.03125 32.46875 19.261719 32.46875 14.492188 32.46875 Z M 14.492188 32.46875 "/>
<path style=" stroke:none;fill-rule:nonzero;fill:rgb(92.54902%,10.980392%,14.117647%);fill-opacity:1;" d="M 9.917969 15.824219 C 10.039062 15.371094 10.148438 14.914062 10.355469 14.488281 C 10.703125 13.777344 11.167969 13.179688 11.925781 12.886719 C 12.988281 12.472656 14.175781 13.171875 14.304688 14.269531 C 14.339844 14.59375 14.25 14.882812 14.035156 15.125 C 13.824219 15.359375 13.609375 15.359375 13.394531 15.128906 C 13.21875 14.9375 13.113281 14.699219 13.011719 14.460938 C 12.910156 14.222656 12.808594 13.984375 12.644531 13.78125 C 12.269531 13.320312 11.71875 13.355469 11.402344 13.867188 C 11.203125 14.191406 11.140625 14.558594 11.097656 14.929688 C 11.0625 15.21875 11.050781 15.511719 11.027344 15.800781 C 11.089844 16.160156 11.0625 16.511719 10.949219 16.855469 C 10.863281 18.363281 10.777344 19.875 10.691406 21.382812 C 10.589844 23.09375 10.492188 24.804688 10.390625 26.515625 C 10.46875 26.910156 10.414062 27.296875 10.34375 27.683594 C 10.328125 27.777344 10.320312 27.878906 10.230469 27.9375 C 10.039062 28.828125 9.722656 29.660156 9.046875 30.304688 C 8.625 30.703125 8.136719 30.960938 7.539062 30.972656 C 6.808594 30.992188 6.0625 30.449219 5.890625 29.761719 C 5.800781 29.40625 5.84375 29.070312 6.085938 28.777344 C 6.316406 28.5 6.578125 28.492188 6.816406 28.761719 C 6.976562 28.9375 7.082031 29.148438 7.175781 29.363281 C 7.273438 29.578125 7.375 29.785156 7.527344 29.96875 C 7.890625 30.410156 8.441406 30.378906 8.757812 29.898438 C 8.984375 29.554688 9.042969 29.164062 9.085938 28.769531 C 9.117188 28.496094 9.128906 28.21875 9.148438 27.945312 C 9.128906 27.921875 9.117188 27.898438 9.109375 27.871094 C 9.109375 27.464844 9.164062 27.0625 9.179688 26.660156 C 9.152344 26.222656 9.214844 25.789062 9.238281 25.351562 C 9.261719 24.96875 9.292969 24.578125 9.308594 24.191406 C 9.359375 23.054688 9.460938 21.917969 9.496094 20.78125 C 9.523438 20.042969 9.585938 19.3125 9.617188 18.578125 C 9.644531 17.851562 9.675781 17.121094 9.765625 16.398438 C 9.816406 16.207031 9.78125 15.992188 9.917969 15.824219 Z M 9.917969 15.824219 "/>
<path style=" stroke:none;fill-rule:nonzero;fill:rgb(43.529412%,43.921569%,45.098039%);fill-opacity:1;" d="M 19.226562 20.175781 C 18.863281 21.300781 18.5 22.414062 18.136719 23.527344 C 18.066406 23.742188 18.136719 23.851562 18.355469 23.878906 C 18.417969 23.886719 18.492188 23.890625 18.480469 23.984375 C 18.472656 24.089844 18.386719 24.054688 18.332031 24.058594 C 18.035156 24.058594 17.738281 24.058594 17.4375 24.058594 C 17.382812 24.054688 17.296875 24.085938 17.289062 23.988281 C 17.277344 23.890625 17.355469 23.886719 17.417969 23.882812 C 17.6875 23.851562 17.757812 23.644531 17.828125 23.433594 C 18.238281 22.226562 18.648438 21.015625 19.054688 19.808594 C 19.109375 19.652344 19.132812 19.511719 19.363281 19.519531 C 19.574219 19.527344 19.703125 19.546875 19.78125 19.789062 C 20.175781 21.003906 20.59375 22.207031 21 23.417969 C 21.078125 23.648438 21.160156 23.867188 21.449219 23.886719 C 21.5 23.890625 21.542969 23.914062 21.542969 23.976562 C 21.539062 24.0625 21.476562 24.058594 21.421875 24.058594 C 20.996094 24.058594 20.570312 24.058594 20.140625 24.058594 C 20.085938 24.058594 20.023438 24.0625 20.023438 23.976562 C 20.023438 23.894531 20.082031 23.886719 20.136719 23.878906 C 20.390625 23.851562 20.417969 23.679688 20.355469 23.492188 C 20.003906 22.390625 19.640625 21.296875 19.28125 20.199219 C 19.277344 20.195312 19.265625 20.191406 19.226562 20.175781 Z M 19.226562 20.175781 "/>
<path style=" stroke:none;fill-rule:nonzero;fill:rgb(43.529412%,43.921569%,45.098039%);fill-opacity:1;" d="M 27.492188 24.058594 C 27.316406 24.0625 27.105469 24.039062 26.910156 23.917969 C 26.824219 23.863281 26.726562 23.820312 26.695312 23.976562 C 26.675781 24.070312 26.605469 24.054688 26.542969 24.054688 C 26.460938 24.054688 26.464844 23.992188 26.453125 23.9375 C 26.417969 23.746094 26.375 23.558594 26.339844 23.367188 C 26.328125 23.308594 26.277344 23.234375 26.355469 23.195312 C 26.433594 23.15625 26.492188 23.210938 26.539062 23.273438 C 26.796875 23.632812 27.164062 23.730469 27.578125 23.722656 C 27.890625 23.71875 28.066406 23.585938 28.164062 23.285156 C 28.34375 22.738281 28.179688 22.347656 27.65625 22.121094 C 27.328125 21.980469 27.003906 21.851562 26.761719 21.570312 C 26.160156 20.871094 26.464844 19.75 27.316406 19.558594 C 27.605469 19.492188 27.886719 19.511719 28.152344 19.675781 C 28.25 19.734375 28.414062 19.890625 28.40625 19.589844 C 28.40625 19.535156 28.453125 19.53125 28.492188 19.53125 C 28.542969 19.527344 28.585938 19.539062 28.601562 19.601562 C 28.640625 19.78125 28.683594 19.964844 28.71875 20.144531 C 28.734375 20.21875 28.671875 20.210938 28.625 20.214844 C 28.535156 20.226562 28.476562 20.167969 28.417969 20.113281 C 28.1875 19.898438 27.914062 19.847656 27.613281 19.863281 C 27.335938 19.878906 27.132812 20.082031 27.089844 20.402344 C 27.035156 20.808594 27.1875 21.113281 27.539062 21.320312 C 27.800781 21.476562 28.085938 21.585938 28.347656 21.753906 C 28.890625 22.105469 28.972656 22.65625 28.816406 23.226562 C 28.683594 23.714844 28.1875 24.046875 27.632812 24.058594 C 27.601562 24.058594 27.570312 24.058594 27.492188 24.058594 Z M 27.492188 24.058594 "/>
<path style=" stroke:none;fill-rule:nonzero;fill:rgb(43.529412%,43.921569%,45.098039%);fill-opacity:1;" d="M 15.378906 21.824219 C 15.378906 22.382812 15.382812 22.941406 15.375 23.5 C 15.371094 23.714844 15.410156 23.871094 15.660156 23.886719 C 15.714844 23.890625 15.773438 23.894531 15.773438 23.976562 C 15.769531 24.066406 15.710938 24.058594 15.65625 24.058594 C 15.25 24.058594 14.847656 24.058594 14.445312 24.058594 C 14.394531 24.058594 14.324219 24.074219 14.320312 23.988281 C 14.3125 23.910156 14.363281 23.886719 14.421875 23.882812 C 14.671875 23.871094 14.710938 23.714844 14.710938 23.5 C 14.703125 22.375 14.703125 21.246094 14.710938 20.121094 C 14.710938 19.925781 14.675781 19.839844 14.464844 19.859375 C 14.257812 19.878906 14.046875 19.871094 13.835938 19.863281 C 13.5625 19.855469 13.34375 19.9375 13.230469 20.207031 C 13.195312 20.285156 13.148438 20.335938 13.066406 20.304688 C 12.953125 20.265625 13.035156 20.1875 13.054688 20.128906 C 13.242188 19.53125 13.242188 19.53125 13.855469 19.53125 C 14.78125 19.53125 15.710938 19.535156 16.636719 19.527344 C 16.789062 19.527344 16.871094 19.5625 16.910156 19.71875 C 16.949219 19.875 17.019531 20.023438 17.070312 20.175781 C 17.082031 20.21875 17.125 20.273438 17.0625 20.304688 C 17.015625 20.324219 16.929688 20.332031 16.910156 20.277344 C 16.742188 19.8125 16.351562 19.855469 15.980469 19.867188 C 15.789062 19.871094 15.542969 19.785156 15.421875 19.902344 C 15.289062 20.03125 15.382812 20.285156 15.378906 20.484375 C 15.371094 20.929688 15.378906 21.375 15.378906 21.824219 Z M 15.378906 21.824219 "/>
<path style=" stroke:none;fill-rule:nonzero;fill:rgb(43.529412%,43.921569%,45.098039%);fill-opacity:1;" d="M 24.128906 21.8125 C 24.128906 22.378906 24.132812 22.945312 24.125 23.511719 C 24.121094 23.714844 24.160156 23.867188 24.398438 23.882812 C 24.464844 23.886719 24.53125 23.902344 24.515625 23.996094 C 24.503906 24.078125 24.429688 24.058594 24.382812 24.058594 C 23.988281 24.058594 23.589844 24.058594 23.195312 24.058594 C 23.144531 24.058594 23.078125 24.074219 23.070312 23.988281 C 23.0625 23.910156 23.113281 23.890625 23.175781 23.886719 C 23.417969 23.867188 23.460938 23.714844 23.460938 23.5 C 23.453125 22.363281 23.453125 21.230469 23.460938 20.09375 C 23.460938 19.921875 23.429688 19.847656 23.238281 19.859375 C 23.003906 19.878906 22.769531 19.867188 22.539062 19.863281 C 22.289062 19.859375 22.097656 19.949219 21.992188 20.183594 C 21.957031 20.261719 21.917969 20.347656 21.816406 20.304688 C 21.695312 20.253906 21.792969 20.167969 21.8125 20.105469 C 22 19.527344 22 19.53125 22.609375 19.53125 C 23.535156 19.53125 24.460938 19.535156 25.386719 19.527344 C 25.539062 19.527344 25.621094 19.5625 25.660156 19.722656 C 25.695312 19.871094 25.761719 20.011719 25.808594 20.15625 C 25.824219 20.203125 25.875 20.269531 25.800781 20.300781 C 25.746094 20.328125 25.667969 20.328125 25.640625 20.246094 C 25.507812 19.886719 25.210938 19.84375 24.886719 19.867188 C 24.640625 19.882812 24.324219 19.761719 24.167969 19.917969 C 24.027344 20.0625 24.132812 20.378906 24.128906 20.621094 C 24.125 21.015625 24.128906 21.414062 24.128906 21.8125 Z M 24.128906 21.8125 "/>
<path style=" stroke:none;fill-rule:nonzero;fill:rgb(43.921569%,44.705882%,45.490196%);fill-opacity:1;" d="M 0.425781 19.324219 C 0.488281 19.011719 0.585938 18.710938 0.695312 18.410156 C 0.851562 18.363281 0.851562 18.496094 0.851562 18.578125 C 0.855469 18.785156 0.894531 18.996094 0.878906 19.207031 C 0.832031 19.75 0.878906 20.292969 0.871094 20.832031 C 0.867188 21.308594 0.882812 21.785156 0.855469 22.261719 C 0.832031 22.746094 0.90625 23.230469 0.882812 23.714844 C 0.859375 24.175781 0.839844 24.636719 0.878906 25.097656 C 0.886719 25.175781 0.882812 25.261719 0.828125 25.328125 C 0.78125 25.382812 0.738281 25.398438 0.699219 25.320312 C 0.574219 25.003906 0.476562 24.679688 0.410156 24.347656 C 0.460938 24.210938 0.417969 24.074219 0.417969 23.941406 C 0.417969 22.5625 0.421875 21.183594 0.417969 19.808594 C 0.417969 19.644531 0.472656 19.488281 0.425781 19.324219 Z M 0.425781 19.324219 "/>
<path style=" stroke:none;fill-rule:nonzero;fill:rgb(43.137255%,43.529412%,44.705882%);fill-opacity:1;" d="M 0.425781 19.324219 C 0.523438 19.382812 0.492188 19.484375 0.492188 19.566406 C 0.496094 21.109375 0.496094 22.648438 0.492188 24.1875 C 0.492188 24.238281 0.578125 24.367188 0.410156 24.347656 C 0.144531 23.289062 0.0625 22.21875 0.136719 21.132812 C 0.183594 20.519531 0.265625 19.917969 0.425781 19.324219 Z M 0.425781 19.324219 "/>
<path style=" stroke:none;fill-rule:nonzero;fill:rgb(45.098039%,45.882353%,47.058824%);fill-opacity:1;" d="M 0.699219 25.320312 C 0.851562 25.351562 0.824219 25.234375 0.824219 25.15625 C 0.816406 24.832031 0.769531 24.503906 0.796875 24.183594 C 0.820312 23.875 0.777344 23.566406 0.828125 23.261719 C 0.851562 23.136719 0.8125 23.023438 0.804688 22.902344 C 0.757812 22.085938 0.832031 21.269531 0.800781 20.453125 C 0.777344 19.835938 0.800781 19.214844 0.804688 18.597656 C 0.804688 18.523438 0.808594 18.425781 0.695312 18.410156 C 0.746094 18.242188 0.785156 18.070312 0.886719 17.925781 C 1.011719 17.878906 1.019531 17.976562 1.039062 18.050781 C 1.058594 18.136719 1.054688 18.226562 1.050781 18.3125 C 1.035156 18.894531 1.050781 19.472656 1.046875 20.050781 C 1.046875 20.191406 1.085938 20.320312 1.097656 20.457031 C 1.09375 20.960938 1.011719 21.457031 1.003906 21.957031 C 0.996094 22.398438 1.039062 22.832031 1.085938 23.265625 C 1.097656 23.371094 1.105469 23.472656 1.09375 23.578125 C 1.027344 23.792969 1.054688 24.011719 1.054688 24.230469 C 1.054688 24.671875 1.0625 25.117188 1.050781 25.558594 C 1.046875 25.660156 1.085938 25.820312 0.886719 25.804688 C 0.789062 25.65625 0.746094 25.488281 0.699219 25.320312 Z M 0.699219 25.320312 "/>
<path style=" stroke:none;fill-rule:nonzero;fill:rgb(72.54902%,73.333333%,74.117647%);fill-opacity:1;" d="M 9.148438 27.898438 C 9.148438 27.914062 9.148438 27.929688 9.148438 27.945312 C 7.042969 27.945312 4.9375 27.945312 2.832031 27.949219 C 2.828125 27.933594 2.820312 27.921875 2.8125 27.910156 C 2.894531 27.804688 3.011719 27.839844 3.121094 27.832031 C 3.242188 27.828125 3.367188 27.824219 3.492188 27.828125 C 3.589844 27.824219 3.6875 27.824219 3.785156 27.828125 C 3.898438 27.824219 4.007812 27.824219 4.121094 27.828125 C 4.234375 27.824219 4.347656 27.824219 4.460938 27.828125 C 4.601562 27.824219 4.746094 27.824219 4.886719 27.828125 C 4.984375 27.824219 5.082031 27.824219 5.179688 27.828125 C 5.265625 27.824219 5.351562 27.824219 5.433594 27.828125 C 5.574219 27.824219 5.714844 27.824219 5.855469 27.828125 C 5.953125 27.824219 6.054688 27.824219 6.152344 27.828125 C 6.261719 27.824219 6.375 27.824219 6.484375 27.828125 C 6.566406 27.824219 6.648438 27.824219 6.726562 27.828125 C 6.933594 27.851562 7.023438 27.765625 7.007812 27.550781 C 6.992188 27.390625 6.996094 27.226562 7.003906 27.066406 C 7.019531 26.871094 6.941406 26.777344 6.742188 26.796875 C 6.660156 26.796875 6.574219 26.800781 6.496094 26.773438 C 6.46875 26.761719 6.445312 26.742188 6.429688 26.714844 C 6.429688 26.683594 6.445312 26.660156 6.476562 26.644531 C 6.726562 26.570312 6.980469 26.609375 7.234375 26.609375 C 7.542969 26.605469 7.851562 26.582031 8.164062 26.625 C 8.191406 26.636719 8.214844 26.652344 8.238281 26.671875 C 8.25 26.699219 8.242188 26.726562 8.222656 26.75 C 8.148438 26.796875 8.066406 26.792969 7.988281 26.796875 C 7.867188 26.800781 7.820312 26.871094 7.816406 26.984375 C 7.816406 27.207031 7.8125 27.429688 7.820312 27.652344 C 7.820312 27.769531 7.878906 27.828125 7.996094 27.828125 C 8.074219 27.828125 8.152344 27.828125 8.230469 27.828125 C 8.308594 27.828125 8.390625 27.828125 8.46875 27.832031 C 8.550781 27.828125 8.632812 27.828125 8.714844 27.832031 C 8.792969 27.828125 8.875 27.828125 8.957031 27.832031 C 9.027344 27.832031 9.09375 27.847656 9.148438 27.898438 Z M 9.148438 27.898438 "/>
<path style=" stroke:none;fill-rule:nonzero;fill:rgb(49.803922%,50.588235%,51.764706%);fill-opacity:1;" d="M 11.277344 15.832031 C 11.476562 15.785156 11.558594 15.84375 11.570312 16.070312 C 11.597656 16.691406 11.664062 17.3125 11.707031 17.933594 C 11.714844 18.015625 11.789062 18.152344 11.605469 18.171875 C 11.4375 18.191406 11.433594 18.089844 11.410156 17.972656 C 11.359375 17.726562 11.285156 17.488281 11.222656 17.246094 C 11.230469 16.890625 11.226562 16.535156 11.214844 16.179688 C 11.210938 16.0625 11.1875 15.933594 11.277344 15.832031 Z M 11.277344 15.832031 "/>
<path style=" stroke:none;fill-rule:nonzero;fill:rgb(45.882353%,46.27451%,47.45098%);fill-opacity:1;" d="M 1.035156 20.46875 C 0.972656 20.203125 0.96875 19.929688 0.976562 19.65625 C 0.988281 19.144531 0.980469 18.628906 0.976562 18.117188 C 0.976562 18.039062 1.007812 17.945312 0.886719 17.921875 C 0.949219 17.71875 1.03125 17.527344 1.136719 17.34375 C 1.304688 17.375 1.289062 17.515625 1.292969 17.628906 C 1.300781 17.9375 1.292969 18.246094 1.296875 18.554688 C 1.296875 18.804688 1.285156 19.054688 1.335938 19.300781 C 1.316406 19.667969 1.179688 20.011719 1.125 20.367188 C 1.117188 20.417969 1.089844 20.457031 1.035156 20.46875 Z M 1.035156 20.46875 "/>
<path style=" stroke:none;fill-rule:nonzero;fill:rgb(47.058824%,47.45098%,48.627451%);fill-opacity:1;" d="M 1.5 27.074219 C 1.34375 26.863281 1.242188 26.625 1.136719 26.386719 C 1.136719 25.949219 1.15625 25.515625 1.152344 25.078125 C 1.152344 24.960938 1.136719 24.832031 1.238281 24.738281 C 1.371094 24.699219 1.382812 24.8125 1.402344 24.886719 C 1.492188 25.207031 1.628906 25.507812 1.691406 25.832031 C 1.613281 26.15625 1.679688 26.484375 1.65625 26.8125 C 1.644531 26.925781 1.667969 27.058594 1.5 27.074219 Z M 1.5 27.074219 "/>
<path style=" stroke:none;fill-rule:nonzero;fill:rgb(47.058824%,47.843137%,48.627451%);fill-opacity:1;" d="M 1.269531 19.335938 C 1.175781 18.761719 1.238281 18.179688 1.222656 17.601562 C 1.21875 17.507812 1.242188 17.40625 1.136719 17.34375 C 1.222656 17.160156 1.28125 16.960938 1.417969 16.804688 C 1.59375 16.765625 1.566406 16.910156 1.578125 16.996094 C 1.597656 17.1875 1.585938 17.382812 1.585938 17.574219 C 1.585938 17.835938 1.585938 18.101562 1.625 18.363281 C 1.601562 18.683594 1.457031 18.972656 1.359375 19.277344 C 1.347656 19.316406 1.316406 19.34375 1.269531 19.335938 Z M 1.269531 19.335938 "/>
<path style=" stroke:none;fill-rule:nonzero;fill:rgb(48.627451%,49.411765%,50.196078%);fill-opacity:1;" d="M 1.5 27.074219 C 1.695312 26.882812 1.566406 26.640625 1.59375 26.425781 C 1.617188 26.234375 1.53125 26.03125 1.65625 25.851562 C 1.703125 25.839844 1.734375 25.871094 1.75 25.90625 C 1.875 26.175781 2.015625 26.441406 2.097656 26.730469 C 2.066406 26.992188 2.089844 27.257812 2.089844 27.519531 C 2.085938 27.632812 2.101562 27.765625 1.945312 27.800781 C 1.78125 27.566406 1.621094 27.332031 1.5 27.074219 Z M 1.5 27.074219 "/>
<path style=" stroke:none;fill-rule:nonzero;fill:rgb(60%,60.784314%,61.568627%);fill-opacity:1;" d="M 4.21875 15.832031 C 4.316406 15.832031 4.410156 15.832031 4.507812 15.832031 C 4.648438 15.988281 4.535156 16.179688 4.589844 16.351562 C 4.589844 16.414062 4.597656 16.480469 4.597656 16.546875 C 4.5625 17.035156 4.59375 17.527344 4.578125 18.015625 C 4.578125 18.128906 4.605469 18.261719 4.46875 18.335938 C 4.257812 18.292969 4.160156 18.152344 4.148438 17.941406 C 4.226562 17.625 4.179688 17.300781 4.195312 16.984375 C 4.214844 16.597656 4.164062 16.214844 4.21875 15.832031 Z M 4.21875 15.832031 "/>
<path style=" stroke:none;fill-rule:nonzero;fill:rgb(56.862745%,57.647059%,58.431373%);fill-opacity:1;" d="M 3.300781 15.832031 C 3.445312 15.832031 3.589844 15.832031 3.734375 15.832031 C 3.753906 15.855469 3.78125 15.882812 3.785156 15.914062 C 3.8125 16.398438 3.855469 16.882812 3.757812 17.367188 C 3.695312 17.4375 3.621094 17.417969 3.574219 17.359375 C 3.433594 17.199219 3.257812 17.0625 3.222656 16.832031 C 3.242188 16.578125 3.21875 16.316406 3.246094 16.0625 C 3.253906 15.980469 3.242188 15.898438 3.300781 15.832031 Z M 3.300781 15.832031 "/>
<path style=" stroke:none;fill-rule:nonzero;fill:rgb(45.882353%,46.27451%,47.45098%);fill-opacity:1;" d="M 1.277344 24.71875 C 1.179688 24.894531 1.226562 25.082031 1.222656 25.265625 C 1.214844 25.59375 1.21875 25.921875 1.21875 26.25 C 1.21875 26.3125 1.1875 26.355469 1.136719 26.386719 C 1.027344 26.203125 0.945312 26.007812 0.886719 25.804688 C 1.019531 25.777344 0.976562 25.671875 0.976562 25.589844 C 0.980469 25.054688 0.980469 24.515625 0.976562 23.980469 C 0.976562 23.832031 0.988281 23.691406 1.035156 23.554688 C 1.058594 23.558594 1.085938 23.5625 1.09375 23.589844 C 1.1875 23.957031 1.316406 24.324219 1.277344 24.71875 Z M 1.277344 24.71875 "/>
<path style=" stroke:none;fill-rule:nonzero;fill:rgb(58.039216%,58.823529%,60%);fill-opacity:1;" d="M 3.683594 17.390625 C 3.765625 17.320312 3.734375 17.222656 3.734375 17.140625 C 3.738281 16.703125 3.734375 16.265625 3.734375 15.832031 C 3.832031 15.832031 3.929688 15.832031 4.027344 15.832031 C 4.101562 15.917969 4.101562 16.023438 4.101562 16.128906 C 4.101562 16.546875 4.105469 16.96875 4.101562 17.390625 C 4.097656 17.5 4.109375 17.617188 4.003906 17.699219 C 3.777344 17.722656 3.707031 17.582031 3.683594 17.390625 Z M 3.683594 17.390625 "/>
<path style=" stroke:none;fill-rule:nonzero;fill:rgb(52.54902%,53.333333%,54.509804%);fill-opacity:1;" d="M 2.671875 15.003906 C 2.769531 14.855469 2.898438 14.738281 3.023438 14.617188 C 3.199219 14.585938 3.167969 14.734375 3.171875 14.820312 C 3.183594 15.078125 3.195312 15.335938 3.164062 15.59375 C 3.125 15.640625 3.085938 15.6875 3.046875 15.738281 C 2.921875 15.910156 2.9375 16.15625 2.757812 16.304688 C 2.71875 16.308594 2.683594 16.296875 2.648438 16.269531 C 2.523438 16.105469 2.472656 15.9375 2.605469 15.742188 C 2.6875 15.613281 2.648438 15.460938 2.652344 15.316406 C 2.652344 15.210938 2.648438 15.109375 2.671875 15.003906 Z M 2.671875 15.003906 "/>
<path style=" stroke:none;fill-rule:nonzero;fill:rgb(58.823529%,59.607843%,60.784314%);fill-opacity:1;" d="M 3.921875 17.683594 C 4.070312 17.65625 4.023438 17.539062 4.023438 17.453125 C 4.027344 16.910156 4.027344 16.371094 4.027344 15.832031 C 4.089844 15.832031 4.15625 15.832031 4.21875 15.832031 C 4.257812 15.902344 4.269531 15.980469 4.269531 16.0625 C 4.265625 16.609375 4.265625 17.152344 4.269531 17.699219 C 4.269531 17.808594 4.257812 17.910156 4.160156 17.976562 C 3.996094 17.949219 3.941406 17.828125 3.921875 17.683594 Z M 3.921875 17.683594 "/>
<path style=" stroke:none;fill-rule:nonzero;fill:rgb(48.627451%,49.411765%,50.196078%);fill-opacity:1;" d="M 1.644531 16.410156 C 1.722656 16.253906 1.816406 16.101562 1.933594 15.96875 C 2.105469 15.976562 2.070312 16.109375 2.078125 16.214844 C 2.09375 16.582031 2.105469 16.953125 2.09375 17.320312 C 2.078125 17.464844 2.003906 17.589844 1.9375 17.71875 C 1.902344 17.789062 1.863281 17.867188 1.757812 17.835938 C 1.636719 17.753906 1.632812 17.621094 1.632812 17.492188 C 1.628906 17.132812 1.621094 16.769531 1.644531 16.410156 Z M 1.644531 16.410156 "/>
<path style=" stroke:none;fill-rule:nonzero;fill:rgb(50.980392%,51.764706%,52.941176%);fill-opacity:1;" d="M 2.671875 15.003906 C 2.714844 15.296875 2.8125 15.589844 2.601562 15.863281 C 2.488281 16.007812 2.695312 16.121094 2.671875 16.265625 C 2.644531 16.503906 2.546875 16.695312 2.320312 16.800781 C 2.160156 16.488281 2.289062 16.152344 2.25 15.828125 C 2.238281 15.734375 2.253906 15.636719 2.238281 15.542969 C 2.359375 15.34375 2.511719 15.167969 2.671875 15.003906 Z M 2.671875 15.003906 "/>
<path style=" stroke:none;fill-rule:nonzero;fill:rgb(47.45098%,48.235294%,49.019608%);fill-opacity:1;" d="M 11.742188 25.652344 C 11.800781 25.460938 11.863281 25.269531 11.917969 25.078125 C 11.945312 24.972656 12.011719 24.96875 12.097656 24.980469 C 12.210938 24.992188 12.21875 25.054688 12.203125 25.148438 C 12.113281 25.6875 12.035156 26.226562 11.933594 26.761719 C 11.914062 26.882812 11.941406 27.003906 11.898438 27.117188 C 11.722656 27.089844 11.746094 26.953125 11.746094 26.835938 C 11.738281 26.441406 11.742188 26.046875 11.742188 25.652344 Z M 11.742188 25.652344 "/>
<path style=" stroke:none;fill-rule:nonzero;fill:rgb(49.803922%,50.588235%,51.372549%);fill-opacity:1;" d="M 2.238281 15.542969 C 2.316406 15.578125 2.355469 15.648438 2.328125 15.71875 C 2.265625 15.890625 2.355469 16.0625 2.316406 16.230469 C 2.269531 16.421875 2.335938 16.605469 2.332031 16.792969 C 2.308594 17.015625 2.261719 17.222656 2.042969 17.335938 C 2.035156 16.949219 2.019531 16.5625 2.019531 16.175781 C 2.023438 16.082031 2.003906 16.019531 1.929688 15.96875 C 2.011719 15.8125 2.117188 15.671875 2.238281 15.542969 Z M 2.238281 15.542969 "/>
<path style=" stroke:none;fill-rule:nonzero;fill:rgb(52.941176%,53.333333%,54.509804%);fill-opacity:1;" d="M 3.058594 29.164062 C 2.929688 29.015625 2.796875 28.871094 2.667969 28.726562 C 2.65625 28.636719 2.648438 28.550781 2.652344 28.460938 C 2.652344 28.261719 2.671875 28.0625 2.546875 27.882812 C 2.503906 27.820312 2.511719 27.742188 2.539062 27.671875 C 2.5625 27.617188 2.605469 27.585938 2.664062 27.578125 C 2.882812 27.632812 2.808594 27.800781 2.808594 27.945312 C 2.816406 27.949219 2.824219 27.949219 2.832031 27.945312 C 2.921875 28.148438 3.09375 28.292969 3.199219 28.484375 C 3.230469 28.644531 3.234375 28.804688 3.214844 28.964844 C 3.207031 29.0625 3.195312 29.167969 3.058594 29.164062 Z M 3.058594 29.164062 "/>
<path style=" stroke:none;fill-rule:nonzero;fill:rgb(53.72549%,54.509804%,55.686275%);fill-opacity:1;" d="M 3.164062 15.59375 C 3.035156 15.359375 3.140625 15.105469 3.105469 14.863281 C 3.09375 14.777344 3.160156 14.660156 3.023438 14.617188 C 3.140625 14.464844 3.28125 14.335938 3.433594 14.21875 C 3.550781 14.214844 3.554688 14.308594 3.558594 14.382812 C 3.566406 14.636719 3.597656 14.894531 3.542969 15.148438 C 3.414062 15.296875 3.289062 15.445312 3.164062 15.59375 Z M 3.164062 15.59375 "/>
<path style=" stroke:none;fill-rule:nonzero;fill:rgb(55.686275%,56.470588%,57.647059%);fill-opacity:1;" d="M 3.539062 15.148438 C 3.445312 14.933594 3.515625 14.707031 3.492188 14.484375 C 3.484375 14.394531 3.527344 14.289062 3.433594 14.21875 C 3.546875 14.089844 3.664062 13.960938 3.816406 13.875 C 3.949219 13.863281 3.980469 13.960938 3.992188 14.058594 C 4.011719 14.285156 4.035156 14.511719 3.933594 14.726562 C 3.804688 14.871094 3.695312 15.03125 3.539062 15.148438 Z M 3.539062 15.148438 "/>
<path style=" stroke:none;fill-rule:nonzero;fill:rgb(58.431373%,59.215686%,60%);fill-opacity:1;" d="M 4.652344 14.070312 C 4.492188 14.214844 4.332031 14.363281 4.167969 14.507812 C 4.03125 14.226562 4.109375 13.929688 4.109375 13.636719 C 4.242188 13.5 4.390625 13.390625 4.554688 13.300781 C 4.652344 13.289062 4.65625 13.371094 4.664062 13.425781 C 4.683594 13.640625 4.703125 13.855469 4.652344 14.070312 Z M 4.652344 14.070312 "/>
<path style=" stroke:none;fill-rule:nonzero;fill:rgb(50.196078%,50.980392%,51.764706%);fill-opacity:1;" d="M 11.277344 26.285156 C 11.339844 26.222656 11.40625 26.160156 11.472656 26.09375 C 11.546875 26.140625 11.574219 26.21875 11.578125 26.300781 C 11.59375 26.796875 11.578125 27.292969 11.574219 27.789062 C 11.574219 27.835938 11.554688 27.882812 11.511719 27.914062 C 11.425781 27.914062 11.335938 27.949219 11.253906 27.882812 C 11.167969 27.714844 11.207031 27.535156 11.203125 27.359375 C 11.195312 27.085938 11.199219 26.8125 11.203125 26.539062 C 11.203125 26.445312 11.234375 26.363281 11.277344 26.285156 Z M 11.277344 26.285156 "/>
<path style=" stroke:none;fill-rule:nonzero;fill:rgb(51.764706%,52.156863%,52.941176%);fill-opacity:1;" d="M 11.277344 15.832031 C 11.289062 16.230469 11.304688 16.628906 11.308594 17.027344 C 11.3125 17.105469 11.292969 17.191406 11.222656 17.246094 C 11.125 17.121094 11.082031 16.953125 10.949219 16.855469 C 10.972656 16.503906 11 16.152344 11.027344 15.800781 C 11.109375 15.808594 11.195312 15.820312 11.277344 15.832031 Z M 11.277344 15.832031 "/>
<path style=" stroke:none;fill-rule:nonzero;fill:rgb(54.117647%,54.901961%,56.078431%);fill-opacity:1;" d="M 10.554688 26.59375 C 10.664062 26.558594 10.777344 26.527344 10.890625 26.492188 C 10.917969 26.960938 10.972656 27.433594 10.855469 27.898438 C 10.519531 27.949219 10.496094 27.933594 10.476562 27.605469 C 10.460938 27.34375 10.484375 27.078125 10.480469 26.816406 C 10.480469 26.734375 10.492188 26.65625 10.554688 26.59375 Z M 10.554688 26.59375 "/>
<path style=" stroke:none;fill-rule:nonzero;fill:rgb(49.019608%,49.803922%,50.588235%);fill-opacity:1;" d="M 11.519531 27.890625 C 11.519531 27.386719 11.523438 26.882812 11.519531 26.378906 C 11.515625 26.285156 11.488281 26.191406 11.472656 26.09375 C 11.535156 26 11.601562 25.902344 11.667969 25.808594 C 11.753906 25.875 11.765625 25.972656 11.757812 26.070312 C 11.722656 26.570312 11.816406 27.070312 11.75 27.570312 C 11.742188 27.628906 11.75 27.699219 11.800781 27.753906 C 11.804688 27.804688 11.8125 27.859375 11.761719 27.898438 C 11.679688 27.929688 11.601562 27.9375 11.519531 27.890625 Z M 11.519531 27.890625 "/>
<path style=" stroke:none;fill-rule:nonzero;fill:rgb(54.901961%,55.686275%,56.470588%);fill-opacity:1;" d="M 2.769531 16.269531 C 2.855469 16.085938 2.824219 15.84375 3.046875 15.738281 C 3.085938 15.886719 3.21875 15.792969 3.300781 15.832031 C 3.304688 16.171875 3.339844 16.515625 3.246094 16.855469 C 3.011719 16.722656 2.835938 16.539062 2.769531 16.269531 Z M 2.769531 16.269531 "/>
<path style=" stroke:none;fill-rule:nonzero;fill:rgb(72.54902%,73.333333%,74.117647%);fill-opacity:1;" d="M 7.070312 15.832031 C 7.3125 15.832031 7.554688 15.832031 7.796875 15.832031 C 7.90625 16.011719 7.898438 16.195312 7.808594 16.378906 C 7.558594 16.476562 7.3125 16.472656 7.066406 16.382812 C 6.96875 16.199219 6.960938 16.011719 7.070312 15.832031 Z M 7.070312 15.832031 "/>
<path style=" stroke:none;fill-rule:nonzero;fill:rgb(72.54902%,73.333333%,74.117647%);fill-opacity:1;" d="M 7.941406 11.738281 C 8.1875 11.640625 8.453125 11.601562 8.714844 11.558594 C 8.667969 11.714844 8.703125 11.878906 8.671875 12.039062 C 8.414062 12.117188 8.152344 12.195312 7.894531 12.273438 C 7.8125 12.085938 7.789062 11.90625 7.941406 11.738281 Z M 7.941406 11.738281 "/>
<path style=" stroke:none;fill-rule:nonzero;fill:rgb(47.843137%,48.627451%,49.411765%);fill-opacity:1;" d="M 1.644531 16.410156 C 1.726562 16.464844 1.703125 16.554688 1.703125 16.628906 C 1.707031 16.929688 1.703125 17.226562 1.703125 17.523438 C 1.703125 17.636719 1.703125 17.75 1.804688 17.828125 C 1.84375 18.074219 1.738281 18.261719 1.5625 18.421875 C 1.472656 17.957031 1.523438 17.488281 1.507812 17.019531 C 1.507812 16.941406 1.550781 16.832031 1.417969 16.804688 C 1.46875 16.660156 1.546875 16.527344 1.644531 16.410156 Z M 1.644531 16.410156 "/>
<path style=" stroke:none;fill-rule:nonzero;fill:rgb(51.372549%,51.764706%,52.941176%);fill-opacity:1;" d="M 2.582031 27.632812 C 2.574219 27.753906 2.609375 27.847656 2.664062 27.964844 C 2.773438 28.199219 2.753906 28.46875 2.667969 28.726562 C 2.503906 28.5625 2.359375 28.382812 2.230469 28.191406 C 2.28125 28.011719 2.253906 27.824219 2.265625 27.640625 C 2.269531 27.53125 2.253906 27.414062 2.339844 27.324219 C 2.558594 27.320312 2.589844 27.460938 2.582031 27.632812 Z M 2.582031 27.632812 "/>
<path style=" stroke:none;fill-rule:nonzero;fill:rgb(51.764706%,52.156863%,53.333333%);fill-opacity:1;" d="M 11.277344 26.285156 C 11.277344 26.820312 11.277344 27.355469 11.277344 27.890625 C 11.191406 27.933594 11.101562 27.9375 11.015625 27.886719 C 10.902344 27.582031 10.972656 27.265625 10.964844 26.953125 C 10.957031 26.78125 10.917969 26.59375 11.035156 26.4375 C 11.117188 26.386719 11.195312 26.335938 11.277344 26.285156 Z M 11.277344 26.285156 "/>
<path style=" stroke:none;fill-rule:nonzero;fill:rgb(56.078431%,56.078431%,56.862745%);fill-opacity:1;" d="M 11.039062 27.894531 C 11.117188 27.894531 11.199219 27.894531 11.277344 27.890625 C 11.359375 27.890625 11.441406 27.890625 11.519531 27.890625 C 11.601562 27.894531 11.683594 27.894531 11.761719 27.898438 C 11.632812 27.988281 11.488281 27.933594 11.351562 27.9375 C 10.976562 27.945312 10.605469 27.9375 10.230469 27.9375 C 10.328125 27.46875 10.355469 26.992188 10.390625 26.515625 C 10.398438 26.640625 10.488281 26.589844 10.554688 26.59375 C 10.554688 26.933594 10.566406 27.273438 10.546875 27.609375 C 10.535156 27.847656 10.609375 27.941406 10.84375 27.894531 C 10.910156 27.84375 10.972656 27.84375 11.039062 27.894531 Z M 11.039062 27.894531 "/>
<path style=" stroke:none;fill-rule:nonzero;fill:rgb(49.803922%,50.588235%,51.764706%);fill-opacity:1;" d="M 2.378906 27.320312 C 2.285156 27.535156 2.355469 27.765625 2.332031 27.984375 C 2.324219 28.066406 2.363281 28.171875 2.230469 28.191406 C 2.132812 28.0625 2.039062 27.929688 1.941406 27.800781 C 2.082031 27.664062 2.042969 27.484375 2.027344 27.328125 C 2.011719 27.121094 2.011719 26.917969 2.050781 26.714844 C 2.253906 26.867188 2.363281 27.070312 2.378906 27.320312 Z M 2.378906 27.320312 "/>
<path style=" stroke:none;fill-rule:nonzero;fill:rgb(60%,60.784314%,61.568627%);fill-opacity:1;" d="M 4.652344 14.070312 C 4.558594 13.871094 4.640625 13.65625 4.605469 13.453125 C 4.597656 13.398438 4.609375 13.339844 4.554688 13.300781 C 4.667969 13.199219 4.792969 13.113281 4.929688 13.050781 C 5.007812 13.035156 5.035156 13.089844 5.039062 13.144531 C 5.0625 13.355469 5.105469 13.566406 5.039062 13.777344 C 4.910156 13.875 4.78125 13.972656 4.652344 14.070312 Z M 4.652344 14.070312 "/>
<path style=" stroke:none;fill-rule:nonzero;fill:rgb(54.509804%,55.294118%,56.078431%);fill-opacity:1;" d="M 3.058594 29.164062 C 3.171875 29.109375 3.152344 29.007812 3.15625 28.910156 C 3.164062 28.769531 3.125 28.621094 3.199219 28.484375 C 3.3125 28.617188 3.425781 28.753906 3.539062 28.886719 C 3.582031 29.03125 3.59375 29.179688 3.601562 29.328125 C 3.605469 29.421875 3.59375 29.519531 3.488281 29.566406 C 3.316406 29.460938 3.1875 29.308594 3.058594 29.164062 Z M 3.058594 29.164062 "/>
<path style=" stroke:none;fill-rule:nonzero;fill:rgb(55.686275%,56.470588%,57.647059%);fill-opacity:1;" d="M 3.488281 29.566406 C 3.554688 29.445312 3.570312 29.3125 3.523438 29.191406 C 3.480469 29.078125 3.515625 28.988281 3.539062 28.886719 C 3.699219 29.035156 3.851562 29.183594 3.976562 29.359375 C 4.019531 29.484375 4.003906 29.613281 3.992188 29.738281 C 3.984375 29.8125 3.984375 29.90625 3.867188 29.902344 C 3.710938 29.820312 3.601562 29.691406 3.488281 29.566406 Z M 3.488281 29.566406 "/>
<path style=" stroke:none;fill-rule:nonzero;fill:rgb(66.27451%,67.058824%,68.235294%);fill-opacity:1;" d="M 5.621094 15.832031 C 5.796875 15.832031 5.976562 15.832031 6.152344 15.832031 C 6.261719 16.011719 6.253906 16.191406 6.164062 16.375 C 5.980469 16.472656 5.796875 16.46875 5.613281 16.378906 C 5.519531 16.195312 5.511719 16.011719 5.621094 15.832031 Z M 5.621094 15.832031 "/>
<path style=" stroke:none;fill-rule:nonzero;fill:rgb(63.921569%,64.705882%,65.882353%);fill-opacity:1;" d="M 6.054688 13.105469 C 5.949219 13.179688 5.84375 13.261719 5.714844 13.292969 C 5.601562 13.246094 5.605469 13.144531 5.605469 13.050781 C 5.605469 12.921875 5.589844 12.792969 5.570312 12.667969 C 5.71875 12.5625 5.878906 12.476562 6.054688 12.421875 C 6.175781 12.648438 6.160156 12.878906 6.054688 13.105469 Z M 6.054688 13.105469 "/>
<path style=" stroke:none;fill-rule:nonzero;fill:rgb(70.196078%,70.980392%,71.764706%);fill-opacity:1;" d="M 8.671875 12.039062 C 8.644531 11.875 8.539062 11.703125 8.714844 11.558594 C 8.875 11.523438 9.03125 11.484375 9.199219 11.5 C 9.292969 11.613281 9.25 11.78125 9.351562 11.894531 C 9.128906 11.972656 8.902344 12.007812 8.671875 12.039062 Z M 8.671875 12.039062 "/>
<path style=" stroke:none;fill-rule:nonzero;fill:rgb(61.176471%,61.960784%,63.137255%);fill-opacity:1;" d="M 5.039062 13.777344 C 4.976562 13.617188 4.996094 13.453125 4.992188 13.289062 C 4.988281 13.207031 5.019531 13.113281 4.933594 13.050781 C 5.015625 12.960938 5.125 12.914062 5.230469 12.863281 C 5.308594 12.816406 5.359375 12.863281 5.371094 12.929688 C 5.410156 13.128906 5.484375 13.332031 5.378906 13.535156 C 5.265625 13.617188 5.152344 13.695312 5.039062 13.777344 Z M 5.039062 13.777344 "/>
<path style=" stroke:none;fill-rule:nonzero;fill:rgb(52.54902%,53.333333%,54.509804%);fill-opacity:1;" d="M 11.039062 27.894531 C 10.972656 27.894531 10.910156 27.894531 10.84375 27.894531 C 10.84375 27.511719 10.84375 27.132812 10.84375 26.75 C 10.84375 26.660156 10.839844 26.574219 10.890625 26.492188 C 10.9375 26.476562 10.988281 26.457031 11.035156 26.4375 C 11.035156 26.921875 11.039062 27.40625 11.039062 27.894531 Z M 11.039062 27.894531 "/>
<path style=" stroke:none;fill-rule:nonzero;fill:rgb(68.235294%,69.019608%,69.803922%);fill-opacity:1;" d="M 9.351562 11.894531 C 9.066406 11.851562 9.253906 11.628906 9.199219 11.5 C 9.484375 11.4375 9.773438 11.402344 10.066406 11.410156 C 10.074219 11.4375 10.0625 11.457031 10.042969 11.472656 C 9.980469 11.535156 9.828125 11.46875 9.824219 11.613281 C 9.824219 11.734375 9.972656 11.71875 10.027344 11.796875 C 9.804688 11.859375 9.578125 11.882812 9.351562 11.894531 Z M 9.351562 11.894531 "/>
<path style=" stroke:none;fill-rule:nonzero;fill:rgb(65.490196%,66.27451%,67.45098%);fill-opacity:1;" d="M 6.054688 13.105469 C 6.054688 12.878906 6.054688 12.648438 6.054688 12.421875 C 6.148438 12.335938 6.273438 12.316406 6.386719 12.273438 C 6.585938 12.347656 6.496094 12.523438 6.511719 12.65625 C 6.523438 12.742188 6.496094 12.828125 6.441406 12.898438 C 6.3125 12.96875 6.183594 13.035156 6.054688 13.105469 Z M 6.054688 13.105469 "/>
<path style=" stroke:none;fill-rule:nonzero;fill:rgb(68.627451%,69.411765%,70.196078%);fill-opacity:1;" d="M 6.152344 16.363281 C 6.152344 16.1875 6.152344 16.007812 6.152344 15.832031 C 6.3125 15.832031 6.476562 15.832031 6.636719 15.832031 C 6.746094 16.011719 6.734375 16.191406 6.648438 16.375 C 6.480469 16.460938 6.316406 16.476562 6.152344 16.363281 Z M 6.152344 16.363281 "/>
<path style=" stroke:none;fill-rule:nonzero;fill:rgb(68.627451%,69.411765%,70.588235%);fill-opacity:1;" d="M 7.214844 12.515625 C 7.085938 12.578125 6.957031 12.644531 6.828125 12.707031 C 6.660156 12.539062 6.753906 12.324219 6.726562 12.128906 C 6.851562 12.066406 6.972656 11.996094 7.117188 11.988281 C 7.308594 12.109375 7.339844 12.265625 7.214844 12.515625 Z M 7.214844 12.515625 "/>
<path style=" stroke:none;fill-rule:nonzero;fill:rgb(47.843137%,48.627451%,49.411765%);fill-opacity:1;" d="M 11.800781 27.753906 C 11.640625 27.761719 11.683594 27.605469 11.6875 27.554688 C 11.722656 27.121094 11.722656 26.691406 11.679688 26.253906 C 11.667969 26.113281 11.6875 25.957031 11.664062 25.808594 C 11.691406 25.757812 11.71875 25.703125 11.742188 25.652344 C 11.839844 25.710938 11.808594 25.808594 11.808594 25.890625 C 11.8125 26.214844 11.808594 26.535156 11.808594 26.859375 C 11.808594 26.953125 11.789062 27.058594 11.898438 27.117188 C 11.863281 27.328125 11.832031 27.539062 11.800781 27.753906 Z M 11.800781 27.753906 "/>
<path style=" stroke:none;fill-rule:nonzero;fill:rgb(58.431373%,59.215686%,60.392157%);fill-opacity:1;" d="M 4.175781 29.535156 C 4.363281 29.640625 4.476562 29.828125 4.648438 29.949219 C 4.65625 30.117188 4.765625 30.308594 4.550781 30.429688 C 4.402344 30.359375 4.273438 30.261719 4.160156 30.140625 C 4.121094 29.9375 4.113281 29.738281 4.175781 29.535156 Z M 4.175781 29.535156 "/>
<path style=" stroke:none;fill-rule:nonzero;fill:rgb(52.156863%,52.941176%,53.72549%);fill-opacity:1;" d="M 13.507812 11.886719 C 14.179688 12.007812 14.777344 12.300781 15.363281 12.636719 C 14.734375 12.402344 14.109375 12.171875 13.453125 12.027344 C 13.421875 11.960938 13.386719 11.894531 13.507812 11.886719 Z M 13.507812 11.886719 "/>
<path style=" stroke:none;fill-rule:nonzero;fill:rgb(62.352941%,63.137255%,64.313725%);fill-opacity:1;" d="M 5.378906 13.535156 C 5.363281 13.363281 5.34375 13.191406 5.332031 13.019531 C 5.324219 12.945312 5.332031 12.875 5.230469 12.863281 C 5.332031 12.78125 5.445312 12.710938 5.570312 12.667969 C 5.703125 12.6875 5.660156 12.792969 5.667969 12.875 C 5.679688 13.015625 5.636719 13.160156 5.714844 13.292969 C 5.613281 13.386719 5.503906 13.472656 5.378906 13.535156 Z M 5.378906 13.535156 "/>
<path style=" stroke:none;fill-rule:nonzero;fill:rgb(56.862745%,57.647059%,58.823529%);fill-opacity:1;" d="M 4.109375 13.636719 C 4.234375 13.820312 4.144531 14.023438 4.167969 14.21875 C 4.179688 14.3125 4.167969 14.410156 4.167969 14.507812 C 4.089844 14.582031 4.011719 14.65625 3.933594 14.726562 C 3.933594 14.523438 3.929688 14.316406 3.929688 14.113281 C 3.929688 14.011719 3.925781 13.921875 3.816406 13.875 C 3.902344 13.78125 3.988281 13.6875 4.109375 13.636719 Z M 4.109375 13.636719 "/>
<path style=" stroke:none;fill-rule:nonzero;fill:rgb(67.058824%,67.843137%,69.019608%);fill-opacity:1;" d="M 6.726562 12.128906 C 6.863281 12.304688 6.734375 12.523438 6.828125 12.707031 C 6.699219 12.769531 6.570312 12.835938 6.441406 12.898438 C 6.417969 12.691406 6.503906 12.472656 6.386719 12.273438 C 6.488281 12.191406 6.609375 12.160156 6.726562 12.128906 Z M 6.726562 12.128906 "/>
<path style=" stroke:none;fill-rule:nonzero;fill:rgb(70.588235%,71.372549%,72.54902%);fill-opacity:1;" d="M 6.636719 16.363281 C 6.636719 16.1875 6.636719 16.007812 6.636719 15.832031 C 6.78125 15.832031 6.925781 15.832031 7.070312 15.832031 C 7.070312 16.007812 7.070312 16.1875 7.070312 16.363281 C 6.925781 16.46875 6.78125 16.46875 6.636719 16.363281 Z M 6.636719 16.363281 "/>
<path style=" stroke:none;fill-rule:nonzero;fill:rgb(63.921569%,64.705882%,65.882353%);fill-opacity:1;" d="M 8.765625 15.832031 C 8.910156 15.832031 9.054688 15.832031 9.199219 15.832031 C 9.269531 16.027344 9.292969 16.222656 9.160156 16.40625 C 9.019531 16.445312 8.875 16.464844 8.742188 16.367188 C 8.667969 16.183594 8.65625 16.003906 8.765625 15.832031 Z M 8.765625 15.832031 "/>
<path style=" stroke:none;fill-rule:nonzero;fill:rgb(70.196078%,70.980392%,71.764706%);fill-opacity:1;" d="M 7.214844 12.515625 C 7.214844 12.335938 7.261719 12.144531 7.117188 11.988281 C 7.25 11.894531 7.40625 11.882812 7.554688 11.84375 C 7.671875 12.011719 7.714844 12.183594 7.601562 12.375 C 7.480469 12.441406 7.355469 12.503906 7.214844 12.515625 Z M 7.214844 12.515625 "/>
<path style=" stroke:none;fill-rule:nonzero;fill:rgb(61.568627%,62.352941%,63.529412%);fill-opacity:1;" d="M 9.199219 16.363281 C 9.152344 16.1875 9.203125 16.007812 9.199219 15.832031 C 9.328125 15.832031 9.457031 15.832031 9.585938 15.832031 C 9.695312 16.007812 9.683594 16.191406 9.601562 16.375 C 9.464844 16.457031 9.328125 16.46875 9.199219 16.363281 Z M 9.199219 16.363281 "/>
<path style=" stroke:none;fill-rule:nonzero;fill:rgb(64.313725%,65.098039%,65.882353%);fill-opacity:1;" d="M 5.621094 15.832031 C 5.621094 16.007812 5.621094 16.1875 5.621094 16.363281 C 5.492188 16.46875 5.355469 16.453125 5.222656 16.375 C 5.132812 16.191406 5.125 16.011719 5.234375 15.832031 C 5.363281 15.832031 5.492188 15.832031 5.621094 15.832031 Z M 5.621094 15.832031 "/>
<path style=" stroke:none;fill-rule:nonzero;fill:rgb(63.921569%,65.098039%,65.882353%);fill-opacity:1;" d="M 10.214844 11.410156 C 10.40625 11.410156 10.601562 11.410156 10.796875 11.410156 C 10.882812 11.523438 10.875 11.636719 10.792969 11.746094 L 10.773438 11.75 L 10.753906 11.746094 C 10.609375 11.800781 10.457031 11.738281 10.3125 11.785156 C 10.28125 11.785156 10.246094 11.785156 10.214844 11.785156 C 10.125 11.660156 10.125 11.535156 10.214844 11.410156 Z M 10.214844 11.410156 "/>
<path style=" stroke:none;fill-rule:nonzero;fill:rgb(61.176471%,61.960784%,63.137255%);fill-opacity:1;" d="M 4.558594 16.363281 C 4.445312 16.195312 4.5625 16.003906 4.507812 15.832031 C 4.636719 15.832031 4.765625 15.832031 4.894531 15.832031 C 5.003906 16.007812 4.992188 16.191406 4.910156 16.375 C 4.789062 16.449219 4.671875 16.460938 4.558594 16.363281 Z M 4.558594 16.363281 "/>
<path style=" stroke:none;fill-rule:nonzero;fill:rgb(61.176471%,61.960784%,62.745098%);fill-opacity:1;" d="M 4.992188 30.238281 C 5.160156 30.277344 5.242188 30.4375 5.378906 30.523438 C 5.433594 30.773438 5.40625 30.835938 5.226562 30.867188 C 5.082031 30.8125 4.953125 30.730469 4.835938 30.625 C 4.898438 30.5 4.835938 30.324219 4.992188 30.238281 Z M 4.992188 30.238281 "/>
<path style=" stroke:none;fill-rule:nonzero;fill:rgb(59.607843%,60.392157%,61.568627%);fill-opacity:1;" d="M 4.992188 30.238281 C 4.875 30.339844 5.050781 30.5625 4.835938 30.625 C 4.726562 30.582031 4.632812 30.519531 4.550781 30.429688 C 4.675781 30.289062 4.546875 30.09375 4.652344 29.949219 C 4.78125 30.023438 4.886719 30.128906 4.992188 30.238281 Z M 4.992188 30.238281 "/>
<path style=" stroke:none;fill-rule:nonzero;fill:rgb(70.196078%,70.980392%,71.764706%);fill-opacity:1;" d="M 7.796875 16.363281 C 7.796875 16.1875 7.796875 16.007812 7.796875 15.832031 C 7.925781 15.832031 8.054688 15.832031 8.183594 15.832031 C 8.222656 16.027344 8.261719 16.222656 8.117188 16.398438 C 8.003906 16.441406 7.894531 16.457031 7.796875 16.363281 Z M 7.796875 16.363281 "/>
<path style=" stroke:none;fill-rule:nonzero;fill:rgb(59.607843%,60.392157%,61.568627%);fill-opacity:1;" d="M 11.375 11.449219 C 11.648438 11.503906 11.929688 11.464844 12.199219 11.546875 C 12.101562 11.609375 12.007812 11.675781 11.957031 11.785156 C 11.761719 11.769531 11.570312 11.757812 11.375 11.742188 C 11.296875 11.644531 11.300781 11.546875 11.375 11.449219 Z M 11.375 11.449219 "/>
<path style=" stroke:none;fill-rule:nonzero;fill:rgb(62.745098%,63.529412%,64.705882%);fill-opacity:1;" d="M 4.894531 16.363281 C 4.894531 16.1875 4.894531 16.007812 4.894531 15.832031 C 5.007812 15.832031 5.121094 15.832031 5.234375 15.832031 C 5.234375 16.007812 5.234375 16.1875 5.234375 16.363281 C 5.121094 16.457031 5.007812 16.457031 4.894531 16.363281 Z M 4.894531 16.363281 "/>
<path style=" stroke:none;fill-rule:nonzero;fill:rgb(71.764706%,72.54902%,73.333333%);fill-opacity:1;" d="M 7.601562 12.375 C 7.632812 12.191406 7.554688 12.019531 7.554688 11.84375 C 7.683594 11.808594 7.8125 11.773438 7.941406 11.738281 C 7.867188 11.914062 7.917969 12.097656 7.894531 12.273438 C 7.796875 12.308594 7.699219 12.339844 7.601562 12.375 Z M 7.601562 12.375 "/>
<path style=" stroke:none;fill-rule:nonzero;fill:rgb(62.745098%,63.529412%,64.313725%);fill-opacity:1;" d="M 5.226562 30.867188 C 5.40625 30.8125 5.304688 30.628906 5.378906 30.523438 C 5.539062 30.554688 5.644531 30.675781 5.765625 30.773438 C 5.78125 30.902344 5.84375 31.042969 5.664062 31.113281 C 5.5 31.0625 5.359375 30.972656 5.226562 30.867188 Z M 5.226562 30.867188 "/>
<path style=" stroke:none;fill-rule:nonzero;fill:rgb(67.843137%,68.627451%,69.803922%);fill-opacity:1;" d="M 8.136719 16.363281 C 8.171875 16.1875 8.105469 16.003906 8.183594 15.832031 C 8.28125 15.832031 8.378906 15.832031 8.472656 15.832031 C 8.5625 16.019531 8.605469 16.207031 8.46875 16.394531 C 8.351562 16.441406 8.238281 16.457031 8.136719 16.363281 Z M 8.136719 16.363281 "/>
<path style=" stroke:none;fill-rule:nonzero;fill:rgb(61.960784%,62.745098%,63.529412%);fill-opacity:1;" d="M 11.375 11.449219 C 11.375 11.546875 11.375 11.644531 11.375 11.742188 C 11.179688 11.746094 10.988281 11.746094 10.792969 11.746094 C 10.792969 11.636719 10.792969 11.523438 10.792969 11.414062 C 10.84375 11.414062 10.890625 11.414062 10.941406 11.414062 C 11.070312 11.460938 11.207031 11.398438 11.335938 11.449219 C 11.351562 11.441406 11.363281 11.445312 11.375 11.449219 Z M 11.375 11.449219 "/>
<path style=" stroke:none;fill-rule:nonzero;fill:rgb(56.862745%,58.039216%,58.823529%);fill-opacity:1;" d="M 4.175781 29.535156 C 4.230469 29.738281 4.210938 29.941406 4.160156 30.140625 C 4.046875 30.082031 3.949219 30 3.863281 29.902344 C 4.011719 29.742188 3.859375 29.523438 3.976562 29.359375 C 4.066406 29.390625 4.117188 29.46875 4.175781 29.535156 Z M 4.175781 29.535156 "/>
<path style=" stroke:none;fill-rule:nonzero;fill:rgb(64.313725%,65.098039%,65.882353%);fill-opacity:1;" d="M 5.664062 31.113281 C 5.769531 31.019531 5.675781 30.871094 5.765625 30.773438 C 5.90625 30.789062 5.992188 30.898438 6.105469 30.96875 C 6.257812 31.152344 6.246094 31.222656 6.046875 31.308594 C 5.90625 31.265625 5.777344 31.203125 5.664062 31.113281 Z M 5.664062 31.113281 "/>
<path style=" stroke:none;fill-rule:nonzero;fill:rgb(65.882353%,66.666667%,67.843137%);fill-opacity:1;" d="M 10.214844 11.410156 C 10.214844 11.535156 10.214844 11.660156 10.214844 11.785156 C 10.152344 11.789062 10.089844 11.792969 10.027344 11.796875 C 9.957031 11.789062 9.871094 11.804688 9.820312 11.765625 C 9.75 11.714844 9.726562 11.617188 9.738281 11.53125 C 9.753906 11.429688 9.847656 11.460938 9.914062 11.453125 C 9.96875 11.449219 10.023438 11.460938 10.066406 11.410156 C 10.117188 11.410156 10.164062 11.410156 10.214844 11.410156 Z M 10.214844 11.410156 "/>
<path style=" stroke:none;fill-rule:nonzero;fill:rgb(69.019608%,69.803922%,70.980392%);fill-opacity:1;" d="M 7.40625 31.839844 C 7.199219 31.8125 7.007812 31.742188 6.828125 31.644531 C 6.824219 31.546875 6.859375 31.464844 6.925781 31.394531 C 7.128906 31.398438 7.261719 31.582031 7.457031 31.597656 C 7.511719 31.695312 7.558594 31.789062 7.40625 31.839844 Z M 7.40625 31.839844 "/>
<path style=" stroke:none;fill-rule:nonzero;fill:rgb(60%,60%,61.176471%);fill-opacity:1;" d="M 9.585938 16.363281 C 9.585938 16.1875 9.585938 16.007812 9.585938 15.832031 C 9.695312 15.828125 9.808594 15.824219 9.917969 15.824219 C 9.894531 16.007812 9.886719 16.195312 9.828125 16.375 C 9.746094 16.429688 9.664062 16.4375 9.585938 16.363281 Z M 9.585938 16.363281 "/>
<path style=" stroke:none;fill-rule:nonzero;fill:rgb(57.647059%,58.039216%,59.215686%);fill-opacity:1;" d="M 11.957031 11.785156 C 11.917969 11.582031 12.023438 11.527344 12.199219 11.546875 C 12.351562 11.625 12.535156 11.550781 12.683594 11.644531 C 12.664062 11.71875 12.640625 11.789062 12.582031 11.839844 C 12.375 11.824219 12.164062 11.804688 11.957031 11.785156 Z M 11.957031 11.785156 "/>
<path style=" stroke:none;fill-rule:nonzero;fill:rgb(66.27451%,67.058824%,68.235294%);fill-opacity:1;" d="M 8.472656 16.363281 C 8.472656 16.1875 8.472656 16.007812 8.472656 15.832031 C 8.570312 15.832031 8.667969 15.832031 8.765625 15.832031 C 8.765625 16.007812 8.765625 16.1875 8.765625 16.363281 C 8.667969 16.445312 8.570312 16.445312 8.472656 16.363281 Z M 8.472656 16.363281 "/>
<path style=" stroke:none;fill-rule:nonzero;fill:rgb(65.882353%,66.666667%,67.843137%);fill-opacity:1;" d="M 6.046875 31.308594 C 6.203125 31.21875 6.164062 31.09375 6.105469 30.96875 C 6.277344 30.996094 6.386719 31.144531 6.539062 31.210938 C 6.601562 31.324219 6.566406 31.417969 6.488281 31.507812 C 6.320312 31.488281 6.183594 31.398438 6.046875 31.308594 Z M 6.046875 31.308594 "/>
<path style=" stroke:none;fill-rule:nonzero;fill:rgb(68.235294%,69.019608%,69.803922%);fill-opacity:1;" d="M 9.054688 32.082031 C 9.445312 32.15625 9.832031 32.238281 10.230469 32.230469 C 10.324219 32.230469 10.425781 32.210938 10.511719 32.273438 C 10.40625 32.339844 10.277344 32.261719 10.167969 32.320312 C 10.054688 32.320312 9.941406 32.320312 9.824219 32.316406 C 9.734375 32.269531 9.625 32.332031 9.53125 32.277344 C 9.371094 32.273438 9.207031 32.292969 9.054688 32.222656 C 9.015625 32.175781 9.015625 32.128906 9.054688 32.082031 Z M 9.054688 32.082031 "/>
<path style=" stroke:none;fill-rule:nonzero;fill:rgb(67.058824%,67.843137%,69.019608%);fill-opacity:1;" d="M 6.488281 31.507812 C 6.503906 31.40625 6.523438 31.308594 6.539062 31.210938 C 6.699219 31.210938 6.789062 31.351562 6.925781 31.394531 C 6.929688 31.492188 6.90625 31.578125 6.828125 31.644531 C 6.707031 31.621094 6.589844 31.582031 6.488281 31.507812 Z M 6.488281 31.507812 "/>
<path style=" stroke:none;fill-rule:nonzero;fill:rgb(70.980392%,71.764706%,72.941176%);fill-opacity:1;" d="M 7.40625 31.839844 C 7.488281 31.777344 7.449219 31.683594 7.457031 31.597656 C 7.585938 31.648438 7.714844 31.695312 7.84375 31.742188 C 7.996094 31.875 8 31.90625 7.890625 31.984375 C 7.722656 31.960938 7.554688 31.929688 7.40625 31.839844 Z M 7.40625 31.839844 "/>
<path style=" stroke:none;fill-rule:nonzero;fill:rgb(73.333333%,74.117647%,74.901961%);fill-opacity:1;" d="M 7.890625 31.984375 C 7.988281 31.882812 7.855469 31.824219 7.84375 31.742188 C 8.042969 31.800781 8.246094 31.835938 8.429688 31.929688 C 8.433594 31.996094 8.457031 32.058594 8.425781 32.121094 C 8.246094 32.078125 8.058594 32.066406 7.890625 31.984375 Z M 7.890625 31.984375 "/>
<path style=" stroke:none;fill-rule:nonzero;fill:rgb(55.294118%,56.078431%,56.862745%);fill-opacity:1;" d="M 12.582031 11.839844 C 12.589844 11.761719 12.554688 11.660156 12.683594 11.644531 C 12.796875 11.683594 12.921875 11.667969 13.019531 11.753906 C 13.070312 11.8125 13.070312 11.871094 13.019531 11.929688 C 12.875 11.894531 12.71875 11.917969 12.582031 11.839844 Z M 12.582031 11.839844 "/>
<path style=" stroke:none;fill-rule:nonzero;fill:rgb(54.117647%,54.901961%,56.078431%);fill-opacity:1;" d="M 13.019531 11.929688 C 13.019531 11.871094 13.019531 11.8125 13.019531 11.753906 C 13.195312 11.75 13.359375 11.796875 13.507812 11.886719 C 13.449219 11.917969 13.453125 11.976562 13.453125 12.027344 C 13.308594 11.996094 13.164062 11.964844 13.019531 11.929688 Z M 13.019531 11.929688 "/>
<path style=" stroke:none;fill-rule:nonzero;fill:rgb(70.980392%,71.764706%,72.54902%);fill-opacity:1;" d="M 9.054688 32.082031 C 9.054688 32.128906 9.054688 32.175781 9.054688 32.222656 C 8.917969 32.253906 8.796875 32.191406 8.667969 32.171875 C 8.632812 32.105469 8.601562 32.039062 8.71875 32.03125 C 8.832031 32.046875 8.941406 32.066406 9.054688 32.082031 Z M 9.054688 32.082031 "/>
<path style=" stroke:none;fill-rule:nonzero;fill:rgb(71.372549%,72.156863%,72.941176%);fill-opacity:1;" d="M 8.71875 32.03125 C 8.660156 32.0625 8.667969 32.117188 8.667969 32.171875 C 8.585938 32.15625 8.503906 32.140625 8.421875 32.121094 C 8.394531 32.058594 8.339844 31.992188 8.429688 31.929688 C 8.523438 31.972656 8.636719 31.960938 8.71875 32.03125 Z M 8.71875 32.03125 "/>
<path style=" stroke:none;fill-rule:nonzero;fill:rgb(62.745098%,63.529412%,64.313725%);fill-opacity:1;" d="M 10.167969 32.320312 C 10.273438 32.230469 10.398438 32.300781 10.511719 32.269531 C 10.738281 32.269531 10.964844 32.269531 11.191406 32.269531 C 11.191406 32.289062 11.191406 32.304688 11.191406 32.320312 C 10.851562 32.320312 10.507812 32.320312 10.167969 32.320312 Z M 10.167969 32.320312 "/>
<path style=" stroke:none;fill-rule:nonzero;fill:rgb(65.882353%,66.666667%,67.843137%);fill-opacity:1;" d="M 10.3125 11.785156 C 10.453125 11.703125 10.605469 11.757812 10.753906 11.746094 C 10.613281 11.8125 10.460938 11.78125 10.3125 11.785156 Z M 10.3125 11.785156 "/>
<path style=" stroke:none;fill-rule:nonzero;fill:rgb(63.921569%,65.098039%,65.882353%);fill-opacity:1;" d="M 11.335938 11.449219 C 11.207031 11.4375 11.066406 11.492188 10.941406 11.410156 C 11.074219 11.410156 11.210938 11.386719 11.335938 11.449219 Z M 11.335938 11.449219 "/>
<path style=" stroke:none;fill-rule:nonzero;fill:rgb(70.980392%,71.764706%,72.54902%);fill-opacity:1;" d="M 9.53125 32.277344 C 9.632812 32.285156 9.738281 32.242188 9.824219 32.316406 C 9.726562 32.3125 9.625 32.34375 9.53125 32.277344 Z M 9.53125 32.277344 "/>
<path style=" stroke:none;fill-rule:nonzero;fill:rgb(92.156863%,92.156863%,92.54902%);fill-opacity:1;" d="M 11.785156 32.246094 C 11.714844 32.285156 11.664062 32.285156 11.609375 32.253906 C 11.65625 32.207031 11.707031 32.226562 11.785156 32.246094 Z M 11.785156 32.246094 "/>
<path style=" stroke:none;fill-rule:nonzero;fill:rgb(99.607843%,99.607843%,99.607843%);fill-opacity:1;" d="M 8.472656 16.363281 C 8.570312 16.363281 8.667969 16.363281 8.765625 16.363281 C 8.910156 16.363281 9.054688 16.363281 9.199219 16.363281 C 9.328125 16.363281 9.457031 16.363281 9.585938 16.363281 C 9.667969 16.367188 9.746094 16.371094 9.828125 16.375 C 9.769531 17.351562 9.710938 18.328125 9.65625 19.308594 C 9.5625 20.933594 9.476562 22.558594 9.382812 24.183594 C 9.335938 25.015625 9.289062 25.847656 9.238281 26.679688 C 9.21875 26.699219 9.195312 26.714844 9.167969 26.726562 C 9.015625 26.761719 8.855469 26.742188 8.699219 26.75 C 8.542969 26.734375 8.378906 26.789062 8.234375 26.6875 C 7.636719 26.6875 7.039062 26.6875 6.441406 26.6875 C 6.273438 26.796875 6.085938 26.730469 5.90625 26.75 C 5.621094 26.75 5.335938 26.746094 5.050781 26.753906 C 4.75 26.742188 4.445312 26.757812 4.144531 26.742188 C 4.039062 26.714844 3.984375 26.671875 4.074219 26.566406 C 4.109375 26.523438 4.140625 26.480469 4.175781 26.4375 C 4.335938 26.289062 4.414062 26.078125 4.570312 25.925781 C 4.71875 25.796875 4.820312 25.621094 4.957031 25.480469 C 5.132812 25.25 5.316406 25.03125 5.484375 24.796875 C 5.640625 24.628906 5.785156 24.453125 5.925781 24.269531 C 6.050781 24.128906 6.144531 23.972656 6.269531 23.832031 C 6.40625 23.675781 6.535156 23.511719 6.65625 23.347656 C 6.820312 23.179688 6.949219 22.988281 7.085938 22.800781 C 7.335938 22.554688 7.539062 22.265625 7.75 21.984375 C 7.851562 21.867188 7.949219 21.753906 8.050781 21.636719 C 8.398438 21.183594 8.398438 21.183594 8 20.777344 C 7.945312 20.652344 7.820312 20.585938 7.753906 20.472656 C 7.550781 20.183594 7.332031 19.914062 7.09375 19.65625 C 6.972656 19.488281 6.839844 19.328125 6.707031 19.167969 C 6.632812 19.0625 6.554688 18.960938 6.460938 18.871094 C 6.371094 18.738281 6.257812 18.621094 6.167969 18.488281 C 6.066406 18.378906 5.972656 18.265625 5.882812 18.148438 C 5.796875 18.054688 5.734375 17.941406 5.644531 17.851562 C 5.578125 17.769531 5.523438 17.679688 5.445312 17.609375 C 5.355469 17.519531 5.296875 17.402344 5.203125 17.316406 C 5.105469 17.199219 5.015625 17.078125 4.914062 16.964844 C 4.800781 16.796875 4.636719 16.664062 4.554688 16.46875 C 4.503906 16.433594 4.503906 16.398438 4.554688 16.363281 C 4.667969 16.363281 4.78125 16.363281 4.894531 16.363281 C 5.007812 16.363281 5.121094 16.363281 5.230469 16.363281 C 5.359375 16.363281 5.492188 16.363281 5.617188 16.363281 C 5.796875 16.363281 5.972656 16.363281 6.152344 16.363281 C 6.3125 16.363281 6.472656 16.363281 6.632812 16.363281 C 6.78125 16.363281 6.925781 16.363281 7.070312 16.367188 C 7.3125 16.367188 7.554688 16.367188 7.796875 16.363281 C 7.90625 16.363281 8.019531 16.363281 8.132812 16.363281 C 8.25 16.363281 8.359375 16.363281 8.472656 16.363281 Z M 8.472656 16.363281 "/>
<path style=" stroke:none;fill-rule:nonzero;fill:rgb(63.529412%,63.921569%,64.705882%);fill-opacity:1;" d="M 9.195312 26.6875 C 9.210938 26.683594 9.222656 26.679688 9.238281 26.679688 C 9.222656 27.085938 9.214844 27.492188 9.148438 27.898438 C 9.085938 27.894531 9.019531 27.894531 8.957031 27.894531 C 8.867188 27.792969 8.878906 27.671875 8.882812 27.550781 C 8.894531 27.289062 8.847656 27.027344 8.917969 26.765625 C 8.988281 26.652344 9.109375 26.738281 9.195312 26.6875 Z M 9.195312 26.6875 "/>
<path style=" stroke:none;fill-rule:nonzero;fill:rgb(99.607843%,99.607843%,99.607843%);fill-opacity:1;" d="M 2.378906 27.320312 C 2.269531 27.121094 2.160156 26.917969 2.050781 26.714844 C 1.917969 26.429688 1.789062 26.140625 1.65625 25.851562 C 1.53125 25.476562 1.402344 25.097656 1.277344 24.71875 C 1.195312 24.328125 1.113281 23.941406 1.035156 23.554688 C 0.945312 22.726562 0.890625 21.902344 0.976562 21.070312 C 1 20.871094 1.015625 20.671875 1.035156 20.46875 C 1.113281 20.09375 1.191406 19.714844 1.269531 19.335938 C 1.367188 19.03125 1.464844 18.726562 1.5625 18.417969 C 1.644531 18.222656 1.726562 18.023438 1.804688 17.828125 C 1.882812 17.664062 1.960938 17.5 2.042969 17.335938 C 2.160156 17.167969 2.246094 16.980469 2.332031 16.792969 C 2.464844 16.632812 2.570312 16.449219 2.671875 16.265625 C 2.703125 16.265625 2.738281 16.265625 2.769531 16.269531 C 2.910156 16.476562 3.074219 16.671875 3.246094 16.855469 C 3.378906 17.046875 3.515625 17.226562 3.683594 17.390625 C 3.75 17.496094 3.816406 17.605469 3.921875 17.683594 C 3.988281 17.789062 4.058594 17.894531 4.15625 17.976562 C 4.246094 18.085938 4.335938 18.199219 4.425781 18.3125 C 4.621094 18.421875 4.722656 18.625 4.871094 18.78125 C 4.941406 18.90625 5.054688 18.988281 5.132812 19.105469 C 5.222656 19.222656 5.316406 19.335938 5.40625 19.453125 C 5.480469 19.527344 5.546875 19.613281 5.609375 19.699219 C 5.691406 19.792969 5.78125 19.882812 5.851562 19.988281 C 5.953125 20.097656 6.027344 20.226562 6.132812 20.328125 C 6.222656 20.421875 6.28125 20.539062 6.375 20.625 C 6.453125 20.746094 6.550781 20.847656 6.636719 20.960938 C 6.78125 21.136719 6.933594 21.316406 7.074219 21.496094 C 7.351562 21.839844 7.351562 21.839844 7.066406 22.179688 C 6.917969 22.371094 6.757812 22.554688 6.617188 22.753906 C 6.46875 22.914062 6.335938 23.085938 6.199219 23.257812 C 6.082031 23.402344 5.972656 23.550781 5.851562 23.691406 C 5.710938 23.875 5.5625 24.050781 5.425781 24.234375 C 5.265625 24.445312 5.085938 24.640625 4.925781 24.855469 C 4.792969 25.011719 4.660156 25.175781 4.539062 25.339844 C 4.410156 25.5 4.269531 25.652344 4.148438 25.820312 C 4.027344 25.988281 3.886719 26.136719 3.765625 26.304688 C 3.644531 26.433594 3.546875 26.578125 3.433594 26.710938 C 3.320312 26.859375 3.203125 27.003906 3.085938 27.148438 C 2.933594 27.289062 2.855469 27.5 2.664062 27.601562 C 2.636719 27.613281 2.609375 27.625 2.582031 27.632812 C 2.53125 27.519531 2.476562 27.40625 2.378906 27.320312 Z M 2.378906 27.320312 "/>
<path style=" stroke:none;fill-rule:nonzero;fill:rgb(58.039216%,58.823529%,60%);fill-opacity:1;" d="M 3.730469 26.277344 C 3.832031 26.101562 3.972656 25.949219 4.113281 25.796875 C 4.25 25.804688 4.242188 25.921875 4.257812 26.003906 C 4.285156 26.152344 4.273438 26.304688 4.226562 26.449219 C 4.175781 26.527344 4.125 26.609375 4.074219 26.683594 C 4.109375 26.703125 4.144531 26.722656 4.160156 26.761719 C 4.191406 27.097656 4.164062 27.433594 4.179688 27.765625 C 4.183594 27.816406 4.15625 27.855469 4.121094 27.894531 C 4.007812 27.894531 3.894531 27.894531 3.785156 27.894531 C 3.746094 27.851562 3.71875 27.800781 3.722656 27.742188 C 3.726562 27.253906 3.679688 26.765625 3.730469 26.277344 Z M 3.730469 26.277344 "/>
<path style=" stroke:none;fill-rule:nonzero;fill:rgb(61.176471%,61.960784%,63.137255%);fill-opacity:1;" d="M 4.894531 27.894531 C 4.75 27.894531 4.605469 27.894531 4.460938 27.894531 C 4.335938 27.710938 4.394531 27.503906 4.390625 27.308594 C 4.386719 27.109375 4.367188 26.90625 4.457031 26.71875 C 4.96875 26.671875 4.972656 26.671875 4.96875 27.179688 C 4.964844 27.421875 5.003906 27.664062 4.894531 27.894531 Z M 4.894531 27.894531 "/>
<path style=" stroke:none;fill-rule:nonzero;fill:rgb(65.490196%,66.27451%,67.058824%);fill-opacity:1;" d="M 5.863281 27.894531 C 5.714844 27.894531 5.570312 27.894531 5.425781 27.894531 C 5.308594 27.628906 5.335938 26.914062 5.46875 26.71875 C 5.585938 26.695312 5.699219 26.699219 5.816406 26.71875 C 5.976562 27.105469 5.976562 27.496094 5.863281 27.894531 Z M 5.863281 27.894531 "/>
<path style=" stroke:none;fill-rule:nonzero;fill:rgb(56.862745%,57.647059%,58.823529%);fill-opacity:1;" d="M 3.730469 26.277344 C 3.785156 26.371094 3.785156 26.476562 3.785156 26.578125 C 3.78125 27.019531 3.785156 27.457031 3.78125 27.894531 C 3.6875 27.894531 3.589844 27.894531 3.492188 27.894531 C 3.410156 27.800781 3.421875 27.683594 3.421875 27.574219 C 3.417969 27.277344 3.429688 26.976562 3.398438 26.679688 C 3.5 26.539062 3.59375 26.394531 3.730469 26.277344 Z M 3.730469 26.277344 "/>
<path style=" stroke:none;fill-rule:nonzero;fill:rgb(59.607843%,60.392157%,61.568627%);fill-opacity:1;" d="M 4.460938 26.730469 C 4.460938 27.117188 4.460938 27.507812 4.460938 27.894531 C 4.347656 27.894531 4.234375 27.894531 4.121094 27.894531 C 4.117188 27.507812 4.082031 27.117188 4.121094 26.730469 C 4.234375 26.691406 4.347656 26.691406 4.460938 26.730469 Z M 4.460938 26.730469 "/>
<path style=" stroke:none;fill-rule:nonzero;fill:rgb(55.686275%,56.470588%,57.647059%);fill-opacity:1;" d="M 3.398438 26.683594 C 3.511719 26.734375 3.492188 26.839844 3.492188 26.933594 C 3.492188 27.253906 3.492188 27.574219 3.492188 27.894531 C 3.363281 27.894531 3.234375 27.894531 3.105469 27.894531 C 3.039062 27.785156 3.046875 27.660156 3.066406 27.542969 C 3.089844 27.398438 3.082031 27.257812 3.050781 27.113281 C 3.167969 26.96875 3.285156 26.828125 3.398438 26.683594 Z M 3.398438 26.683594 "/>
<path style=" stroke:none;fill-rule:nonzero;fill:rgb(68.235294%,69.019608%,69.803922%);fill-opacity:1;" d="M 6.492188 27.894531 C 6.378906 27.894531 6.265625 27.894531 6.152344 27.894531 C 6.070312 27.800781 6.070312 27.683594 6.078125 27.574219 C 6.09375 27.296875 6.023438 27.011719 6.132812 26.738281 C 6.234375 26.683594 6.339844 26.695312 6.441406 26.730469 C 6.460938 26.730469 6.476562 26.730469 6.492188 26.730469 C 6.613281 27.117188 6.617188 27.507812 6.492188 27.894531 Z M 6.492188 27.894531 "/>
<path style=" stroke:none;fill-rule:nonzero;fill:rgb(70.588235%,71.372549%,72.156863%);fill-opacity:1;" d="M 6.734375 26.730469 C 7.070312 26.730469 7.070312 26.730469 7.070312 27.0625 C 7.070312 27.230469 7.070312 27.398438 7.070312 27.566406 C 7.070312 27.898438 7.070312 27.898438 6.734375 27.894531 C 6.582031 27.625 6.683594 27.332031 6.660156 27.046875 C 6.648438 26.9375 6.652344 26.820312 6.734375 26.730469 Z M 6.734375 26.730469 "/>
<path style=" stroke:none;fill-rule:nonzero;fill:rgb(66.666667%,67.45098%,68.627451%);fill-opacity:1;" d="M 6.152344 26.730469 C 6.152344 27.117188 6.152344 27.507812 6.152344 27.894531 C 6.054688 27.894531 5.957031 27.894531 5.863281 27.894531 C 5.863281 27.503906 5.863281 27.117188 5.8125 26.730469 C 5.847656 26.699219 5.886719 26.707031 5.925781 26.707031 C 6 26.714844 6.082031 26.683594 6.152344 26.730469 Z M 6.152344 26.730469 "/>
<path style=" stroke:none;fill-rule:nonzero;fill:rgb(62.745098%,63.529412%,64.705882%);fill-opacity:1;" d="M 4.460938 26.730469 C 4.347656 26.730469 4.234375 26.730469 4.121094 26.730469 C 4.105469 26.714844 4.089844 26.699219 4.074219 26.6875 C 4.394531 26.6875 4.71875 26.6875 5.042969 26.6875 C 5.089844 26.710938 5.160156 26.707031 5.179688 26.773438 C 5.234375 27.078125 5.199219 27.386719 5.25 27.691406 C 5.261719 27.765625 5.238281 27.835938 5.183594 27.894531 C 5.089844 27.894531 4.992188 27.894531 4.894531 27.894531 C 4.894531 27.609375 4.878906 27.320312 4.898438 27.035156 C 4.914062 26.800781 4.855469 26.683594 4.601562 26.730469 C 4.558594 26.738281 4.507812 26.730469 4.460938 26.730469 Z M 4.460938 26.730469 "/>
<path style=" stroke:none;fill-rule:nonzero;fill:rgb(63.529412%,64.313725%,65.490196%);fill-opacity:1;" d="M 5.183594 27.894531 C 5.179688 27.503906 5.109375 27.121094 5.136719 26.730469 C 5.25 26.691406 5.363281 26.691406 5.476562 26.730469 C 5.371094 27.113281 5.464844 27.507812 5.425781 27.894531 C 5.347656 27.894531 5.265625 27.894531 5.183594 27.894531 Z M 5.183594 27.894531 "/>
<path style=" stroke:none;fill-rule:nonzero;fill:rgb(67.843137%,68.627451%,69.411765%);fill-opacity:1;" d="M 8.472656 27.894531 C 8.394531 27.894531 8.3125 27.894531 8.234375 27.894531 C 8.15625 27.8125 8.148438 27.703125 8.15625 27.601562 C 8.179688 27.308594 8.082031 27.007812 8.230469 26.730469 C 8.308594 26.6875 8.386719 26.707031 8.464844 26.714844 C 8.59375 26.871094 8.539062 27.066406 8.546875 27.242188 C 8.558594 27.460938 8.585938 27.6875 8.472656 27.894531 Z M 8.472656 27.894531 "/>
<path style=" stroke:none;fill-rule:nonzero;fill:rgb(64.705882%,65.490196%,66.666667%);fill-opacity:1;" d="M 8.957031 26.730469 C 8.957031 27.117188 8.957031 27.507812 8.957031 27.894531 C 8.878906 27.894531 8.796875 27.894531 8.714844 27.894531 C 8.617188 27.777344 8.644531 27.632812 8.644531 27.5 C 8.648438 27.265625 8.621094 27.027344 8.664062 26.796875 C 8.671875 26.765625 8.6875 26.742188 8.710938 26.722656 C 8.792969 26.703125 8.875 26.6875 8.957031 26.730469 Z M 8.957031 26.730469 "/>
<path style=" stroke:none;fill-rule:nonzero;fill:rgb(70.980392%,71.764706%,72.54902%);fill-opacity:1;" d="M 7.992188 27.894531 C 7.808594 27.921875 7.730469 27.863281 7.746094 27.660156 C 7.761719 27.429688 7.761719 27.195312 7.746094 26.964844 C 7.730469 26.765625 7.808594 26.703125 7.992188 26.730469 C 8.078125 26.828125 8.074219 26.953125 8.066406 27.070312 C 8.042969 27.347656 8.140625 27.632812 7.992188 27.894531 Z M 7.992188 27.894531 "/>
<path style=" stroke:none;fill-rule:nonzero;fill:rgb(69.411765%,70.196078%,70.980392%);fill-opacity:1;" d="M 7.992188 27.894531 C 7.992188 27.507812 7.992188 27.117188 7.992188 26.730469 C 8.070312 26.730469 8.152344 26.730469 8.230469 26.730469 C 8.230469 27.117188 8.230469 27.507812 8.234375 27.894531 C 8.152344 27.894531 8.070312 27.894531 7.992188 27.894531 Z M 7.992188 27.894531 "/>
<path style=" stroke:none;fill-rule:nonzero;fill:rgb(69.411765%,70.196078%,70.980392%);fill-opacity:1;" d="M 6.734375 26.730469 C 6.734375 27.117188 6.734375 27.507812 6.734375 27.894531 C 6.652344 27.894531 6.570312 27.894531 6.492188 27.894531 C 6.492188 27.507812 6.492188 27.117188 6.492188 26.730469 C 6.570312 26.730469 6.652344 26.730469 6.734375 26.730469 Z M 6.734375 26.730469 "/>
<path style=" stroke:none;fill-rule:nonzero;fill:rgb(66.27451%,67.058824%,68.235294%);fill-opacity:1;" d="M 8.714844 26.730469 C 8.714844 27.117188 8.714844 27.507812 8.714844 27.894531 C 8.636719 27.894531 8.554688 27.894531 8.472656 27.894531 C 8.472656 27.507812 8.472656 27.117188 8.472656 26.730469 C 8.554688 26.691406 8.636719 26.691406 8.714844 26.730469 Z M 8.714844 26.730469 "/>
<path style=" stroke:none;fill-rule:nonzero;fill:rgb(54.117647%,54.901961%,56.078431%);fill-opacity:1;" d="M 3.050781 27.113281 C 3.125 27.148438 3.160156 27.207031 3.15625 27.285156 C 3.140625 27.488281 3.121094 27.691406 3.105469 27.894531 C 3.007812 27.914062 2.898438 27.863281 2.808594 27.945312 C 2.71875 27.847656 2.835938 27.660156 2.664062 27.601562 C 2.78125 27.429688 2.902344 27.261719 3.050781 27.113281 Z M 3.050781 27.113281 "/>
<path style=" stroke:none;fill-rule:nonzero;fill:rgb(69.411765%,70.196078%,70.980392%);fill-opacity:1;" d="M 6.152344 26.730469 C 6.070312 26.730469 5.992188 26.730469 5.910156 26.730469 C 5.894531 26.71875 5.890625 26.710938 5.894531 26.703125 C 5.898438 26.691406 5.90625 26.6875 5.910156 26.6875 C 6.085938 26.6875 6.265625 26.6875 6.441406 26.6875 C 6.441406 26.703125 6.441406 26.714844 6.441406 26.730469 C 6.347656 26.730469 6.25 26.730469 6.152344 26.730469 Z M 6.152344 26.730469 "/>
<path style=" stroke:none;fill-rule:nonzero;fill:rgb(69.411765%,70.196078%,70.980392%);fill-opacity:1;" d="M 8.714844 26.730469 C 8.636719 26.730469 8.554688 26.730469 8.472656 26.730469 C 8.394531 26.730469 8.3125 26.730469 8.230469 26.730469 C 8.230469 26.714844 8.230469 26.703125 8.234375 26.6875 C 8.394531 26.6875 8.554688 26.6875 8.714844 26.6875 C 8.730469 26.695312 8.734375 26.707031 8.730469 26.714844 C 8.726562 26.726562 8.722656 26.730469 8.714844 26.730469 Z M 8.714844 26.730469 "/>
<path style=" stroke:none;fill-rule:nonzero;fill:rgb(61.176471%,61.960784%,63.137255%);fill-opacity:1;" d="M 4.835938 18.804688 C 4.679688 18.660156 4.554688 18.484375 4.425781 18.3125 C 4.554688 18.273438 4.507812 18.167969 4.507812 18.089844 C 4.511719 17.675781 4.511719 17.261719 4.507812 16.851562 C 4.507812 16.71875 4.515625 16.59375 4.558594 16.46875 C 4.722656 16.597656 4.839844 16.765625 4.949219 16.941406 C 4.996094 17.503906 4.96875 18.070312 4.960938 18.632812 C 4.960938 18.707031 4.953125 18.800781 4.835938 18.804688 Z M 4.835938 18.804688 "/>
<path style=" stroke:none;fill-rule:nonzero;fill:rgb(72.54902%,73.333333%,74.117647%);fill-opacity:1;" d="M 7.023438 22.15625 C 7.261719 21.847656 7.261719 21.847656 7.03125 21.519531 C 6.980469 20.953125 7.03125 20.386719 7.023438 19.820312 C 7.019531 19.738281 7.042969 19.660156 7.125 19.613281 C 7.371094 19.875 7.609375 20.144531 7.796875 20.453125 C 7.832031 20.972656 7.84375 21.488281 7.792969 22.007812 C 7.59375 22.304688 7.378906 22.589844 7.121094 22.835938 C 6.96875 22.722656 7.035156 22.5625 7.023438 22.417969 C 7.015625 22.328125 7.023438 22.242188 7.023438 22.15625 Z M 7.023438 22.15625 "/>
<path style=" stroke:none;fill-rule:nonzero;fill:rgb(70.588235%,71.372549%,72.156863%);fill-opacity:1;" d="M 7.125 19.613281 C 7.050781 20.101562 7.078125 20.59375 7.082031 21.082031 C 7.085938 21.234375 7.078125 21.375 7.03125 21.519531 C 6.886719 21.339844 6.742188 21.164062 6.597656 20.984375 C 6.621094 20.492188 6.605469 20 6.613281 19.503906 C 6.613281 19.371094 6.601562 19.226562 6.734375 19.132812 C 6.890625 19.273438 7.007812 19.441406 7.125 19.613281 Z M 7.125 19.613281 "/>
<path style=" stroke:none;fill-rule:nonzero;fill:rgb(62.745098%,63.529412%,64.705882%);fill-opacity:1;" d="M 4.835938 18.804688 C 4.925781 18.738281 4.894531 18.644531 4.894531 18.558594 C 4.898438 18.121094 4.894531 17.683594 4.894531 17.246094 C 4.894531 17.140625 4.890625 17.035156 4.949219 16.9375 C 5.070312 17.035156 5.152344 17.160156 5.238281 17.285156 C 5.289062 17.851562 5.261719 18.417969 5.25 18.984375 C 5.246094 19.058594 5.242188 19.179688 5.097656 19.136719 C 5.011719 19.027344 4.890625 18.941406 4.835938 18.804688 Z M 4.835938 18.804688 "/>
<path style=" stroke:none;fill-rule:nonzero;fill:rgb(68.235294%,69.019608%,69.803922%);fill-opacity:1;" d="M 6.339844 20.652344 C 6.234375 20.578125 6.171875 20.460938 6.097656 20.359375 C 6.054688 19.804688 6.078125 19.25 6.085938 18.695312 C 6.085938 18.601562 6.113281 18.519531 6.199219 18.464844 C 6.308594 18.582031 6.421875 18.695312 6.496094 18.839844 C 6.546875 19.371094 6.515625 19.90625 6.507812 20.4375 C 6.507812 20.539062 6.488281 20.65625 6.339844 20.652344 Z M 6.339844 20.652344 "/>
<path style=" stroke:none;fill-rule:nonzero;fill:rgb(66.666667%,67.843137%,68.627451%);fill-opacity:1;" d="M 6.199219 18.464844 C 6.101562 18.945312 6.179688 19.433594 6.152344 19.914062 C 6.140625 20.0625 6.203125 20.222656 6.097656 20.359375 C 5.980469 20.265625 5.90625 20.132812 5.816406 20.015625 C 5.773438 19.476562 5.816406 18.9375 5.796875 18.398438 C 5.796875 18.292969 5.820312 18.1875 5.910156 18.117188 C 6.007812 18.230469 6.101562 18.347656 6.199219 18.464844 Z M 6.199219 18.464844 "/>
<path style=" stroke:none;fill-rule:nonzero;fill:rgb(63.921569%,64.705882%,65.490196%);fill-opacity:1;" d="M 5.097656 19.136719 C 5.230469 19.105469 5.183594 19 5.183594 18.917969 C 5.1875 18.46875 5.1875 18.019531 5.183594 17.566406 C 5.183594 17.46875 5.183594 17.375 5.234375 17.285156 C 5.34375 17.359375 5.40625 17.476562 5.476562 17.578125 C 5.53125 18.160156 5.5 18.742188 5.492188 19.328125 C 5.492188 19.394531 5.480469 19.480469 5.375 19.480469 C 5.285156 19.367188 5.191406 19.253906 5.097656 19.136719 Z M 5.097656 19.136719 "/>
<path style=" stroke:none;fill-rule:nonzero;fill:rgb(69.019608%,69.803922%,70.980392%);fill-opacity:1;" d="M 6.339844 20.652344 C 6.453125 20.601562 6.441406 20.503906 6.441406 20.40625 C 6.441406 19.976562 6.445312 19.546875 6.441406 19.121094 C 6.441406 19.023438 6.441406 18.925781 6.496094 18.839844 C 6.597656 18.917969 6.675781 19.015625 6.734375 19.132812 C 6.625 19.652344 6.710938 20.179688 6.683594 20.703125 C 6.679688 20.800781 6.71875 20.917969 6.597656 20.984375 C 6.503906 20.878906 6.402344 20.78125 6.339844 20.652344 Z M 6.339844 20.652344 "/>
<path style=" stroke:none;fill-rule:nonzero;fill:rgb(65.882353%,66.666667%,67.45098%);fill-opacity:1;" d="M 5.910156 18.117188 C 5.851562 18.449219 5.886719 18.78125 5.890625 19.117188 C 5.890625 19.410156 5.921875 19.722656 5.816406 20.015625 C 5.734375 19.917969 5.65625 19.820312 5.578125 19.722656 C 5.5625 19.375 5.59375 19.035156 5.570312 18.6875 C 5.546875 18.398438 5.539062 18.097656 5.671875 17.820312 C 5.777344 17.894531 5.839844 18.011719 5.910156 18.117188 Z M 5.910156 18.117188 "/>
<path style=" stroke:none;fill-rule:nonzero;fill:rgb(64.705882%,65.490196%,66.666667%);fill-opacity:1;" d="M 5.671875 17.820312 C 5.625 18.277344 5.660156 18.738281 5.636719 19.195312 C 5.628906 19.367188 5.769531 19.570312 5.578125 19.722656 C 5.507812 19.640625 5.441406 19.5625 5.375 19.480469 C 5.457031 19.414062 5.425781 19.316406 5.425781 19.234375 C 5.429688 18.773438 5.425781 18.316406 5.425781 17.859375 C 5.425781 17.761719 5.421875 17.667969 5.476562 17.578125 C 5.566406 17.640625 5.621094 17.726562 5.671875 17.820312 Z M 5.671875 17.820312 "/>
<path style=" stroke:none;fill-rule:nonzero;fill:rgb(63.529412%,64.313725%,65.098039%);fill-opacity:1;" d="M 4.886719 24.828125 C 5.054688 24.617188 5.21875 24.410156 5.386719 24.203125 C 5.507812 24.199219 5.527344 24.292969 5.535156 24.378906 C 5.542969 24.527344 5.566406 24.679688 5.523438 24.824219 C 5.367188 25.070312 5.1875 25.292969 4.988281 25.503906 C 4.792969 25.304688 4.898438 25.058594 4.886719 24.828125 Z M 4.886719 24.828125 "/>
<path style=" stroke:none;fill-rule:nonzero;fill:rgb(70.588235%,71.372549%,72.156863%);fill-opacity:1;" d="M 7.023438 22.15625 C 7.167969 22.367188 7.011719 22.621094 7.121094 22.835938 C 7.003906 23.035156 6.863281 23.21875 6.695312 23.378906 C 6.574219 23.386719 6.585938 23.289062 6.578125 23.21875 C 6.558594 23.054688 6.539062 22.890625 6.582031 22.726562 C 6.699219 22.515625 6.871094 22.34375 7.023438 22.15625 Z M 7.023438 22.15625 "/>
<path style=" stroke:none;fill-rule:nonzero;fill:rgb(65.490196%,66.27451%,67.45098%);fill-opacity:1;" d="M 5.523438 24.824219 C 5.449219 24.707031 5.480469 24.578125 5.476562 24.453125 C 5.472656 24.359375 5.496094 24.257812 5.386719 24.203125 C 5.53125 24.023438 5.675781 23.84375 5.820312 23.664062 C 5.9375 23.613281 5.960938 23.707031 5.964844 23.78125 C 5.984375 23.953125 6.019531 24.125 5.960938 24.296875 C 5.835938 24.492188 5.691406 24.667969 5.523438 24.824219 Z M 5.523438 24.824219 "/>
<path style=" stroke:none;fill-rule:nonzero;fill:rgb(70.980392%,71.764706%,72.54902%);fill-opacity:1;" d="M 7.792969 22.007812 C 7.691406 21.730469 7.757812 21.441406 7.753906 21.15625 C 7.753906 20.921875 7.691406 20.679688 7.796875 20.453125 C 7.863281 20.5625 8.015625 20.601562 8.035156 20.746094 C 8.085938 21.050781 8.035156 21.363281 8.082031 21.667969 C 7.984375 21.78125 7.890625 21.894531 7.792969 22.007812 Z M 7.792969 22.007812 "/>
<path style=" stroke:none;fill-rule:nonzero;fill:rgb(68.627451%,69.411765%,70.196078%);fill-opacity:1;" d="M 6.582031 22.726562 C 6.660156 22.863281 6.609375 23.015625 6.632812 23.160156 C 6.648438 23.238281 6.613281 23.324219 6.695312 23.378906 C 6.574219 23.546875 6.460938 23.722656 6.304688 23.863281 C 6.15625 23.851562 6.160156 23.730469 6.160156 23.636719 C 6.164062 23.5 6.15625 23.367188 6.164062 23.230469 C 6.289062 23.050781 6.417969 22.875 6.582031 22.726562 Z M 6.582031 22.726562 "/>
<path style=" stroke:none;fill-rule:nonzero;fill:rgb(61.568627%,62.352941%,63.137255%);fill-opacity:1;" d="M 4.886719 24.828125 C 4.996094 24.9375 4.933594 25.074219 4.9375 25.195312 C 4.945312 25.304688 4.96875 25.402344 4.988281 25.503906 C 4.878906 25.664062 4.765625 25.824219 4.617188 25.957031 C 4.484375 25.957031 4.5 25.847656 4.492188 25.769531 C 4.472656 25.617188 4.476562 25.464844 4.5 25.3125 C 4.613281 25.136719 4.738281 24.972656 4.886719 24.828125 Z M 4.886719 24.828125 "/>
<path style=" stroke:none;fill-rule:nonzero;fill:rgb(60%,60.784314%,61.960784%);fill-opacity:1;" d="M 4.5 25.3125 C 4.605469 25.417969 4.539062 25.554688 4.558594 25.671875 C 4.574219 25.769531 4.515625 25.878906 4.617188 25.957031 C 4.457031 26.101562 4.402344 26.324219 4.226562 26.449219 C 4.136719 26.273438 4.265625 26.074219 4.167969 25.898438 C 4.152344 25.863281 4.132812 25.832031 4.113281 25.796875 C 4.21875 25.621094 4.355469 25.460938 4.5 25.3125 Z M 4.5 25.3125 "/>
<path style=" stroke:none;fill-rule:nonzero;fill:rgb(67.058824%,67.843137%,69.019608%);fill-opacity:1;" d="M 6.164062 23.230469 C 6.222656 23.34375 6.269531 23.449219 6.222656 23.585938 C 6.183594 23.6875 6.230469 23.785156 6.304688 23.863281 C 6.1875 24.007812 6.101562 24.175781 5.960938 24.296875 C 5.910156 24.152344 5.90625 24.003906 5.910156 23.851562 C 5.910156 23.777344 5.9375 23.683594 5.816406 23.664062 C 5.933594 23.519531 6.050781 23.375 6.164062 23.230469 Z M 6.164062 23.230469 "/>
<path style=" stroke:none;fill-rule:nonzero;fill:rgb(69.411765%,70.196078%,70.980392%);fill-opacity:1;" d="M 8.082031 21.667969 C 8.054688 21.652344 8.007812 21.636719 8.007812 21.621094 C 8 21.328125 7.945312 21.035156 8.035156 20.746094 C 8.175781 20.832031 8.246094 20.984375 8.359375 21.09375 C 8.445312 21.179688 8.433594 21.253906 8.355469 21.339844 C 8.261719 21.445312 8.171875 21.558594 8.082031 21.667969 Z M 8.082031 21.667969 "/>
<path style=" stroke:none;fill-rule:nonzero;fill:rgb(68.235294%,69.019608%,69.803922%);fill-opacity:1;" d="M 5.910156 26.6875 C 5.910156 26.703125 5.910156 26.714844 5.910156 26.730469 C 5.878906 26.730469 5.847656 26.730469 5.8125 26.730469 C 5.699219 26.730469 5.589844 26.730469 5.476562 26.730469 C 5.363281 26.730469 5.25 26.730469 5.136719 26.730469 C 5.105469 26.714844 5.074219 26.703125 5.042969 26.6875 C 5.332031 26.6875 5.621094 26.6875 5.910156 26.6875 Z M 5.910156 26.6875 "/>
<path style=" stroke:none;fill-rule:nonzero;fill:rgb(66.27451%,67.058824%,68.235294%);fill-opacity:1;" d="M 8.714844 26.730469 C 8.714844 26.714844 8.714844 26.703125 8.714844 26.6875 C 8.875 26.6875 9.035156 26.6875 9.195312 26.6875 C 9.128906 26.757812 9.039062 26.71875 8.957031 26.730469 C 8.875 26.730469 8.796875 26.730469 8.714844 26.730469 Z M 8.714844 26.730469 "/>
</g>
</svg>
