<?xml version="1.0" encoding="utf-8"?>
<!-- Generator: Adobe Illustrator 24.1.2, SVG Export Plug-In . SVG Version: 6.00 Build 0)  -->
<svg version="1.1" id="Camada_1" xmlns="http://www.w3.org/2000/svg" xmlns:xlink="http://www.w3.org/1999/xlink" x="0px" y="0px"
	 viewBox="0 0 595.28 841.89" style="enable-background:new 0 0 595.28 841.89;" xml:space="preserve">
<style type="text/css">
	.st0{fill:#FEFEFE;}
	.st1{fill:#EC1C24;}
	.st2{fill:#6F7073;}
	.st3{fill:#707274;}
	.st4{fill:#6E6F72;}
	.st5{fill:#737578;}
	.st6{fill:#B9BBBD;}
	.st7{fill:#7F8184;}
	.st8{fill:#757679;}
	.st9{fill:#78797C;}
	.st10{fill:#787A7C;}
	.st11{fill:#7C7E80;}
	.st12{fill:#999B9D;}
	.st13{fill:#919395;}
	.st14{fill:#949699;}
	.st15{fill:#86888B;}
	.st16{fill:#96989B;}
	.st17{fill:#828487;}
	.st18{fill:#797B7D;}
	.st19{fill:#7F8183;}
	.st20{fill:#87888B;}
	.st21{fill:#898B8E;}
	.st22{fill:#8E9093;}
	.st23{fill:#959799;}
	.st24{fill:#808284;}
	.st25{fill:#848587;}
	.st26{fill:#8A8C8F;}
	.st27{fill:#7D7F81;}
	.st28{fill:#8C8E90;}
	.st29{fill:#7A7C7E;}
	.st30{fill:#838487;}
	.st31{fill:#848588;}
	.st32{fill:#8F8F91;}
	.st33{fill:#8B8D8F;}
	.st34{fill:#A9ABAE;}
	.st35{fill:#A3A5A8;}
	.st36{fill:#B3B5B7;}
	.st37{fill:#9C9EA1;}
	.st38{fill:#AEB0B2;}
	.st39{fill:#A7A9AC;}
	.st40{fill:#AFB1B3;}
	.st41{fill:#AFB1B4;}
	.st42{fill:#95979A;}
	.st43{fill:#858789;}
	.st44{fill:#9FA1A4;}
	.st45{fill:#919396;}
	.st46{fill:#ABADB0;}
	.st47{fill:#B4B6B9;}
	.st48{fill:#9D9FA2;}
	.st49{fill:#A4A6A8;}
	.st50{fill:#A3A6A8;}
	.st51{fill:#9C9EA0;}
	.st52{fill:#989A9D;}
	.st53{fill:#A0A2A5;}
	.st54{fill:#B7B9BB;}
	.st55{fill:#A0A2A4;}
	.st56{fill:#ADAFB2;}
	.st57{fill:#9EA0A2;}
	.st58{fill:#919496;}
	.st59{fill:#A8AAAD;}
	.st60{fill:#B0B2B5;}
	.st61{fill:#99999C;}
	.st62{fill:#939497;}
	.st63{fill:#B5B7BA;}
	.st64{fill:#BBBDBF;}
	.st65{fill:#8D8F91;}
	.st66{fill:#B5B7B9;}
	.st67{fill:#B6B8BA;}
	.st68{fill:#EBEBEC;}
	.st69{fill:#A2A3A5;}
	.st70{fill:#A7A9AB;}
	.st71{fill:#B4B6B8;}
	.st72{fill:#AAACAF;}
	.st73{fill:#A2A4A7;}
	.st74{fill:#ADAFB1;}
	.st75{fill:#A5A7AA;}
	.st76{fill:#B1B3B5;}
	.st77{fill:#AAADAF;}
	.st78{fill:#A3A5A7;}
	.st79{fill:#A8AAAC;}
	.st80{fill:#A2A4A6;}
	.st81{fill:#9D9FA1;}
	.st82{fill:#999B9E;}
	.st83{fill:none;}
</style>
<path class="st0" d="M297.49,666.89c-97.78,0-195.57-0.02-293.35,0.09c-3.29,0-4.12-0.52-4.12-4.04
	C0.13,520.36,0.14,377.79,0,235.21c0-3.87,1.12-4.23,4.43-4.22c195.73,0.08,391.47,0.08,587.2-0.01c3.45,0,4.38,0.55,4.37,4.29
	c-0.13,142.41-0.13,284.82,0,427.23c0,3.96-1.13,4.49-4.67,4.48C493.39,666.87,395.44,666.89,297.49,666.89z"/>
<path class="st1" d="M203.58,324.84c2.49-9.29,4.73-18.66,8.97-27.38c7.1-14.6,16.63-26.88,32.21-32.95
	c21.8-8.5,46.23,5.85,48.84,28.46c0.77,6.66-1.08,12.54-5.53,17.51c-4.34,4.85-8.69,4.86-13.1,0.12c-3.67-3.96-5.83-8.82-7.89-13.74
	c-2.06-4.9-4.19-9.77-7.56-13.96c-7.65-9.49-19.01-8.73-25.47,1.75c-4.12,6.68-5.36,14.25-6.28,21.85
	c-0.73,5.93-0.99,11.92-1.46,17.89c1.29,7.36,0.75,14.58-1.61,21.67c-1.77,31.01-3.51,62.02-5.3,93.03
	c-2.02,35.16-4.08,70.31-6.12,105.46c1.54,8.07,0.49,16.04-0.97,23.99c-0.36,1.93-0.48,3.98-2.34,5.24
	c-3.96,18.3-10.4,35.37-24.32,48.59c-8.68,8.24-18.71,13.49-30.94,13.78c-15,0.35-30.34-10.77-33.89-24.93
	c-1.83-7.28-0.98-14.2,4-20.19c4.78-5.74,10.15-5.9,15.07-0.35c3.22,3.63,5.38,7.94,7.35,12.35c1.96,4.4,4.08,8.73,7.18,12.46
	c7.53,9.08,18.83,8.43,25.32-1.48c4.6-7.02,5.85-15.08,6.73-23.19c0.6-5.61,0.86-11.25,1.28-16.88c-0.37-0.47-0.65-1-0.84-1.58
	c0.02-8.3,1.15-16.54,1.44-24.84c-0.52-9,0.75-17.92,1.27-26.86c0.47-7.94,1.06-15.92,1.4-23.86c1.03-23.39,3.1-46.72,3.9-70.11
	c0.52-15.11,1.82-30.16,2.43-45.27c0.59-14.91,1.25-29.87,3.04-44.72C201.45,332.75,200.7,328.3,203.58,324.84z"/>
<path class="st2" d="M394.74,414.32c-7.52,23.09-14.94,45.96-22.44,68.8c-1.45,4.42,0.01,6.7,4.5,7.27c1.28,0.16,2.8,0.2,2.6,2.18
	c-0.21,2.15-1.92,1.44-3.06,1.45c-6.12,0.07-12.23,0.07-18.35,0c-1.16-0.01-2.89,0.63-3.1-1.44c-0.21-1.96,1.38-2.02,2.66-2.16
	c5.53-0.58,7-4.89,8.46-9.21c8.41-24.83,16.84-49.65,25.2-74.5c1.07-3.19,1.54-6.08,6.28-5.89c4.34,0.18,6.99,0.54,8.6,5.5
	c8.09,24.94,16.67,49.72,25.03,74.57c1.59,4.72,3.27,9.21,9.24,9.64c1.04,0.08,1.9,0.56,1.88,1.85c-0.03,1.74-1.31,1.64-2.45,1.64
	c-8.76,0.02-17.52,0.02-26.28,0c-1.14,0-2.41,0.1-2.43-1.65c-0.02-1.65,1.22-1.83,2.35-1.96c5.19-0.6,5.7-4.16,4.47-8.01
	c-7.25-22.59-14.69-45.11-22.07-67.66C395.77,414.66,395.54,414.64,394.74,414.32z"/>
<path class="st2" d="M564.42,494.03c-3.6,0.15-7.95-0.41-11.94-2.86c-1.78-1.1-3.78-2.03-4.44,1.21c-0.39,1.9-1.77,1.62-3.08,1.62
	c-1.67,0-1.61-1.29-1.83-2.42c-0.78-3.91-1.62-7.8-2.39-11.71c-0.24-1.21-1.22-2.77,0.37-3.55c1.58-0.77,2.8,0.34,3.73,1.64
	c5.29,7.36,12.85,9.39,21.35,9.23c6.4-0.12,10.08-2.87,12.09-9.03c3.65-11.21,0.28-19.28-10.49-23.91
	c-6.72-2.88-13.4-5.52-18.36-11.32c-12.34-14.39-6.12-37.38,11.37-41.32c5.94-1.34,11.77-0.98,17.23,2.36
	c1.99,1.22,5.32,4.43,5.21-1.73c-0.02-1.16,0.93-1.17,1.75-1.2c1.06-0.05,1.94,0.17,2.22,1.44c0.81,3.73,1.71,7.44,2.46,11.17
	c0.31,1.53-0.98,1.36-1.93,1.46c-1.88,0.21-3.11-0.98-4.3-2.1c-4.69-4.44-10.37-5.45-16.53-5.12c-5.68,0.31-9.89,4.5-10.74,11.07
	c-1.08,8.31,2.05,14.59,9.21,18.86c5.39,3.21,11.27,5.41,16.59,8.86c11.15,7.23,12.9,18.58,9.7,30.3
	c-2.73,9.99-12.94,16.82-24.34,17.04C566.68,494.04,566.02,494.03,564.42,494.03z"/>
<path class="st2" d="M315.67,448.12c0,11.49,0.11,22.99-0.06,34.48c-0.06,4.39,0.74,7.63,5.86,7.92c1.15,0.07,2.35,0.17,2.31,1.89
	c-0.05,1.8-1.3,1.62-2.43,1.63c-8.27,0.02-16.55,0.02-24.82-0.01c-1.08,0-2.47,0.33-2.62-1.44c-0.14-1.57,0.9-2.04,2.15-2.11
	c5.13-0.26,5.91-3.46,5.88-7.88c-0.13-23.15-0.15-46.3,0.03-69.45c0.03-3.99-0.72-5.74-5.07-5.33c-4.27,0.4-8.6,0.22-12.9,0.06
	c-5.64-0.21-10.13,1.47-12.45,7.03c-0.67,1.62-1.63,2.68-3.33,2.06c-2.35-0.86-0.68-2.46-0.3-3.66c3.89-12.3,3.91-12.29,16.49-12.29
	c19.03,0,38.06,0.07,57.08-0.07c3.14-0.02,4.84,0.77,5.65,3.97c0.81,3.2,2.22,6.25,3.26,9.4c0.27,0.82,1.16,1.99-0.1,2.58
	c-1.01,0.47-2.74,0.61-3.16-0.55c-3.48-9.56-11.44-8.64-19.07-8.42c-3.93,0.11-9.03-1.71-11.5,0.73c-2.7,2.67-0.81,7.89-0.88,11.98
	C315.56,429.8,315.67,438.96,315.67,448.12z"/>
<path class="st2" d="M495.35,447.89c0,11.65,0.09,23.31-0.05,34.96c-0.05,4.17,0.71,7.29,5.59,7.63c1.37,0.09,2.77,0.38,2.44,2.3
	c-0.29,1.68-1.74,1.24-2.78,1.25c-8.1,0.04-16.21,0.03-24.31,0c-1.07,0-2.48,0.33-2.64-1.43c-0.14-1.57,0.92-1.97,2.17-2.06
	c5.04-0.38,5.89-3.57,5.87-7.98c-0.12-23.31-0.13-46.61,0.02-69.92c0.02-3.58-0.67-5.11-4.58-4.82c-4.77,0.36-9.59,0.15-14.38,0.07
	c-5.09-0.08-9.03,1.71-11.24,6.55c-0.72,1.57-1.52,3.35-3.55,2.5c-2.55-1.07-0.51-2.83-0.09-4.13c3.83-11.81,3.87-11.79,16.34-11.79
	c19.02,0,38.04,0.07,57.05-0.07c3.15-0.02,4.83,0.77,5.59,3.99c0.73,3.05,2.1,5.94,3.1,8.93c0.33,1,1.31,2.36-0.19,3.02
	c-1.16,0.51-2.7,0.53-3.32-1.15c-2.73-7.43-8.77-8.24-15.42-7.82c-5.06,0.32-11.62-2.17-14.78,1.05c-2.9,2.96-0.74,9.5-0.81,14.46
	C495.27,431.58,495.35,439.73,495.35,447.89z"/>
<path class="st3" d="M8.65,396.8c1.24-6.44,3.28-12.64,5.5-18.79c3.24-0.96,3.23,1.75,3.25,3.42c0.05,4.32,0.88,8.59,0.51,12.96
	c-0.94,11.12,0.01,22.27-0.13,33.41c-0.12,9.77,0.19,19.53-0.32,29.32c-0.52,9.96,0.99,19.92,0.51,29.91
	c-0.45,9.45-0.88,18.9-0.03,28.35c0.15,1.64,0.04,3.37-1.1,4.76c-0.91,1.1-1.84,1.46-2.62-0.16c-2.55-6.49-4.56-13.14-5.92-19.98
	c1.04-2.77,0.13-5.58,0.14-8.37c0.05-28.3,0.06-56.61-0.01-84.91C8.43,403.4,9.59,400.12,8.65,396.8z"/>
<path class="st4" d="M8.65,396.8c1.99,1.23,1.37,3.24,1.37,4.98c0.03,31.65,0.04,63.29-0.07,94.94c0,1.01,1.76,3.71-1.65,3.28
	c-5.45-21.71-7.18-43.71-5.58-66.05C3.64,421.37,5.35,408.97,8.65,396.8z"/>
<path class="st5" d="M14.23,519.98c3.13,0.67,2.57-1.78,2.54-3.33c-0.15-6.69-1.12-13.43-0.56-20.05c0.54-6.33-0.34-12.67,0.7-18.93
	c0.42-2.52-0.37-4.91-0.5-7.37c-0.94-16.77,0.54-33.54-0.1-50.35c-0.48-12.65-0.01-25.41,0.08-38.11c0.01-1.53,0.08-3.49-2.23-3.82
	c1.05-3.44,1.84-6.99,3.95-10c2.51-0.94,2.7,1.04,3.08,2.58c0.43,1.78,0.33,3.62,0.28,5.44c-0.32,11.9-0.05,23.8-0.09,35.7
	c-0.01,2.86,0.78,5.55,1.04,8.34c-0.05,10.31-1.77,20.51-1.93,30.82c-0.14,9.01,0.75,17.93,1.69,26.85c0.23,2.16,0.41,4.3,0.13,6.47
	c-1.36,4.38-0.75,8.87-0.76,13.33c-0.02,9.12,0.17,18.24-0.12,27.35c-0.07,2.08,0.74,5.39-3.36,5.03
	C16.04,526.91,15.16,523.43,14.23,519.98z"/>
<path class="st6" d="M187.75,572.92c0,0.33-0.01,0.67-0.01,1c-43.23,0.01-86.46,0.03-129.69,0.04c-0.13-0.25-0.26-0.5-0.39-0.75
	c1.68-2.16,4.09-1.47,6.28-1.66c2.55-0.07,5.09-0.1,7.64-0.03c2-0.07,4-0.07,6.01,0c2.31-0.08,4.62-0.07,6.93-0.01
	c2.32-0.08,4.64-0.08,6.97-0.01c2.91-0.08,5.81-0.09,8.72,0.01c2.02-0.04,4.05-0.09,6.07,0.01c1.73-0.07,3.46-0.06,5.19,0
	c2.89-0.09,5.78-0.08,8.67,0c2.02-0.05,4.04-0.09,6.06,0c2.29-0.06,4.58-0.08,6.87,0c1.66-0.05,3.32-0.08,4.97,0
	c4.26,0.5,6.04-1.33,5.71-5.7c-0.25-3.3-0.22-6.64-0.01-9.95c0.26-4.05-1.35-5.93-5.42-5.55c-1.71-0.01-3.42,0.09-5.07-0.5
	c-0.57-0.24-1.01-0.63-1.32-1.18c0.01-0.67,0.32-1.15,0.91-1.45c5.13-1.55,10.39-0.71,15.58-0.74c6.36-0.03,12.73-0.54,19.07,0.38
	c0.58,0.18,1.09,0.49,1.53,0.91c0.25,0.6,0.14,1.13-0.32,1.58c-1.47,0.99-3.17,0.91-4.82,1.01c-2.43,0.1-3.44,1.48-3.46,3.82
	c-0.05,4.59-0.07,9.17,0.01,13.76c0.04,2.41,1.24,3.61,3.64,3.61c1.6-0.02,3.19-0.04,4.79,0.02c1.65-0.03,3.31-0.06,4.96,0.01
	c1.66-0.03,3.32-0.06,4.99,0c1.67-0.03,3.35-0.06,5.02,0.03C185.28,571.55,186.63,571.91,187.75,572.92z"/>
<path class="st7" d="M231.48,325.02c4.1-0.94,5.74,0.27,5.97,4.93c0.63,12.78,1.98,25.52,2.85,38.29c0.11,1.69,1.69,4.5-2.14,4.9
	c-3.4,0.35-3.46-1.69-3.97-4.16c-1.03-5.02-2.53-9.94-3.83-14.91c0.13-7.3,0.05-14.6-0.19-21.9
	C230.09,329.73,229.64,327.14,231.48,325.02z"/>
<path class="st8" d="M21.14,420.34c-1.3-5.51-1.35-11.08-1.23-16.72c0.22-10.55,0.08-21.1,0.05-31.65
	c-0.01-1.55,0.59-3.51-1.85-3.96c1.22-4.19,2.98-8.14,5.13-11.92c3.46,0.63,3.08,3.51,3.16,5.87c0.21,6.32,0.06,12.66,0.08,18.98
	c0.02,5.15-0.19,10.31,0.83,15.4c-0.41,7.5-3.18,14.54-4.3,21.91C22.85,419.25,22.25,420.09,21.14,420.34z"/>
<path class="st9" d="M30.65,556.06c-3.2-4.35-5.3-9.28-7.45-14.18c0.05-8.95,0.43-17.9,0.34-26.86c-0.03-2.44-0.35-5.06,1.78-6.98
	c2.74-0.8,2.97,1.55,3.39,3.07c1.8,6.52,4.6,12.72,5.87,19.39c-1.6,6.66-0.21,13.43-0.72,20.13
	C33.68,552.98,34.16,555.72,30.65,556.06z"/>
<path class="st10" d="M25.95,397.05c-1.91-11.83-0.66-23.75-1.01-35.63c-0.06-1.94,0.46-4.07-1.7-5.33
	c1.75-3.78,2.97-7.84,5.78-11.07c3.61-0.8,3.06,2.16,3.26,3.97c0.41,3.92,0.18,7.88,0.16,11.82c-0.03,5.42-0.01,10.84,0.79,16.21
	c-0.49,6.64-3.46,12.56-5.41,18.78C27.56,396.6,26.92,397.16,25.95,397.05z"/>
<path class="st11" d="M30.65,556.06c4.02-3.94,1.37-8.92,1.96-13.38c0.51-3.9-1.33-8.06,1.27-11.75c0.99-0.24,1.6,0.35,1.95,1.11
	c2.53,5.56,5.45,10.96,7.15,16.88c-0.64,5.41-0.18,10.84-0.23,16.26c-0.02,2.32,0.29,5.03-2.96,5.78
	C36.48,566.15,33.17,561.35,30.65,556.06z"/>
<path class="st12" d="M86.5,325.01c1.99,0,3.97,0,5.96,0c2.87,3.2,0.51,7.21,1.65,10.68c0.01,1.34,0.21,2.67,0.21,4.02
	c-0.73,10.06-0.14,20.12-0.4,30.18c-0.06,2.36,0.54,5.09-2.24,6.57c-4.41-0.86-6.39-3.75-6.65-8.08c1.6-6.5,0.64-13.14,0.99-19.7
	C86.44,340.8,85.35,332.88,86.5,325.01z"/>
<path class="st13" d="M67.64,325.01c2.98,0,5.96,0,8.94,0c0.41,0.51,0.95,1.05,0.99,1.68c0.62,9.97,1.5,19.95-0.49,29.88
	c-1.32,1.44-2.82,1.04-3.83-0.12c-2.85-3.29-6.48-6.1-7.2-10.84c0.41-5.28-0.07-10.59,0.5-15.87
	C66.72,328.11,66.44,326.39,67.64,325.01z"/>
<path class="st8" d="M26.09,507.62c-1.99,3.58-1.03,7.47-1.11,11.23c-0.15,6.73-0.06,13.47-0.07,20.21c0,1.29-0.65,2.18-1.71,2.82
	c-2.19-3.77-3.92-7.74-5.13-11.94c2.71-0.55,1.86-2.75,1.87-4.38c0.06-11.05,0.08-22.09,0-33.14c-0.02-2.99,0.19-5.91,1.16-8.74
	c0.48,0.13,1.11,0.22,1.23,0.71C24.26,492.01,26.89,499.54,26.09,507.62z"/>
<path class="st14" d="M75.52,357.03c1.7-1.43,1.02-3.39,1.03-5.13c0.06-8.96,0.03-17.92,0.03-26.89c1.99,0,3.97,0,5.96,0
	c1.57,1.77,1.54,3.96,1.55,6.12c0.04,8.63,0.07,17.26-0.02,25.89c-0.02,2.28,0.21,4.73-1.95,6.38
	C77.44,363.89,75.98,360.98,75.52,357.03z"/>
<path class="st15" d="M54.77,308.05c1.94-3.07,4.65-5.45,7.18-7.99c3.65-0.6,2.99,2.4,3.08,4.18c0.25,5.29,0.43,10.6-0.17,15.88
	c-0.8,0.99-1.6,1.97-2.4,2.96c-2.56,3.57-2.29,8.6-5.92,11.63c-0.84,0.08-1.59-0.11-2.25-0.65c-2.62-3.42-3.61-6.87-0.95-10.88
	c1.73-2.61,0.88-5.79,0.98-8.73C54.38,312.31,54.25,310.16,54.77,308.05z"/>
<path class="st16" d="M80.4,363.06c3.04-0.52,2.09-2.96,2.1-4.74c0.07-11.1,0.04-22.2,0.04-33.3c1.32,0,2.65,0,3.97,0
	c0.84,1.48,1.02,3.08,1.01,4.77c-0.03,11.21-0.03,22.41-0.01,33.62c0,2.21-0.2,4.3-2.23,5.69C81.91,368.5,80.79,366.07,80.4,363.06z
	"/>
<path class="st11" d="M33.65,336.91c1.62-3.24,3.52-6.3,5.9-9.04c3.54,0.15,2.87,2.86,2.97,5.04c0.33,7.56,0.56,15.12,0.38,22.69
	c-0.36,3.02-1.87,5.58-3.21,8.21c-0.74,1.46-1.55,3.01-3.69,2.43c-2.54-1.75-2.57-4.47-2.59-7.1
	C33.34,351.73,33.2,344.31,33.65,336.91z"/>
<path class="st17" d="M54.77,308.05c0.89,5.98,2.89,11.98-1.48,17.62c-2.32,3,1.96,5.33,1.42,8.29c-0.53,4.91-2.51,8.85-7.21,10.99
	c-3.28-6.44-0.64-13.34-1.41-19.98c-0.22-1.91,0.07-3.94-0.22-5.9C48.33,314.97,51.43,311.41,54.77,308.05z"/>
<path class="st18" d="M241.04,526.77c1.2-3.91,2.48-7.8,3.56-11.74c0.59-2.15,1.93-2.26,3.74-2.06c2.33,0.26,2.43,1.56,2.11,3.48
	c-1.84,11.06-3.44,22.16-5.49,33.17c-0.45,2.45,0.15,4.93-0.76,7.27c-3.57-0.52-3.09-3.4-3.13-5.76
	C240.9,543.01,240.99,534.89,241.04,526.77z"/>
<path class="st19" d="M45.87,319.06c1.55,0.74,2.36,2.18,1.82,3.64c-1.3,3.55,0.56,7.09-0.27,10.56c-0.94,3.9,0.45,7.7,0.34,11.55
	c-0.44,4.55-1.46,8.79-5.96,11.15c-0.17-7.96-0.44-15.91-0.42-23.87c0.01-1.88-0.39-3.17-1.84-4.21
	C41.22,324.62,43.38,321.71,45.87,319.06z"/>
<path class="st20" d="M62.66,598.92c-2.66-2.99-5.32-5.98-7.98-8.98c-0.28-1.79-0.39-3.59-0.37-5.41c0.05-4.1,0.41-8.23-2.15-11.92
	c-0.85-1.23-0.68-2.85-0.16-4.31c0.51-1.11,1.37-1.76,2.58-1.92c4.46,1.13,2.99,4.6,2.93,7.51c0.17,0.08,0.35,0.1,0.53,0.06
	c1.83,4.16,5.36,7.14,7.56,11.04c0.6,3.29,0.67,6.6,0.31,9.91C65.72,596.85,65.49,599.02,62.66,598.92z"/>
<path class="st21" d="M64.86,320.12c-2.63-4.82-0.46-10.03-1.21-15c-0.27-1.76,1.15-4.15-1.69-5.06c2.4-3.15,5.33-5.75,8.41-8.2
	c2.38-0.04,2.52,1.89,2.57,3.41c0.15,5.24,0.82,10.5-0.34,15.72C70.01,314.03,67.43,317.08,64.86,320.12z"/>
<path class="st22" d="M72.58,310.99c-1.95-4.43-0.53-9.1-0.98-13.64c-0.19-1.88,0.72-4.02-1.25-5.49c2.37-2.63,4.75-5.25,7.87-7.01
	c2.74-0.23,3.43,1.78,3.61,3.79c0.43,4.62,0.91,9.29-1.17,13.72C78.02,305.28,75.75,308.56,72.58,310.99z"/>
<path class="st23" d="M95.42,288.82c-3.31,3.01-6.62,6.01-9.93,9.02c-2.8-5.82-1.19-11.93-1.2-17.94c2.67-2.79,5.77-5,9.13-6.87
	c1.98-0.23,2.09,1.41,2.21,2.58C96.08,280.01,96.44,284.43,95.42,288.82z"/>
<path class="st24" d="M231.43,539.81c1.34-1.3,2.68-2.6,4.01-3.9c1.58,0.95,2.13,2.52,2.19,4.19c0.33,10.2-0.02,20.4-0.04,30.61
	c0,0.99-0.44,1.92-1.31,2.54c-1.79,0.03-3.65,0.72-5.29-0.61c-1.8-3.43-1-7.15-1.07-10.75c-0.11-5.63-0.08-11.26,0.01-16.9
	C229.95,543.12,230.58,541.44,231.43,539.81z"/>
<path class="st25" d="M231.48,325.02c0.23,8.2,0.52,16.4,0.65,24.61c0.03,1.6-0.34,3.3-1.77,4.44c-2.03-2.58-2.91-5.97-5.66-8.03
	c0.54-7.23,1.07-14.45,1.61-21.68C228.03,324.59,229.75,324.8,231.48,325.02z"/>
<path class="st26" d="M216.59,546.13c2.31-0.68,4.61-1.36,6.92-2.04c0.6,9.64,1.68,19.29-0.7,28.85c-6.93,1.08-7.36,0.72-7.79-5.97
	c-0.35-5.43,0.14-10.85,0.1-16.27C215.11,549.04,215.32,547.4,216.59,546.13z"/>
<path class="st27" d="M236.46,572.83c-0.01-10.36,0.04-20.73-0.06-31.09c-0.02-1.95-0.62-3.89-0.95-5.83c1.33-1.96,2.67-3.93,4-5.89
	c1.79,1.39,2.03,3.39,1.88,5.4c-0.73,10.26,1.23,20.52-0.15,30.78c-0.16,1.19,0.01,2.68,1,3.76c0.12,1.08,0.26,2.17-0.75,2.97
	C239.76,573.61,238.1,573.79,236.46,572.83z"/>
<path class="st28" d="M56.76,334.01c1.72-3.74,1.1-8.71,5.7-10.93c0.82,3.11,3.52,1.12,5.18,1.93c0.1,7.03,0.85,14.1-1.08,21.03
	C61.71,343.33,58.15,339.56,56.76,334.01z"/>
<path class="st6" d="M145.09,325.01c4.96,0,9.93,0,14.89,0c2.22,3.71,2.07,7.46,0.22,11.25c-5.07,2.03-10.16,1.96-15.25,0.07
	C142.95,332.54,142.86,328.76,145.09,325.01z"/>
<path class="st6" d="M162.93,240.95c5.11-2.02,10.51-2.82,15.88-3.73c-0.93,3.24-0.19,6.63-0.86,9.9
	c-5.32,1.61-10.64,3.21-15.95,4.82C160.31,248.1,159.81,244.37,162.93,240.95z"/>
<path class="st29" d="M33.65,336.91c1.69,1.16,1.19,2.94,1.2,4.53c0.05,6.11,0.03,12.22,0.01,18.33c-0.01,2.34-0.03,4.66,2.09,6.27
	c0.76,5.06-1.36,8.93-4.97,12.17c-1.84-9.53-0.8-19.16-1.11-28.75c-0.05-1.65,0.87-3.86-1.86-4.44
	C30.06,342.03,31.63,339.34,33.65,336.91z"/>
<path class="st30" d="M52.92,567.52c-0.21,2.47,0.58,4.42,1.66,6.77c2.22,4.85,1.85,10.41,0.1,15.65
	c-3.38-3.35-6.34-7.04-9.01-10.98c1.07-3.71,0.53-7.51,0.7-11.28c0.1-2.28-0.22-4.66,1.57-6.53
	C52.39,561.06,53.07,563.97,52.92,567.52z"/>
<path class="st31" d="M231.43,539.81c0.02,11.01,0.05,22.01,0.07,33.02c-1.83,0.85-3.64,0.96-5.42-0.12
	c-2.3-6.28-0.84-12.79-1.07-19.19c-0.13-3.54-0.95-7.35,1.51-10.58C228.15,541.9,229.79,540.86,231.43,539.81z"/>
<path class="st32" d="M226.53,572.84c1.66,0,3.31,0,4.97-0.01c1.65,0,3.31,0,4.96,0c1.66,0.03,3.31,0.07,4.97,0.11
	c-2.67,1.86-5.66,0.75-8.48,0.81c-7.66,0.16-15.32,0.04-22.98,0.02c1.98-9.65,2.58-19.45,3.31-29.24c0.15,2.55,1.98,1.56,3.32,1.61
	c0,6.96,0.3,13.94-0.11,20.88c-0.29,4.9,1.29,6.8,6.09,5.84C223.89,571.83,225.21,571.86,226.53,572.84z"/>
<path class="st7" d="M48.76,561.11c-1.99,4.42-0.53,9.09-0.98,13.62c-0.17,1.69,0.6,3.83-2.11,4.23c-1.96-2.67-3.92-5.34-5.89-8.01
	c2.82-2.82,2.03-6.54,1.76-9.74c-0.36-4.26-0.32-8.39,0.41-12.57C46.14,551.74,48.4,555.9,48.76,561.11z"/>
<path class="st12" d="M95.42,288.82c-1.95-4.09-0.21-8.47-0.95-12.67c-0.2-1.12,0.08-2.35-1.06-3.13c2.32-2.1,4.86-3.88,7.73-5.15
	c1.54-0.28,2.14,0.84,2.25,1.94c0.44,4.32,1.32,8.67-0.04,12.99C100.72,284.81,98.07,286.81,95.42,288.82z"/>
<path class="st33" d="M62.66,598.92c2.33-1.06,1.91-3.18,2.01-5.15c0.15-2.94-0.65-5.99,0.94-8.78c2.32,2.75,4.64,5.51,6.96,8.26
	c0.85,2.97,1.13,6.02,1.25,9.08c0.07,1.95-0.13,3.96-2.35,4.89C67.99,605.04,65.35,601.96,62.66,598.92z"/>
<path class="st22" d="M71.47,607.23c1.38-2.46,1.69-5.19,0.75-7.7c-0.86-2.3-0.18-4.21,0.36-6.27c3.23,3.02,6.35,6.14,8.94,9.75
	c0.91,2.55,0.6,5.18,0.32,7.77c-0.16,1.51-0.16,3.45-2.58,3.33C76.08,612.47,73.83,609.79,71.47,607.23z"/>
<path class="st34" d="M115.3,325.01c3.64,0,7.28,0,10.92,0c2.22,3.69,2.05,7.44,0.25,11.22c-3.77,1.93-7.55,1.87-11.35,0.07
	C113.19,332.51,113.08,328.75,115.3,325.01z"/>
<path class="st35" d="M124.23,268.98c-2.2,1.55-4.32,3.23-6.99,3.92c-2.31-0.96-2.22-3.09-2.25-5.02c-0.04-2.64-0.36-5.25-0.73-7.85
	c3.06-2.21,6.36-3.92,9.96-5.04C126.73,259.65,126.39,264.32,124.23,268.98z"/>
<path class="st36" d="M177.95,247.12c-0.59-3.38-2.69-6.89,0.86-9.9c3.29-0.68,6.56-1.51,9.97-1.18c1.93,2.34,1.07,5.77,3.1,8.07
	C187.37,245.72,182.67,246.48,177.95,247.12z"/>
<path class="st37" d="M103.36,282.81c-1.3-3.25-0.89-6.66-0.99-10.03c-0.05-1.7,0.57-3.62-1.22-4.9c1.7-1.85,3.93-2.83,6.14-3.85
	c1.63-0.97,2.63-0.01,2.89,1.37c0.77,4.12,2.32,8.28,0.13,12.45C108,279.49,105.68,281.15,103.36,282.81z"/>
<path class="st15" d="M226.53,572.84c-1.32,0-2.64,0.01-3.96,0.01c-0.01-7.82-0.01-15.64-0.03-23.46c-0.01-1.84-0.1-3.67,0.97-5.3
	c1-0.38,2.01-0.76,3.01-1.14C226.52,552.91,226.53,562.88,226.53,572.84z"/>
<path class="st38" d="M191.88,244.11c-5.8-0.83-1.98-5.41-3.1-8.07c5.87-1.33,11.81-1.98,17.83-1.84c0.11,0.53-0.11,0.92-0.47,1.28
	c-1.32,1.29-4.47-0.06-4.5,2.87c-0.03,2.52,3,2.2,4.13,3.75C201.23,243.44,196.57,243.9,191.88,244.11z"/>
<path class="st39" d="M124.23,268.98c0-4.66,0-9.32-0.01-13.98c1.93-1.8,4.47-2.21,6.82-3.05c4.07,1.52,2.24,5.08,2.59,7.83
	c0.23,1.8-0.33,3.54-1.48,5.01C129.52,266.18,126.88,267.58,124.23,268.98z"/>
<path class="st40" d="M126.22,335.97c0-3.65,0-7.3,0.01-10.95c3.31,0,6.62,0,9.93,0c2.22,3.69,2.04,7.43,0.26,11.21
	C132.97,337.99,129.56,338.3,126.22,335.97z"/>
<path class="st41" d="M148.06,256.93c-2.65,1.29-5.31,2.58-7.96,3.87c-3.46-3.45-1.55-7.85-2.07-11.82
	c2.56-1.31,5.06-2.75,8.02-2.94C149.98,248.57,150.57,251.75,148.06,256.93z"/>
<path class="st29" d="M242.17,569.96c-3.29,0.15-2.37-3.06-2.28-4.06c0.75-8.93,0.71-17.77-0.14-26.71
	c-0.28-2.92,0.11-6.11-0.31-9.17c0.53-1.08,1.06-2.17,1.59-3.25c1.96,1.23,1.32,3.23,1.34,4.96c0.06,6.63,0.01,13.25,0.03,19.88
	c0,1.95-0.42,4.07,1.79,5.28C243.52,561.25,242.85,565.6,242.17,569.96z"/>
<path class="st42" d="M85.61,606.62c3.83,2.16,6.23,5.98,9.76,8.49c0.14,3.46,2.39,7.37-2.04,9.88c-3.03-1.5-5.72-3.49-8.05-5.95
	C84.52,614.87,84.35,610.73,85.61,606.62z"/>
<path class="st43" d="M277.27,243.99c13.77,2.45,26.09,8.48,38.07,15.41c-12.86-4.84-25.72-9.59-39.16-12.51
	C275.52,245.53,274.78,244.15,277.27,243.99z"/>
<path class="st44" d="M110.32,277.83c-0.33-3.52-0.7-7.04-0.96-10.56c-0.11-1.53-0.02-3.03-2.07-3.25c2.11-1.7,4.39-3.11,6.97-3.99
	c2.7,0.43,1.88,2.58,2.02,4.24c0.25,2.89-0.65,5.9,0.96,8.63C115.11,274.8,112.91,276.59,110.32,277.83z"/>
<path class="st45" d="M84.29,279.89c2.56,3.77,0.69,8,1.18,11.99c0.24,1.95,0.03,3.96,0.03,5.95c-1.61,1.51-3.22,3.02-4.82,4.53
	c-0.04-4.22-0.13-8.44-0.11-12.66c0.01-2.04-0.1-3.94-2.33-4.85C80,282.9,81.81,280.98,84.29,279.89z"/>
<path class="st46" d="M138.03,248.98c2.81,3.56,0.1,8.11,2.07,11.82c-2.65,1.33-5.29,2.66-7.94,3.98
	c-0.52-4.27,1.26-8.74-1.12-12.84C133.08,250.25,135.56,249.63,138.03,248.98z"/>
<path class="st47" d="M136.15,335.97c0-3.65,0-7.3,0.01-10.95c2.98,0,5.96,0,8.94,0c0,3.65,0,7.31,0,10.96
	C142.11,338.11,139.13,338.12,136.15,335.97z"/>
<path class="st35" d="M179.84,325.02c2.98,0,5.96,0,8.94,0c1.47,4.06,1.96,8.05-0.76,11.84c-2.96,0.76-5.89,1.18-8.59-0.83
	C177.9,332.29,177.61,328.6,179.84,325.02z"/>
<path class="st36" d="M148.06,256.93c-0.03-3.75,0.94-7.69-2.01-10.9c2.69-1.89,5.93-2.11,8.96-2.96c2.44,3.44,3.31,7.03,0.99,10.91
	C153.5,255.34,150.95,256.62,148.06,256.93z"/>
<path class="st48" d="M188.79,335.96c-0.93-3.65,0.05-7.3-0.01-10.95c2.65,0,5.3,0,7.94,0c2.22,3.67,2.02,7.4,0.29,11.18
	C194.23,337.84,191.47,338.11,188.79,335.96z"/>
<path class="st49" d="M115.3,325.01c0,3.65,0,7.3-0.01,10.95c-2.67,2.13-5.41,1.85-8.2,0.26c-1.79-3.78-1.96-7.52,0.26-11.21
	C110.01,325.02,112.65,325.01,115.3,325.01z"/>
<path class="st50" d="M209.64,234.22c3.97,0,7.94,0,11.92,0c1.82,2.29,1.63,4.58-0.01,6.87l-0.41,0.1l-0.41-0.07
	c-2.95,1.09-6.1-0.23-9.06,0.77c-0.68,0.01-1.35,0.01-2.03,0.02C207.78,239.35,207.76,236.78,209.64,234.22z"/>
<path class="st37" d="M93.45,335.95c-2.26-3.47,0.11-7.36-0.99-10.94c2.65,0,5.3,0,7.94,0c2.22,3.66,2.01,7.38,0.3,11.15
	C98.24,337.73,95.81,337.95,93.45,335.95z"/>
<path class="st51" d="M102.36,621.03c3.51,0.81,5.2,4.1,7.98,5.9c1.12,5.12,0.56,6.36-3.14,7.05c-2.97-1.16-5.62-2.83-7.98-4.98
	C100.48,626.43,99.16,622.82,102.36,621.03z"/>
<path class="st52" d="M102.36,621.03c-2.4,2.11,1.21,6.63-3.14,7.96c-2.25-0.9-4.23-2.21-5.88-4.01c2.52-2.91-0.13-6.9,2.04-9.88
	C98.07,616.64,100.24,618.8,102.36,621.03z"/>
<path class="st36" d="M159.99,335.97c0-3.65,0-7.3-0.01-10.95c2.65,0,5.3,0,7.94,0c0.79,4.03,1.64,8.06-1.36,11.65
	C164.26,337.52,162.01,337.85,159.99,335.97z"/>
<path class="st52" d="M233.46,235.02c5.61,1.05,11.42,0.31,16.96,2.01c-2.05,1.23-3.94,2.62-5.03,4.85
	c-3.97-0.28-7.95-0.56-11.92-0.84C231.89,239.03,231.93,237.02,233.46,235.02z"/>
<path class="st53" d="M100.4,335.96c0-3.65,0-7.29,0-10.94c2.32,0,4.63,0,6.95,0c0,3.65,0,7.29,0,10.94
	C105.04,337.84,102.72,337.84,100.4,335.96z"/>
<path class="st54" d="M156.01,253.98c0.63-3.72-1.01-7.24-0.99-10.91c2.64-0.71,5.27-1.42,7.91-2.12
	c-1.52,3.56-0.46,7.34-0.94,10.99C160,252.62,158,253.3,156.01,253.98z"/>
<path class="st55" d="M107.19,633.97c3.7-1.15,1.65-4.9,3.14-7.05c3.32,0.62,5.43,3.14,7.91,5.09c0.38,2.65,1.65,5.57-2.08,6.98
	C112.8,637.99,109.93,636.11,107.19,633.97z"/>
<path class="st56" d="M166.94,335.96c0.71-3.61-0.65-7.42,0.99-10.95c1.99,0,3.97,0,5.96,0c1.78,3.88,2.72,7.76-0.11,11.6
	C171.39,337.54,169.05,337.89,166.94,335.96z"/>
<path class="st57" d="M233.46,235.02c0,2.01,0,4.01,0,6.02c-3.97,0.02-7.95,0.04-11.92,0.06c0-2.29,0.01-4.58,0.01-6.87
	c1.01,0,2.01,0,3.02,0c2.64,0.97,5.48-0.27,8.12,0.75C232.96,234.86,233.21,234.88,233.46,235.02z"/>
<path class="st58" d="M85.61,606.62c1.13,4.17,0.74,8.3-0.33,12.42c-2.32-1.26-4.34-2.89-6.03-4.94c3-3.23-0.16-7.74,2.26-11.09
	C83.41,603.59,84.44,605.19,85.61,606.62z"/>
<path class="st49" d="M116.16,638.99c2.2-1.87,0.29-4.99,2.08-6.98c2.93,0.3,4.72,2.59,7.01,4.02c3.1,3.77,2.86,5.22-1.18,6.97
	C121.19,642.15,118.53,640.86,116.16,638.99z"/>
<path class="st59" d="M209.64,234.22c0,2.57,0,5.13,0,7.7c-1.29,0.06-2.59,0.12-3.88,0.19c-1.43-0.16-3.21,0.15-4.22-0.6
	c-1.41-1.03-1.96-3.04-1.67-4.86c0.33-2.07,2.2-1.46,3.57-1.57c1.12-0.09,2.3,0.12,3.16-0.88
	C207.62,234.21,208.63,234.21,209.64,234.22z"/>
<path class="st60" d="M151.94,653.97c-4.2-0.61-8.12-2.05-11.85-4.06c-0.04-1.99,0.64-3.69,2.03-5.1c4.14,0.07,6.87,3.83,10.9,4.19
	C154.15,650.99,155.06,652.92,151.94,653.97z"/>
<path class="st61" d="M196.73,335.96c0-3.65,0-7.3-0.01-10.95c2.28-0.06,4.57-0.12,6.85-0.17c-0.49,3.8-0.66,7.65-1.89,11.33
	C199.98,337.33,198.32,337.51,196.73,335.96z"/>
<path class="st62" d="M245.39,241.88c-0.77-4.18,1.37-5.31,5.03-4.85c3.14,1.55,6.88,0.08,9.96,1.98c-0.44,1.48-0.92,2.93-2.09,4.03
	C253.99,242.65,249.69,242.26,245.39,241.88z"/>
<path class="st34" d="M173.89,335.96c0-3.65,0-7.3,0-10.94c1.99,0,3.97,0,5.96,0c0,3.65,0,7.3,0.01,10.94
	C177.86,337.67,175.88,337.67,173.89,335.96z"/>
<path class="st59" d="M124.08,643c3.19-1.84,2.36-4.37,1.18-6.97c3.55,0.6,5.77,3.61,8.9,4.97c1.28,2.31,0.55,4.27-1.03,6.09
	C129.69,646.68,126.88,644.84,124.08,643z"/>
<path class="st38" d="M185.81,658.92c8,1.49,15.97,3.2,24.19,3.05c1.91-0.03,3.98-0.43,5.75,0.84c-2.2,1.43-4.82-0.21-7.05,1.01
	c-2.35-0.02-4.7-0.05-7.05-0.07c-1.91-0.95-4.11,0.26-6.01-0.81c-3.31-0.08-6.68,0.34-9.82-1.15
	C184.98,660.83,185.01,659.87,185.81,658.92z"/>
<path class="st46" d="M133.13,647.09c0.34-2.03,0.68-4.06,1.03-6.09c3.26-0.01,5.13,2.93,7.96,3.81c0.05,1.99-0.39,3.78-2.03,5.1
	C137.59,649.43,135.2,648.67,133.13,647.09z"/>
<path class="st63" d="M151.94,653.97c1.74-1.35,0.87-3.28,1.08-4.97c2.65,0.98,5.31,1.96,7.96,2.94c3.07,2.75,3.18,3.36,0.95,4.97
	C158.46,656.45,155.04,655.75,151.94,653.97z"/>
<path class="st64" d="M161.94,656.92c1.97-2.1-0.72-3.3-0.95-4.97c4.03,1.21,8.23,1.87,12.01,3.87c0.1,1.31,0.57,2.63-0.13,3.92
	C169.21,658.84,165.4,658.55,161.94,656.92z"/>
<path class="st65" d="M258.29,243.04c0.13-1.64-0.57-3.71,2.09-4.03c2.27,0.78,4.88,0.49,6.85,2.21c1.04,1.22,1.04,2.44,0,3.67
	C264.29,244.1,261.07,244.62,258.29,243.04z"/>
<path class="st26" d="M267.23,244.89c0-1.22,0-2.44,0-3.67c3.61-0.04,6.95,0.9,10.04,2.77c-1.2,0.65-1.09,1.79-1.09,2.9
	C273.19,246.22,270.21,245.56,267.23,244.89z"/>
<path class="st66" d="M185.81,658.92c0,0.95,0.01,1.91,0.01,2.86c-2.78,0.66-5.31-0.64-7.95-1.03c-0.69-1.36-1.35-2.71,1.07-2.91
	C181.22,658.2,183.51,658.56,185.81,658.92z"/>
<path class="st67" d="M178.93,657.84c-1.18,0.66-1.06,1.81-1.07,2.91c-1.67-0.34-3.33-0.67-5-1.01c-0.62-1.33-1.72-2.67,0.13-3.92
	C174.91,656.69,177.21,656.4,178.93,657.84z"/>
<path class="st55" d="M208.69,663.81c2.14-1.82,4.74-0.39,7.05-1.01c4.65,0,9.31,0,13.96,0c-0.01,0.34-0.01,0.67-0.02,1.01
	C222.69,663.81,215.69,663.81,208.69,663.81z"/>
<path class="st59" d="M211.67,241.89c2.9-1.69,6.03-0.54,9.06-0.77C217.8,242.44,214.7,241.81,211.67,241.89z"/>
<path class="st50" d="M232.69,234.97c-2.71-0.19-5.54,0.92-8.12-0.75C227.31,234.2,230.08,233.69,232.69,234.97z"/>
<path class="st66" d="M195.64,662.93c2.01,0.19,4.18-0.76,6.01,0.81C199.61,663.68,197.49,664.31,195.64,662.93z"/>
<path class="st68" d="M241.9,662.26c-1.49,0.81-2.5,0.82-3.59,0.22C239.26,661.51,240.26,661.88,241.9,662.26z"/>
<path class="st0" d="M173.89,335.96c1.99,0,3.97,0,5.96,0c2.98,0,5.96,0,8.94,0c2.65,0,5.3,0,7.94,0c1.65,0.07,3.3,0.13,4.96,0.2
	c-1.19,20.09-2.42,40.18-3.55,60.27c-1.88,33.39-3.68,66.79-5.55,100.18c-0.96,17.11-1.99,34.21-2.99,51.32
	c-0.42,0.42-0.91,0.74-1.45,0.98c-3.17,0.71-6.4,0.26-9.6,0.42c-3.21-0.33-6.62,0.84-9.61-1.25c-12.26,0-24.52,0-36.77,0
	c-3.45,2.23-7.31,0.85-10.97,1.27c-5.86,0.01-11.73-0.08-17.59,0.06c-6.22-0.21-12.45,0.11-18.66-0.24
	c-2.14-0.52-3.28-1.45-1.44-3.6c0.73-0.86,1.43-1.74,2.1-2.64c3.29-3.03,4.9-7.4,8.14-10.48c3.04-2.71,5.1-6.28,7.94-9.17
	c3.58-4.7,7.38-9.22,10.81-14.03c3.2-3.46,6.19-7.1,9.08-10.83c2.51-2.88,4.5-6.16,7.02-9.03c2.84-3.18,5.45-6.55,7.99-9.97
	c3.33-3.41,6.02-7.32,8.78-11.18c5.16-5.11,9.34-11.02,13.68-16.8c2.06-2.37,4.1-4.75,6.17-7.11c7.11-9.38,7.11-9.38-1.04-17.68
	c-1.11-2.56-3.72-3.9-5.08-6.26c-4.14-5.91-8.67-11.5-13.56-16.8c-2.48-3.45-5.22-6.71-7.92-9.98c-1.52-2.18-3.14-4.28-5.06-6.13
	c-1.82-2.77-4.19-5.11-6.06-7.84c-2.07-2.24-3.97-4.63-5.85-7.03c-1.75-1.92-3.03-4.23-4.9-6.05c-1.31-1.71-2.43-3.56-4.05-5.01
	c-1.81-1.88-3.04-4.26-5.01-6.02c-2-2.37-3.78-4.92-5.88-7.21c-2.34-3.48-5.69-6.22-7.39-10.17c-1.02-0.72-1.03-1.45,0-2.17
	c2.32,0,4.63,0,6.95,0c2.32,0,4.63,0,6.95,0c2.65,0,5.3,0,7.94,0.01c3.64,0,7.28,0,10.92,0c3.31,0,6.62,0,9.93,0
	c2.98,0,5.96,0,8.94,0.01c4.97,0,9.94,0,14.9-0.01c2.32,0,4.63,0,6.95,0C169.26,335.96,171.57,335.96,173.89,335.96z"/>
<path class="st69" d="M188.74,548.08c0.28-0.1,0.56-0.15,0.85-0.15c-0.31,8.35-0.52,16.71-1.84,24.99
	c-1.31-0.02-2.62-0.03-3.92-0.05c-1.83-2.05-1.61-4.6-1.52-7.02c0.19-5.39-0.75-10.83,0.7-16.16
	C184.42,547.38,186.98,549.15,188.74,548.08z"/>
<path class="st0" d="M48.76,561.11c-2.27-4.16-4.53-8.31-6.8-12.47c-2.69-5.9-5.38-11.81-8.08-17.71
	c-2.6-7.77-5.19-15.54-7.79-23.31c-1.66-7.98-3.33-15.96-4.99-23.95c-1.78-16.97-2.97-33.95-1.13-51.01
	c0.44-4.11,0.78-8.22,1.17-12.33c1.6-7.76,3.21-15.53,4.81-23.29c2.01-6.28,4.02-12.56,6.03-18.84c1.66-4.06,3.32-8.12,4.97-12.17
	c1.62-3.36,3.23-6.72,4.85-10.08c2.45-3.46,4.22-7.3,5.96-11.15c2.77-3.32,4.91-7.05,6.95-10.85c0.68,0.02,1.36,0.03,2.04,0.05
	c2.92,4.3,6.24,8.27,9.8,12.04c2.68,3.92,5.55,7.68,8.96,10.99c1.39,2.21,2.77,4.41,4.88,6.02c1.42,2.18,2.83,4.37,4.87,6.03
	c1.83,2.29,3.65,4.59,5.48,6.88c4.06,2.26,6.1,6.46,9.17,9.68c1.41,2.53,3.79,4.27,5.36,6.67c1.82,2.42,3.81,4.72,5.66,7.11
	c1.52,1.56,2.85,3.28,4.11,5.05c1.72,1.95,3.53,3.81,4.97,6c2.09,2.19,3.62,4.86,5.8,6.98c1.81,1.91,3.09,4.26,5,6.1
	c1.6,2.42,3.62,4.51,5.34,6.84c3.02,3.67,6.1,7.29,9.02,11.05c5.68,7.03,5.68,7.03-0.19,14.01c-3.03,3.96-6.29,7.73-9.2,11.78
	c-3.07,3.28-5.82,6.84-8.58,10.39c-2.43,2.94-4.71,6.01-7.17,8.93c-2.84,3.77-5.89,7.37-8.75,11.12c-3.27,4.36-7,8.34-10.23,12.74
	c-2.77,3.25-5.44,6.57-7.97,10.01c-2.66,3.29-5.5,6.42-7.99,9.84c-2.48,3.45-5.43,6.51-7.92,9.96c-2.44,2.62-4.44,5.61-6.8,8.31
	c-2.32,3.04-4.72,6.01-7.11,9c-3.11,2.91-4.76,7.2-8.71,9.31c-0.54,0.23-1.09,0.46-1.63,0.69
	C51.87,565.16,50.71,562.88,48.76,561.11z"/>
<path class="st14" d="M76.45,539.67c2.15-3.67,4.97-6.8,7.87-9.86c2.79,0.1,2.68,2.51,2.98,4.22c0.55,3.06,0.32,6.18-0.67,9.18
	c-1.03,1.61-2.06,3.22-3.09,4.82c0.75,0.36,1.45,0.78,1.8,1.6c0.59,6.86,0.04,13.74,0.36,20.6c0.05,1.01-0.51,1.88-1.18,2.64
	c-2.32,0-4.63,0-6.95,0c-0.79-0.89-1.31-1.95-1.29-3.13C76.38,559.73,75.47,549.69,76.45,539.67z"/>
<path class="st37" d="M100.4,572.87c-2.98,0-5.96,0-8.93,0c-2.58-3.75-1.33-8.01-1.41-12.04c-0.08-4.06-0.54-8.25,1.38-12.11
	c10.5-0.93,10.58-0.93,10.47,9.51C101.85,563.14,102.62,568.17,100.4,572.87z"/>
<path class="st70" d="M120.25,572.87c-2.98,0-5.96,0-8.94,0c-2.43-5.43-1.89-20.15,0.89-24.15c2.36-0.46,4.72-0.42,7.09-0.03
	C122.58,556.64,122.6,564.71,120.25,572.87z"/>
<path class="st45" d="M76.45,539.67c1.18,1.92,1.14,4.04,1.13,6.19c-0.03,9.01-0.01,18.01-0.02,27.01c-1.99,0-3.97,0-5.96,0
	c-1.7-1.92-1.44-4.31-1.47-6.6c-0.1-6.11,0.21-12.23-0.43-18.32C71.73,545.02,73.71,542.04,76.45,539.67z"/>
<path class="st52" d="M91.47,548.94c0,7.98,0,15.96-0.01,23.94c-2.32,0-4.63,0-6.95,0c-0.12-7.98-0.83-15.96,0.01-23.94
	C86.83,548.17,89.15,548.17,91.47,548.94z"/>
<path class="st22" d="M69.7,547.96c2.28,1.1,1.91,3.21,1.91,5.16c0.01,6.59,0,13.17,0,19.76c-2.65,0-5.29,0.01-7.94,0.01
	c-1.39-2.27-1.24-4.83-0.85-7.21c0.51-3.02,0.33-5.91-0.3-8.83C64.91,553.89,67.3,550.93,69.7,547.96z"/>
<path class="st38" d="M133.16,572.88c-2.32,0-4.63,0-6.95,0c-1.71-1.91-1.65-4.3-1.51-6.58c0.33-5.72-1.12-11.56,1.09-17.15
	c2.1-1.17,4.24-0.89,6.4-0.21c0.33,0,0.66,0,0.99,0C135.71,556.92,135.73,564.9,133.16,572.88z"/>
<path class="st71" d="M138.14,548.93c6.95,0.01,6.95,0.01,6.95,6.81c0,3.46,0,6.92,0,10.38c0,6.82,0,6.82-6.96,6.76
	c-3.08-5.57-1.04-11.6-1.52-17.41C136.41,553.21,136.45,550.83,138.14,548.93z"/>
<path class="st72" d="M126.22,548.94c0,7.98-0.01,15.96-0.01,23.94c-1.99,0-3.97,0-5.96-0.01c0.01-7.99,0.04-15.99-0.98-23.94
	c0.67-0.58,1.49-0.47,2.28-0.49C123.1,548.64,124.74,548,126.22,548.94z"/>
<path class="st53" d="M91.47,548.94c-2.32,0-4.63,0-6.95,0c-0.33-0.3-0.66-0.6-0.99-0.9c6.62,0.02,13.25,0.03,19.87,0.05
	c1.02,0.48,2.4,0.38,2.85,1.79c1.08,6.23,0.43,12.6,1.44,18.85c0.24,1.49-0.26,2.97-1.34,4.15c-1.99,0-3.97,0-5.96,0
	c0-5.89-0.29-11.8,0.1-17.66c0.33-4.82-0.89-7.26-6.1-6.3C93.45,549.08,92.45,548.93,91.47,548.94z"/>
<path class="st73" d="M106.36,572.87c-0.14-7.99-1.59-15.92-0.99-23.94c2.32-0.75,4.63-0.76,6.95,0c-2.14,7.9-0.19,15.98-1,23.94
	C109.66,572.87,108.01,572.87,106.36,572.87z"/>
<path class="st74" d="M173.9,572.87c-1.65,0-3.31,0-4.96,0.01c-1.6-1.73-1.72-3.93-1.55-6.04c0.48-5.97-1.51-12.16,1.53-17.91h0
	c1.55-0.88,3.19-0.43,4.81-0.33c2.64,3.27,1.5,7.25,1.69,10.86C175.66,563.93,176.21,568.62,173.9,572.87z"/>
<path class="st75" d="M183.82,548.94c0,7.98,0.01,15.96,0.01,23.94c-1.65,0-3.31,0-4.96,0c-2.05-2.42-1.51-5.37-1.48-8.14
	c0.05-4.82-0.46-9.66,0.4-14.45c0.19-0.58,0.5-1.09,0.93-1.51C180.43,548.37,182.14,548.09,183.82,548.94z"/>
<path class="st66" d="M163.97,572.89c-3.72,0.58-5.36-0.69-5.06-4.79c0.35-4.75,0.35-9.57,0-14.32c-0.3-4.08,1.32-5.38,5.05-4.84
	c1.8,2.06,1.73,4.62,1.53,7.04C165.02,561.61,167.02,567.49,163.97,572.89z"/>
<path class="st76" d="M163.97,572.89c0-7.98-0.01-15.97-0.01-23.95c1.65,0,3.31,0,4.96,0c0.01,7.98,0.01,15.97,0.02,23.95
	C167.28,572.88,165.63,572.88,163.97,572.89z"/>
<path class="st76" d="M138.14,548.93c0,7.98-0.01,15.97-0.01,23.95c-1.65,0-3.31,0-4.96,0c0-7.98,0.01-15.97,0.01-23.95
	C134.83,548.93,136.48,548.93,138.14,548.93z"/>
<path class="st34" d="M178.85,548.93c0,7.98,0.01,15.96,0.01,23.94c-1.65,0-3.31,0-4.96,0c0-7.98-0.01-15.96-0.01-23.94
	C175.54,548.18,177.2,548.19,178.85,548.93z"/>
<path class="st26" d="M62.52,556.85c1.53,0.68,2.25,1.88,2.13,3.53c-0.3,4.17-0.65,8.34-0.98,12.51c-2.04,0.37-4.31-0.66-6.14,1
	c-1.86-1.99,0.57-5.79-2.96-7.07C56.97,563.31,59.45,559.85,62.52,556.85z"/>
<path class="st76" d="M126.22,548.94c-1.65,0-3.31,0-4.96,0c-0.32-0.19-0.43-0.37-0.33-0.56c0.1-0.19,0.21-0.29,0.32-0.29
	c3.64,0,7.27,0,10.91-0.01c0.01,0.29,0.02,0.57,0.02,0.86C130.2,548.93,128.21,548.93,126.22,548.94z"/>
<path class="st76" d="M178.85,548.93c-1.65,0-3.31,0-4.96,0c-1.66,0-3.31,0-4.97,0c0-0.29,0.01-0.57,0.02-0.86
	c3.31,0,6.62,0.01,9.93,0.01c0.31,0.19,0.41,0.38,0.3,0.57C179.06,548.84,178.96,548.93,178.85,548.93z"/>
<path class="st37" d="M99.22,386.13c-3.27-3.01-5.84-6.6-8.46-10.16c2.65-0.74,1.65-2.95,1.67-4.58c0.09-8.48,0.1-16.96,0.01-25.43
	c-0.03-2.68,0.2-5.29,1.01-7.84c3.37,2.65,5.82,6.08,8.09,9.67c0.96,11.6,0.39,23.21,0.23,34.81
	C101.75,384.12,101.56,386.05,99.22,386.13z"/>
<path class="st6" d="M144.07,454.95c4.91-6.35,4.91-6.35,0.23-13.09c-1.09-11.61-0.05-23.24-0.23-34.85
	c-0.03-1.69,0.47-3.3,2.1-4.26c5.09,5.35,9.99,10.85,13.82,17.22c0.73,10.65,0.94,21.3-0.09,31.95c-4.12,6.08-8.5,11.95-13.82,17.05
	c-3.08-2.32-1.71-5.66-1.99-8.64C143.93,458.53,144.07,456.75,144.07,454.95z"/>
<path class="st71" d="M146.18,402.76c-1.55,10-0.96,20.08-0.83,30.12c0.04,3.13-0.12,6.06-1.05,8.99
	c-2.97-3.66-5.94-7.31-8.91-10.97c0.46-10.13,0.1-20.26,0.28-30.39c0.05-2.78-0.21-5.75,2.53-7.67
	C141.38,395.71,143.79,399.23,146.18,402.76z"/>
<path class="st53" d="M99.22,386.13c1.81-1.36,1.15-3.34,1.16-5.09c0.06-8.99,0.04-17.98,0.02-26.98c0-2.17-0.11-4.34,1.14-6.28
	c2.48,1.94,4.17,4.55,5.87,7.15c1.08,11.62,0.5,23.26,0.25,34.89c-0.03,1.51-0.12,4.03-3.07,3.15
	C102.78,390.7,100.34,388.94,99.22,386.13z"/>
<path class="st38" d="M130.04,424.08c-2.18-1.56-3.39-3.93-4.92-6.02c-0.88-11.4-0.4-22.82-0.25-34.23
	c0.02-1.85,0.58-3.61,2.32-4.69c2.24,2.4,4.57,4.71,6.11,7.67c0.98,10.94,0.39,21.9,0.25,32.85
	C133.51,421.76,133.11,424.15,130.04,424.08z"/>
<path class="st77" d="M127.18,379.14c-2.01,9.88-0.4,19.88-1,29.8c-0.18,3.04,1.12,6.3-1.06,9.12c-2.46-1.93-3.99-4.63-5.82-7.08
	c-0.85-11.07-0.02-22.16-0.35-33.23c-0.06-2.13,0.43-4.32,2.33-5.79C123.24,374.35,125.21,376.75,127.18,379.14z"/>
<path class="st78" d="M104.58,392.97c2.67-0.67,1.73-2.87,1.74-4.5c0.08-9.26,0.05-18.52,0.03-27.79c0-2-0.06-3.98,1.05-5.76
	c2.23,1.52,3.47,3.88,4.95,6.03c1.14,11.95,0.5,23.92,0.29,35.88c-0.02,1.38-0.25,3.13-2.36,3.19
	C108.38,397.68,106.48,395.33,104.58,392.97z"/>
<path class="st60" d="M130.04,424.08c2.32-1.01,2.15-3.06,2.15-5.08c-0.01-8.81,0.01-17.61-0.02-26.42c-0.01-2.01,0-3.99,1.12-5.77
	c2.09,1.63,3.71,3.66,4.91,6.02c-2.25,10.69-0.49,21.51-1.06,32.25c-0.11,2.07,0.67,4.44-1.75,5.81
	C133.45,428.74,131.35,426.73,130.04,424.08z"/>
<path class="st79" d="M121.27,371.95c-1.22,6.86-0.49,13.71-0.47,20.59c0.02,6.02,0.67,12.45-1.5,18.43
	c-1.64-2.01-3.27-4.01-4.91-6.02c-0.25-7.08,0.36-14.14-0.15-21.26c-0.42-5.93-0.65-12.13,2.09-17.81
	C118.55,367.44,119.81,369.78,121.27,371.95z"/>
<path class="st75" d="M116.33,365.88c-0.96,9.4-0.23,18.85-0.69,28.23c-0.17,3.53,2.73,7.71-1.25,10.84
	c-1.37-1.64-2.74-3.28-4.12-4.92c1.67-1.43,1.01-3.37,1.02-5.11c0.06-9.41,0.04-18.81,0.02-28.22c0-1.99-0.07-3.97,1.03-5.75
	C114.22,362.16,115.3,364,116.33,365.88z"/>
<path class="st80" d="M100.24,509.85c3.41-4.28,6.83-8.55,10.24-12.83c2.5-0.08,2.9,1.82,3.03,3.59c0.23,3.07,0.69,6.17-0.25,9.22
	c-3.14,5.05-6.88,9.61-10.92,13.94C98.32,519.64,100.43,514.57,100.24,509.85z"/>
<path class="st71" d="M144.07,454.95c3.03,4.33-0.23,9.58,2.02,14.02c-2.42,4.09-5.26,7.85-8.72,11.12
	c-2.48,0.16-2.29-1.86-2.45-3.31c-0.37-3.36-0.8-6.75,0.11-10.11C137.48,462.34,141,458.82,144.07,454.95z"/>
<path class="st39" d="M113.27,509.83c-1.47-2.41-0.82-5.08-0.94-7.66c-0.09-1.92,0.4-4.02-1.84-5.15c2.96-3.67,5.91-7.35,8.87-11.03
	c2.45-1.07,2.89,0.88,3.04,2.39c0.35,3.52,1.1,7.08-0.14,10.59C119.7,502.96,116.72,506.59,113.27,509.83z"/>
<path class="st66" d="M159.9,451.93c-2.04-5.73-0.74-11.66-0.79-17.48c-0.04-4.81-1.26-9.78,0.88-14.47
	c1.35,2.24,4.49,3.02,4.9,6.03c1,6.28-0.05,12.66,0.95,18.93C163.86,447.27,161.88,449.6,159.9,451.93z"/>
<path class="st40" d="M135.02,466.68c1.6,2.83,0.59,5.99,1.1,8.96c0.26,1.54-0.45,3.32,1.24,4.45c-2.46,3.49-4.84,7.05-8,9.96
	c-3.05-0.21-2.96-2.74-2.95-4.66c0.02-2.78-0.14-5.56,0.03-8.33C129.02,473.36,131.66,469.71,135.02,466.68z"/>
<path class="st81" d="M100.24,509.85c2.2,2.25,0.98,5.06,1.07,7.59c0.08,2.2,0.57,4.25,1.03,6.34c-2.31,3.3-4.64,6.59-7.63,9.32
	c-2.76,0-2.43-2.27-2.62-3.89c-0.35-3.11-0.26-6.25,0.2-9.36C94.6,516.24,97.21,512.87,100.24,509.85z"/>
<path class="st82" d="M92.3,519.85c2.18,2.17,0.75,4.92,1.15,7.38c0.32,1.98-0.81,4.27,1.27,5.87c-3.28,2.9-4.46,7.5-8.09,10.11
	c-1.84-3.65,0.83-7.74-1.13-11.37c-0.37-0.69-0.79-1.35-1.18-2.03C86.55,526.15,89.28,522.88,92.3,519.85z"/>
<path class="st46" d="M126.45,477.06c1.2,2.3,2.2,4.52,1.18,7.32c-0.75,2.07,0.22,4.07,1.73,5.68c-2.41,2.94-4.15,6.42-7.11,8.91
	c-1.02-2.98-1.08-6.05-1.03-9.16c0.03-1.52,0.56-3.45-1.87-3.82C121.72,483.02,124.09,480.04,126.45,477.06z"/>
<path class="st76" d="M165.84,444.95c-0.53-0.32-1.52-0.63-1.53-0.97c-0.19-6-1.31-12.04,0.58-17.96c2.84,1.78,4.31,4.84,6.62,7.11
	c1.8,1.77,1.56,3.32-0.03,5.08C169.53,440.38,167.72,442.69,165.84,444.95z"/>
<path class="st38" d="M121.25,548.08c0,0.28,0.01,0.57,0.01,0.85c-0.66,0-1.33,0-1.99,0c-2.32,0-4.63,0-6.95,0
	c-2.32,0-4.63,0-6.95,0c-0.66-0.28-1.31-0.56-1.97-0.84C109.35,548.09,115.3,548.08,121.25,548.08z"/>
<path class="st34" d="M178.85,548.93c0-0.28,0.01-0.56,0.02-0.85c3.29,0,6.58,0,9.87,0c-1.44,1.45-3.27,0.63-4.92,0.85
	C182.16,548.93,180.51,548.93,178.85,548.93z"/>
<rect x="1.99" y="232.97" class="st83" width="592.03" height="432"/>
</svg>
